<?xml version="1.0" encoding="UTF-8"?>
<svg width="26px" height="26px" viewBox="0 0 26 26" version="1.1" xmlns="http://www.w3.org/2000/svg" xmlns:xlink="http://www.w3.org/1999/xlink">
    <!-- Generator: Sketch 60.1 (88133) - https://sketch.com -->
    <title></title>
    <desc>Created with Sketch.</desc>
    <g id="Page-1" stroke="none" stroke-width="1" fill="none" fill-rule="evenodd">
        <g id="0.9.1_onboarding_remeinder_time" transform="translate(-177.000000, -130.000000)" fill="#212121" fill-rule="nonzero">
            <path d="M200.89,137.53 L202.48,135.64 L196.75,130.72 L195.1,132.61 L200.89,137.53 Z M179.11,137.53 L184.9,132.79 L183.25,130.9 L177.52,135.64 L179.11,137.53 Z M190,155.98 C192.06,155.98 193.96,155.47 195.7,154.45 C197.4,153.47 198.74,152.13 199.72,150.43 C200.74,148.69 201.25,146.79 201.25,144.73 C201.25,142.67 200.74,140.77 199.72,139.03 C198.74,137.33 197.4,135.99 195.7,135.01 C193.96,133.99 192.06,133.48 190,133.48 C187.94,133.48 186.04,133.99 184.3,135.01 C182.6,135.99 181.26,137.33 180.28,139.03 C179.26,140.77 178.75,142.67 178.75,144.73 C178.75,146.79 179.26,148.69 180.28,150.43 C181.26,152.13 182.6,153.47 184.3,154.45 C186.04,155.47 187.94,155.98 190,155.98 Z M190,153.52 C188.4,153.52 186.93,153.12 185.59,152.32 C184.27,151.54 183.22,150.48 182.44,149.14 C181.66,147.8 181.27,146.33 181.27,144.73 C181.27,143.13 181.66,141.66 182.44,140.32 C183.22,139 184.27,137.95 185.59,137.17 C186.93,136.39 188.4,136 190,136 C191.6,136 193.07,136.39 194.41,137.17 C195.73,137.95 196.78,139 197.56,140.32 C198.34,141.66 198.73,143.13 198.73,144.73 C198.73,146.33 198.34,147.8 197.56,149.14 C196.78,150.48 195.73,151.54 194.41,152.32 C193.07,153.12 191.6,153.52 190,153.52 Z M194.62,149.65 L195.64,148.12 L190.66,145.15 L190.66,138.52 L188.77,138.52 L188.77,146.02 L194.62,149.65 Z" id=""></path>
        </g>
    </g>
</svg>