<svg width="100" height="100" viewBox="0 0 100 100" fill="none" xmlns="http://www.w3.org/2000/svg">
<path fill-rule="evenodd" clip-rule="evenodd" d="M5.47803 88.7257L50.8496 46.797L95.2418 88.7257H5.47803Z" fill="white" stroke="#747474" stroke-width="3"/>
<path fill-rule="evenodd" clip-rule="evenodd" d="M5.47803 88.7258L30.1332 64.5004L35.0657 70.8056L40.327 64.5004L45.2594 70.8056L50.0275 64.5004L55.7821 70.8056L60.0569 64.5004L65.3182 70.8056L71.2371 64.5004L95.2418 88.7258H5.47803Z" fill="#747474"/>
<path d="M50.8276 46.7971V16.0494" stroke="#747474" stroke-width="2"/>
<path fill-rule="evenodd" clip-rule="evenodd" d="M52.0815 15.7813V33.0441C53.3862 34.398 56.3218 35.075 60.8883 35.075C64.126 35.075 67.2084 32.0323 72.3045 31.3517C73.6987 31.1654 76.3082 31.7296 80.1327 33.0441V15.7813C76.4775 15.4173 73.868 15.4173 72.3045 15.7813C67.4682 16.9069 63.7194 19.5046 60.8883 19.5046C56.6843 19.5046 53.7487 18.2635 52.0815 15.7813Z" fill="#747474"/>
<path d="M50.7529 14.727C51.7857 14.727 52.623 13.8927 52.623 12.8635C52.623 11.8343 51.7857 11 50.7529 11C49.7201 11 48.8828 11.8343 48.8828 12.8635C48.8828 13.8927 49.7201 14.727 50.7529 14.727Z" stroke="#F7ABAF" stroke-width="2"/>
</svg>
