<?xml version="1.0" encoding="UTF-8"?>
<svg width="102px" height="82px" viewBox="0 0 102 82" version="1.1" xmlns="http://www.w3.org/2000/svg" xmlns:xlink="http://www.w3.org/1999/xlink">
    <!-- Generator: Sketch 60.1 (88133) - https://sketch.com -->
    <title></title>
    <desc>Created with Sketch.</desc>
    <g id="Page-1" stroke="none" stroke-width="1" fill="none" fill-rule="evenodd">
        <g id="1.0_home_First-users" transform="translate(-51.000000, -175.000000)" fill="#000000" fill-rule="nonzero">
            <path d="M142.947115,257 C145.725962,257 148.096154,255.977046 150.057692,253.931138 C152.019231,251.88523 153,249.471058 153,246.688623 L153,246.688623 L153,175 L132.649038,175 L142.947115,190.344311 L127.622596,190.344311 L117.324519,175 L107.026442,175 L117.324519,190.344311 L102,190.344311 L91.7019231,175 L81.6490385,175 L91.7019231,190.344311 L76.3774038,190.344311 L66.3245192,175 L61.0528846,175 C58.2740385,175 55.9038462,176.022954 53.9423077,178.068862 C51.9807692,180.11477 51,182.528942 51,185.311377 L51,185.311377 L51,246.688623 C51,249.471058 51.9807692,251.88523 53.9423077,253.931138 C55.9038462,255.977046 58.2740385,257 61.0528846,257 L61.0528846,257 L142.947115,257 Z M121.5,226 L116.664,215.336 L106,210.5 L116.664,205.664 L121.5,195 L126.336,205.664 L137,210.5 L126.336,215.336 L121.5,226 Z M91.3772455,247 L85.1167665,232.883234 L71,226.622754 L85.1167665,220.116766 L91.3772455,206 L97.8832335,220.116766 L112,226.622754 L97.8832335,232.883234 L91.3772455,247 Z" id=""></path>
        </g>
    </g>
</svg>