<svg width="609" height="598" viewBox="0 0 609 598" fill="none" xmlns="http://www.w3.org/2000/svg">
<g clip-path="url(#clip0)">
<path fill-rule="evenodd" clip-rule="evenodd" d="M373.105 200L421 302.369L302.047 587H201L373.105 200Z" fill="#D2D0D0" stroke="#D2D0D0" stroke-width="5"/>
<path fill-rule="evenodd" clip-rule="evenodd" d="M517 107L714 586H320L517 107Z" fill="#D2D0D0" stroke="#D2D0D0" stroke-width="5"/>
<path fill-rule="evenodd" clip-rule="evenodd" d="M372.5 192L419 302.44C419 302.44 406.387 320.36 399.803 315.687C386.274 306.084 378.311 325 372.5 325C366.831 325 357.912 304.462 343.272 315.687C336.661 320.755 326 302.44 326 302.44L372.5 192Z" fill="white" stroke="#D2D0D0" stroke-width="3"/>
<path fill-rule="evenodd" clip-rule="evenodd" d="M516 111L562 220.706C562 220.706 552.025 240.747 545.618 235.815C530.326 224.045 521.749 243 516 243C510.392 243 503.248 227.239 494.863 229.544C494.127 229.747 485.567 236.074 484.793 235.984C480.458 235.478 470 220.706 470 220.706L516 111Z" fill="white" stroke="#D2D0D0" stroke-width="3"/>
<path d="M406.189 366.035C406.189 367.324 405.724 368.34 404.793 369.082C403.868 369.824 402.579 370.195 400.926 370.195C399.402 370.195 398.055 369.909 396.883 369.336V366.523C397.846 366.953 398.66 367.256 399.324 367.432C399.995 367.607 400.607 367.695 401.16 367.695C401.824 367.695 402.332 367.568 402.684 367.314C403.042 367.061 403.221 366.683 403.221 366.182C403.221 365.902 403.143 365.654 402.986 365.439C402.83 365.218 402.599 365.007 402.293 364.805C401.993 364.603 401.378 364.281 400.447 363.838C399.575 363.428 398.921 363.034 398.484 362.656C398.048 362.279 397.7 361.839 397.439 361.338C397.179 360.837 397.049 360.251 397.049 359.58C397.049 358.317 397.475 357.324 398.328 356.602C399.188 355.879 400.372 355.518 401.883 355.518C402.625 355.518 403.331 355.605 404.002 355.781C404.679 355.957 405.385 356.204 406.121 356.523L405.145 358.877C404.383 358.564 403.751 358.346 403.25 358.223C402.755 358.099 402.267 358.037 401.785 358.037C401.212 358.037 400.773 358.171 400.467 358.438C400.161 358.704 400.008 359.053 400.008 359.482C400.008 359.749 400.07 359.984 400.193 360.186C400.317 360.381 400.512 360.573 400.779 360.762C401.053 360.944 401.694 361.276 402.703 361.758C404.038 362.396 404.952 363.037 405.447 363.682C405.942 364.32 406.189 365.104 406.189 366.035ZM411.805 362.441H412.801C413.732 362.441 414.428 362.259 414.891 361.895C415.353 361.523 415.584 360.986 415.584 360.283C415.584 359.574 415.389 359.049 414.998 358.711C414.614 358.372 414.008 358.203 413.182 358.203H411.805V362.441ZM418.641 360.176C418.641 361.712 418.159 362.887 417.195 363.701C416.238 364.515 414.874 364.922 413.104 364.922H411.805V370H408.777V355.723H413.338C415.07 355.723 416.385 356.097 417.283 356.846C418.188 357.588 418.641 358.698 418.641 360.176ZM429.559 370H421.336V355.723H429.559V358.203H424.363V361.338H429.197V363.818H424.363V367.5H429.559V370ZM441.287 370L440.252 366.602H435.047L434.012 370H430.75L435.789 355.664H439.49L444.549 370H441.287ZM439.529 364.062C438.572 360.983 438.032 359.242 437.908 358.838C437.791 358.434 437.706 358.115 437.654 357.881C437.439 358.714 436.824 360.775 435.809 364.062H439.529ZM457.84 370H454.402L450.662 363.984L449.383 364.902V370H446.355V355.723H449.383V362.256L450.574 360.576L454.441 355.723H457.801L452.82 362.041L457.84 370ZM367.264 385.037C366.124 385.037 365.242 385.467 364.617 386.326C363.992 387.179 363.68 388.37 363.68 389.9C363.68 393.084 364.874 394.676 367.264 394.676C368.266 394.676 369.48 394.425 370.906 393.924V396.463C369.734 396.951 368.426 397.195 366.98 397.195C364.904 397.195 363.315 396.567 362.215 395.311C361.115 394.048 360.564 392.238 360.564 389.881C360.564 388.396 360.835 387.098 361.375 385.984C361.915 384.865 362.69 384.008 363.699 383.416C364.715 382.817 365.903 382.518 367.264 382.518C368.65 382.518 370.044 382.853 371.443 383.523L370.467 385.984C369.933 385.73 369.396 385.509 368.855 385.32C368.315 385.132 367.785 385.037 367.264 385.037ZM386.912 389.842C386.912 392.205 386.326 394.021 385.154 395.291C383.982 396.561 382.303 397.195 380.115 397.195C377.928 397.195 376.248 396.561 375.076 395.291C373.904 394.021 373.318 392.199 373.318 389.822C373.318 387.446 373.904 385.633 375.076 384.383C376.255 383.126 377.941 382.498 380.135 382.498C382.329 382.498 384.005 383.13 385.164 384.393C386.329 385.656 386.912 387.472 386.912 389.842ZM376.492 389.842C376.492 391.437 376.795 392.638 377.4 393.445C378.006 394.253 378.911 394.656 380.115 394.656C382.531 394.656 383.738 393.051 383.738 389.842C383.738 386.626 382.537 385.018 380.135 385.018C378.93 385.018 378.022 385.424 377.41 386.238C376.798 387.046 376.492 388.247 376.492 389.842ZM402.537 397H398.689L392.479 386.199H392.391C392.514 388.107 392.576 389.467 392.576 390.281V397H389.871V382.723H393.689L399.891 393.416H399.959C399.861 391.561 399.812 390.249 399.812 389.48V382.723H402.537V397ZM409.119 397H406.141V382.723H414.324V385.203H409.119V388.885H413.963V391.355H409.119V397ZM417.117 397V382.723H420.145V397H417.117ZM435.584 389.725C435.584 392.075 434.913 393.875 433.572 395.125C432.238 396.375 430.307 397 427.781 397H423.738V382.723H428.221C430.551 382.723 432.361 383.338 433.65 384.568C434.939 385.799 435.584 387.518 435.584 389.725ZM432.439 389.803C432.439 386.736 431.085 385.203 428.377 385.203H426.766V394.5H428.064C430.981 394.5 432.439 392.934 432.439 389.803ZM446.766 397H438.543V382.723H446.766V385.203H441.57V388.338H446.404V390.818H441.57V394.5H446.766V397ZM462.42 397H458.572L452.361 386.199H452.273C452.397 388.107 452.459 389.467 452.459 390.281V397H449.754V382.723H453.572L459.773 393.416H459.842C459.744 391.561 459.695 390.249 459.695 389.48V382.723H462.42V397ZM471.531 397H468.504V385.242H464.627V382.723H475.408V385.242H471.531V397ZM477.605 397V382.723H480.633V394.5H486.424V397H477.605ZM493.357 388.602L496.336 382.723H499.598L494.861 391.443V397H491.854V391.541L487.117 382.723H490.398L493.357 388.602ZM395.027 424H392V412.242H388.123V409.723H398.904V412.242H395.027V424ZM414.061 416.842C414.061 419.205 413.475 421.021 412.303 422.291C411.131 423.561 409.451 424.195 407.264 424.195C405.076 424.195 403.396 423.561 402.225 422.291C401.053 421.021 400.467 419.199 400.467 416.822C400.467 414.446 401.053 412.633 402.225 411.383C403.403 410.126 405.089 409.498 407.283 409.498C409.477 409.498 411.154 410.13 412.312 411.393C413.478 412.656 414.061 414.472 414.061 416.842ZM403.641 416.842C403.641 418.437 403.943 419.638 404.549 420.445C405.154 421.253 406.059 421.656 407.264 421.656C409.679 421.656 410.887 420.051 410.887 416.842C410.887 413.626 409.686 412.018 407.283 412.018C406.079 412.018 405.171 412.424 404.559 413.238C403.947 414.046 403.641 415.247 403.641 416.842ZM425.242 416.441H426.238C427.169 416.441 427.866 416.259 428.328 415.895C428.79 415.523 429.021 414.986 429.021 414.283C429.021 413.574 428.826 413.049 428.436 412.711C428.051 412.372 427.446 412.203 426.619 412.203H425.242V416.441ZM432.078 414.176C432.078 415.712 431.596 416.887 430.633 417.701C429.676 418.515 428.312 418.922 426.541 418.922H425.242V424H422.215V409.723H426.775C428.507 409.723 429.822 410.097 430.721 410.846C431.626 411.588 432.078 412.698 432.078 414.176ZM442.996 424H434.773V409.723H442.996V412.203H437.801V415.338H442.635V417.818H437.801V421.5H442.996V424ZM454.725 424L453.689 420.602H448.484L447.449 424H444.188L449.227 409.664H452.928L457.986 424H454.725ZM452.967 418.062C452.01 414.983 451.469 413.242 451.346 412.838C451.229 412.434 451.144 412.115 451.092 411.881C450.877 412.714 450.262 414.775 449.246 418.062H452.967ZM471.277 424H467.84L464.1 417.984L462.82 418.902V424H459.793V409.723H462.82V416.256L464.012 414.576L467.879 409.723H471.238L466.258 416.041L471.277 424Z" fill="#E22D2D" fill-opacity="0.8583"/>
</g>
<defs>
<clipPath id="clip0">
<rect width="609" height="598" fill="white"/>
</clipPath>
</defs>
</svg>
