<svg width="373" height="153" viewBox="0 0 373 153" fill="none" xmlns="http://www.w3.org/2000/svg">
  <mask id="mask0" mask-type="alpha" maskUnits="userSpaceOnUse" x="0" y="0" width="373" height="153">
    <path fill-rule="evenodd" clip-rule="evenodd" d="M0 153H373V0H0V153Z" fill="white" />
  </mask>
  <g mask="url(#mask0)">
    <path fill-rule="evenodd" clip-rule="evenodd" d="M255.162 73.1912C255.162 111.449 224.108 142.463 185.802 142.463C147.495 142.463 116.441 111.449 116.441 73.1912C116.441 34.9338 147.495 3.92017 185.802 3.92017C224.108 3.92017 255.162 34.9338 255.162 73.1912Z" fill="#F7DD97" />
    <path fill-rule="evenodd" clip-rule="evenodd" d="M99.0256 129.487C97.7394 127.576 98.2482 124.984 100.162 123.7L116.59 112.672C118.504 111.387 121.098 111.895 122.384 113.806C123.671 115.718 123.162 118.309 121.249 119.593L104.82 130.622C102.906 131.906 100.312 131.398 99.0256 129.487Z" fill="#F7DD97" />
    <path fill-rule="evenodd" clip-rule="evenodd" d="M112.605 135.752C111.228 133.706 111.773 130.932 113.822 129.556L122.101 123.998C124.151 122.623 126.928 123.167 128.305 125.213C129.682 127.259 129.138 130.033 127.089 131.409L118.808 136.967C116.76 138.342 113.982 137.798 112.605 135.752Z" fill="#F7DD97" />
    <path fill-rule="evenodd" clip-rule="evenodd" d="M112.363 117.36L110.164 115.135C109.464 114.427 109.471 113.287 110.18 112.588L115.266 107.573C115.975 106.875 117.117 106.882 117.817 107.589L120.016 109.815C120.716 110.523 120.709 111.663 120 112.362L114.913 117.377C114.205 118.076 113.063 118.068 112.363 117.36Z" fill="#F7DD97" />
    <path fill-rule="evenodd" clip-rule="evenodd" d="M273.269 16.7636C274.369 18.4919 273.858 20.7841 272.128 21.8824L254.643 32.9839C252.913 34.0833 250.617 33.5726 249.517 31.8448C248.417 30.1159 248.928 27.8243 250.659 26.7254L268.144 15.6239C269.874 14.525 272.169 15.0352 273.269 16.7636Z" fill="#F7DD97" />
    <path fill-rule="evenodd" clip-rule="evenodd" d="M259.386 7.65939C260.564 9.50974 260.017 11.9636 258.165 13.1394L248.909 19.016C247.057 20.1923 244.6 19.6461 243.422 17.7957C242.245 15.9454 242.792 13.492 244.644 12.3152L253.899 6.43908C255.752 5.2628 258.209 5.80904 259.386 7.65939Z" fill="#F7DD97" />
    <path fill-rule="evenodd" clip-rule="evenodd" d="M268.926 34.682C269.813 36.0763 269.401 37.9256 268.005 38.8123L263.985 41.3643C262.589 42.2505 260.738 41.8389 259.85 40.4447C258.963 39.0499 259.375 37.2011 260.771 36.3144L264.79 33.7624C266.187 32.8757 268.038 33.2878 268.926 34.682Z" fill="#F7DD97" />
    <path fill-rule="evenodd" clip-rule="evenodd" d="M112.191 84.3783L112.784 85.3101C113.672 86.7044 113.259 88.5537 111.863 89.4399L107.844 91.9918C106.448 92.8786 104.596 92.4665 103.709 91.0722L103.115 90.141C102.228 88.7462 102.64 86.8974 104.037 86.0107L108.055 83.4587C109.452 82.5725 111.303 82.9841 112.191 84.3783Z" fill="#F7DD97" />
    <path fill-rule="evenodd" clip-rule="evenodd" d="M102.94 107.536C103.827 108.931 103.415 110.78 102.019 111.667L97.9995 114.219C96.6029 115.105 94.7518 114.693 93.8639 113.298C92.976 111.904 93.3886 110.055 94.7847 109.169L98.804 106.617C100.2 105.73 102.052 106.142 102.94 107.536Z" fill="#F7DD97" />
    <path fill-rule="evenodd" clip-rule="evenodd" d="M278.301 29.0948C279.309 30.6768 278.841 32.7748 277.257 33.7809L276.542 34.2343C274.958 35.2403 272.857 34.7731 271.851 33.1911C270.843 31.6086 271.31 29.5106 272.895 28.5051L273.609 28.0511C275.193 27.0456 277.295 27.5128 278.301 29.0948Z" fill="#F7DD97" />
    <path fill-rule="evenodd" clip-rule="evenodd" d="M199.987 116.562H175.12C175.155 114.63 175.191 112.699 175.227 110.767C178.358 111.197 182.169 111.467 186.488 111.235C191.879 110.947 196.456 109.965 199.987 108.934V116.562Z" fill="#B77A51" />
    <path fill-rule="evenodd" clip-rule="evenodd" d="M155.713 110.959H220.417V56.8594H155.713V110.959Z" fill="white" />
    <path fill-rule="evenodd" clip-rule="evenodd" d="M226.826 46.2428H149.303C151.436 41.6459 153.569 37.0484 155.701 32.4514C177.267 32.4403 198.832 32.4286 220.398 32.4175C222.54 37.0261 224.684 41.6347 226.826 46.2428Z" fill="white" />
    <path fill-rule="evenodd" clip-rule="evenodd" d="M149.169 56.8593H226.961V46.2537H149.169V56.8593Z" fill="#BABABA" />
    <path fill-rule="evenodd" clip-rule="evenodd" d="M181.196 56.9555H194.933V46.2522H181.196V56.9555Z" fill="#E22D2D" />
    <path fill-rule="evenodd" clip-rule="evenodd" d="M190.265 37.9507C190.265 37.9507 196.136 32.7974 203.937 33.4842C211.738 34.1715 211.428 38.638 209.112 41.129C209.112 41.129 210.116 43.7918 208.107 45.08C206.099 46.3682 203.473 44.4786 198.839 43.8772C194.204 43.2763 189.745 43.3771 189.745 43.3771L190.265 37.9507Z" fill="#DDDDDD" />
    <path fill-rule="evenodd" clip-rule="evenodd" d="M186.005 38.1163C186.005 38.1163 179.982 32.9625 171.977 33.6498C163.973 34.3371 164.29 38.8031 166.668 41.2946C166.668 41.2946 165.638 43.9569 167.698 45.2456C169.759 46.5338 172.453 44.6442 177.209 44.0428C181.964 43.4419 186.538 43.5427 186.538 43.5427L186.005 38.1163Z" fill="#DDDDDD" />
    <path fill-rule="evenodd" clip-rule="evenodd" d="M155.704 58.9845H220.418V56.8801H155.704V58.9845Z" fill="#DDDDDD" />
    <path fill-rule="evenodd" clip-rule="evenodd" d="M190.324 36.9305C190.324 36.9305 196.86 31.7767 205.547 32.464C214.233 33.1513 213.889 37.6178 211.309 40.1088C211.309 40.1088 212.427 42.7711 210.191 44.0598C207.955 45.348 205.031 43.4584 199.871 42.857C194.71 42.2561 189.746 42.3569 189.746 42.3569L190.324 36.9305Z" fill="#E22D2D" />
    <path fill-rule="evenodd" clip-rule="evenodd" d="M185.96 36.9305C185.96 36.9305 179.424 31.7767 170.737 32.464C162.051 33.1513 162.395 37.6178 164.975 40.1088C164.975 40.1088 163.857 42.7711 166.093 44.0598C168.329 45.348 171.254 43.4584 176.413 42.857C181.574 42.2561 186.539 42.3569 186.539 42.3569L185.96 36.9305Z" fill="#E22D2D" />
    <path fill-rule="evenodd" clip-rule="evenodd" d="M190.015 46.2945H186.002C186.27 41.6434 186.537 36.9924 186.805 32.3413C187.591 32.3524 188.378 32.3636 189.164 32.3747C189.448 37.0146 189.731 41.6546 190.015 46.2945Z" fill="#CC2525" />
    <path fill-rule="evenodd" clip-rule="evenodd" d="M185.787 36.741C185.787 36.741 184.007 36.802 186.023 42.2363L190.187 42.3578C190.187 42.3578 192.308 36.2859 190.318 36.8932C190.318 36.8932 189.349 37.895 189.139 38.1983C188.93 38.5017 186.419 37.2199 186.419 37.2199L185.787 36.741Z" fill="#CC2525" />
    <path fill-rule="evenodd" clip-rule="evenodd" d="M189.746 42.3568C187.79 42.3594 188.246 42.3589 186.291 42.3616C186.034 40.9524 185.776 39.5433 185.518 38.1342C185.368 37.3122 186 36.5554 186.837 36.5554H189.186C190.021 36.5554 190.653 37.3096 190.505 38.13C190.252 39.5391 189.999 40.9477 189.746 42.3568Z" fill="#E22D2D" />
    <path fill-rule="evenodd" clip-rule="evenodd" d="M209.939 39.2141C209.939 39.2141 211.445 39.658 211.52 40.9409C211.52 40.9409 212.087 43.1609 210.013 44.1229C207.938 45.0849 209.963 44.1478 210.235 43.4324C210.507 42.717 211.643 41.4341 209.939 39.2141Z" fill="#BF1313" />
    <path fill-rule="evenodd" clip-rule="evenodd" d="M209.458 33.1665C209.458 33.1665 212.2 34.4239 212.004 36.436C211.808 38.4481 210.885 39.7337 210.885 39.7337L211.309 40.1086C211.309 40.1086 212.899 38.6157 212.899 37.1069C212.899 35.5976 212.619 34.5358 209.458 33.1665Z" fill="#BF1313" />
    <path fill-rule="evenodd" clip-rule="evenodd" d="M190.89 37.5861C191.721 37.0568 192.758 36.4989 193.998 36.0343C196.455 35.1131 198.666 34.9493 200.178 34.9705C200.392 34.98 200.499 34.9959 200.5 35.0171C200.503 35.0718 199.791 35.1646 198.364 35.2945C197.479 35.3619 196.375 35.5305 195.155 35.924C193.28 36.5286 191.882 37.4228 190.973 38.117" fill="#CC2525" />
    <path fill-rule="evenodd" clip-rule="evenodd" d="M190.663 38.6035C191.243 38.3357 191.957 38.0668 192.795 37.8748C194.454 37.4962 195.889 37.5821 196.859 37.7263C196.996 37.7512 197.064 37.7703 197.062 37.7841C197.059 37.8197 196.594 37.8175 195.665 37.7778C195.09 37.7443 194.367 37.7571 193.548 37.9045C192.291 38.131 191.315 38.5844 190.67 38.9519" fill="#CC2525" />
    <path fill-rule="evenodd" clip-rule="evenodd" d="M190.708 39.5945C190.708 39.5945 193.481 38.5762 198.165 39.6899C198.294 39.7292 198.464 39.7875 198.458 39.8215C198.443 39.91 197.279 39.7196 195.778 39.6549C194.99 39.621 194.111 39.586 193.044 39.7074C192.009 39.8252 191.142 40.0495 190.485 40.2627C190.559 40.04 190.633 39.8172 190.708 39.5945Z" fill="#CC2525" />
    <path fill-rule="evenodd" clip-rule="evenodd" d="M185.34 37.9154C184.509 37.3862 183.472 36.8288 182.232 36.3637C179.775 35.443 177.564 35.2786 176.052 35.2998C175.838 35.3094 175.731 35.3253 175.729 35.3465C175.727 35.4011 176.439 35.4939 177.866 35.6239C178.751 35.6912 179.854 35.8599 181.075 36.2534C182.95 36.8579 184.347 37.7521 185.256 38.4463" fill="#CC2525" />
    <path fill-rule="evenodd" clip-rule="evenodd" d="M185.567 38.9332C184.987 38.6649 184.273 38.396 183.435 38.2046C181.776 37.8254 180.34 37.9113 179.371 38.0561C179.234 38.081 179.166 38.1001 179.167 38.1139C179.171 38.1489 179.636 38.1473 180.565 38.107C181.14 38.0741 181.863 38.0868 182.682 38.2343C183.939 38.4602 184.915 38.9141 185.56 39.2817" fill="#CC2525" />
    <path fill-rule="evenodd" clip-rule="evenodd" d="M185.522 39.9241C185.522 39.9241 182.749 38.9058 178.064 40.0195C177.936 40.0588 177.765 40.1171 177.771 40.1516C177.787 40.2396 178.951 40.0498 180.452 39.9845C181.239 39.9506 182.119 39.9161 183.186 40.037C184.221 40.1548 185.088 40.3791 185.745 40.5928C185.671 40.3696 185.596 40.1468 185.522 39.9241Z" fill="#CC2525" />
    <path fill-rule="evenodd" clip-rule="evenodd" d="M166.357 39.186C166.357 39.186 164.85 39.6299 164.776 40.9128C164.776 40.9128 164.208 43.1328 166.283 44.0948C168.358 45.0569 166.332 44.1198 166.061 43.4043C165.789 42.6889 164.653 41.4066 166.357 39.186Z" fill="#BF1313" />
    <path fill-rule="evenodd" clip-rule="evenodd" d="M166.838 33.1387C166.838 33.1387 164.096 34.3961 164.292 36.4082C164.488 38.4203 165.411 39.7058 165.411 39.7058L164.987 40.0803C164.987 40.0803 163.397 38.5879 163.397 37.0791C163.397 35.5697 163.676 34.508 166.838 33.1387Z" fill="#BF1313" />
    <path fill-rule="evenodd" clip-rule="evenodd" d="M195.487 110.723C195.487 110.723 209.179 100.494 214.139 98.8788C219.098 97.2634 220.391 98.4476 220.391 98.4476L220.499 102.001L198.515 110.989L195.278 110.955L195.487 110.723Z" fill="#DDDDDD" />
    <path fill-rule="evenodd" clip-rule="evenodd" d="M155.532 95.1379C155.532 95.1379 161.048 90.3978 181.445 91.4224C181.445 91.4224 190.938 91.8069 192.734 92.5753C194.53 93.3443 196.326 96.8037 190.553 98.8535C184.78 100.903 177.981 102.569 178.495 106.54C179.007 110.512 182.471 110.896 182.471 110.896C173.705 111.315 164.939 111.733 156.173 112.152C155.959 106.481 155.745 100.809 155.532 95.1379Z" fill="#DDDDDD" />
    <path fill-rule="evenodd" clip-rule="evenodd" d="M183.861 110.96H192.268V56.895H183.861V110.96Z" fill="#E22D2D" />
    <path fill-rule="evenodd" clip-rule="evenodd" d="M183.851 58.9389H192.235V56.8313H183.851V58.9389Z" fill="#BF1313" />
    <path fill-rule="evenodd" clip-rule="evenodd" d="M145.38 100.159L157.18 101.024C157.18 101.024 161.726 101.349 163.783 98.6458C165.84 95.9432 170.387 93.4564 181.753 93.9969C193.119 94.5373 200.264 95.0782 200.264 95.0782C200.264 95.0782 202.751 95.1922 202.593 97.5469C202.581 98.0322 202.483 98.7842 201.981 99.4196C201.16 100.458 199.662 100.592 198.959 100.637C196.464 100.799 189.991 100.993 181.313 101.032C181.057 101.02 180.625 101.039 180.266 101.31C179.456 101.921 179.675 103.311 179.749 103.774C179.803 104.117 179.946 104.755 180.393 105.471C181.674 107.53 184.319 108.418 185.041 108.641C187.94 109.931 190.839 111.222 193.738 112.513C193.738 112.513 195.153 113.297 196.987 111.99C198.82 110.681 214.247 101.584 214.247 101.584C214.247 101.584 218.329 99.2053 221.392 99.9987C224.455 100.792 224.568 102.264 224.341 102.944C224.114 103.624 200.635 121.408 200.635 121.408C200.635 121.408 198.594 123.448 193.83 123.334C189.066 123.221 162.978 119.369 162.978 119.369C162.978 119.369 160.823 119.256 158.441 118.463C156.059 117.67 120.33 121.068 120.33 121.068L121.691 98.9788L145.38 100.159Z" fill="#F7C8A1" />
    <path fill-rule="evenodd" clip-rule="evenodd" d="M179.606 102.9C179.606 102.9 179.817 101.501 184.432 101.501C189.046 101.501 200.097 100.773 201.068 100.106C202.04 99.4388 202.66 98.6264 202.593 97.5471C202.526 96.4674 202.404 97.4379 201.615 98.105C200.826 98.7717 191.535 99.7422 189.896 99.7422C188.257 99.7422 180.91 99.9846 180.91 99.9846C180.91 99.9846 179.517 99.8732 179.606 102.9Z" fill="#EFB68B" />
    <path fill-rule="evenodd" clip-rule="evenodd" d="M174.985 119.365C187.295 121.754 196.122 123.488 198.077 123.95C198.259 123.993 198.736 124.108 199.349 124.045C200.719 123.904 201.601 122.988 203.023 121.579C203.708 120.9 204.822 119.805 206.312 118.388C209.01 115.912 211.708 113.437 214.406 110.961L174.985 119.365Z" fill="#F7C8A1" />
    <path fill-rule="evenodd" clip-rule="evenodd" d="M224.117 101.605L198.42 119.665C198.42 119.665 197.151 121.144 191.547 120.193C185.942 119.242 159.717 115.229 159.717 115.229L120.456 116.443L120.33 121.069L148.569 118.682L156.683 118.343C156.683 118.343 158.419 118.343 158.835 118.682C159.25 119.021 178.371 121.577 178.371 121.577C178.371 121.577 193.227 123.636 195.786 123.281C198.345 122.926 199.804 122.204 200.635 121.408C201.466 120.613 223.135 104.661 224.341 102.944C224.341 102.944 224.578 102.253 224.117 101.605Z" fill="#EFB68B" />
    <path fill-rule="evenodd" clip-rule="evenodd" d="M144.282 115.682C144.282 115.682 138.115 115.922 138.115 112.242C138.115 108.562 138.195 101.603 135.632 99.6033L133.389 99.5232L134.03 117.041L144.282 115.682Z" fill="#EFB68B" />
    <path fill-rule="evenodd" clip-rule="evenodd" d="M134.432 120.153C119.636 121.264 104.84 122.374 90.0436 123.484V96.74C104.907 97.6538 119.77 98.5675 134.633 99.4813C135.305 101.509 135.944 104.107 136.169 107.162C136.582 112.763 135.418 117.326 134.432 120.153Z" fill="#6FB9B5" />
    <path fill-rule="evenodd" clip-rule="evenodd" d="M94.0437 97.0756C94.0437 97.0756 95.0595 116.305 102.169 116.305C109.278 116.305 135.685 116.395 135.685 116.395C135.685 116.395 134.957 120.842 134.432 121.884C133.908 122.926 90.0435 125.458 90.0435 125.458V96.76L94.0437 97.0756Z" fill="#5BA39E" />
    <path fill-rule="evenodd" clip-rule="evenodd" d="M-17.5382 94.3877C18.8673 95.1917 55.2728 95.9962 91.6788 96.8002V125.375C55.2728 125.858 18.8673 126.34 -17.5382 126.823V94.3877Z" fill="#5BA39E" />
    <path fill-rule="evenodd" clip-rule="evenodd" d="M7.82309 94.9656C7.82309 94.9656 6.73875 103.509 12.3192 108.945C16.0262 112.556 20.9382 113.076 23.2608 113.274C34.4292 114.23 64.7954 115.528 105.603 116.342L100.222 97.237C69.4222 96.4797 38.6226 95.7229 7.82309 94.9656Z" fill="#6FB9B5" />
  </g>
</svg>