<svg width="62" height="52" viewBox="0 0 62 52" fill="none" xmlns="http://www.w3.org/2000/svg">
    <path d="M57.0794 0L13.7778 7.59804V14.7619L57.0794 7.59804V0Z" fill="#FCCECE" />
    <circle cx="12.3016" cy="43.7936" r="7.38095" fill="#FCCECE" />
    <circle cx="54.619" cy="33.9524" r="7.38095" fill="#FCCECE" />
    <path d="M60.0317 1.96825L16.7302 9.56629V16.7302L60.0317 9.56629V1.96825Z" stroke="black" stroke-width="2" />
    <path d="M16.7302 9.84127V43.3016" stroke="black" stroke-width="2" />
    <path d="M60.0317 5.90476V27.5556" stroke="black" stroke-width="2" />
    <circle cx="8.85714" cy="42.3175" r="7.85714" stroke="black" stroke-width="2" />
    <mask id="path-8-inside-1" fill="white">
        <path
            d="M59.9138 34.4906C59.5183 36.0769 58.6752 37.5161 57.4849 38.6368C56.2947 39.7575 54.8074 40.5126 53.2002 40.812C51.593 41.1115 49.9336 40.9427 48.4196 40.3257C46.9056 39.7088 45.6008 38.6698 44.6606 37.3323C43.7203 35.9949 43.1843 34.4154 43.1163 32.782C43.0483 31.1485 43.4512 29.5299 44.277 28.119C45.1028 26.708 46.3167 25.5641 47.7742 24.8235C49.2317 24.0829 50.8713 23.7767 52.4978 23.9415L52.3065 25.8301C51.042 25.702 49.7672 25.94 48.6341 26.5157C47.501 27.0915 46.5573 27.9809 45.9152 29.0778C45.2732 30.1747 44.96 31.4331 45.0129 32.703C45.0657 33.9729 45.4825 35.2009 46.2134 36.2407C46.9444 37.2805 47.9588 38.0883 49.1359 38.5679C50.3129 39.0475 51.603 39.1787 52.8525 38.9459C54.102 38.7131 55.2583 38.1261 56.1837 37.2548C57.109 36.3835 57.7645 35.2646 58.072 34.0314L59.9138 34.4906Z" />
    </mask>
    <path
        d="M59.9138 34.4906C59.5183 36.0769 58.6752 37.5161 57.4849 38.6368C56.2947 39.7575 54.8074 40.5126 53.2002 40.812C51.593 41.1115 49.9336 40.9427 48.4196 40.3257C46.9056 39.7088 45.6008 38.6698 44.6606 37.3323C43.7203 35.9949 43.1843 34.4154 43.1163 32.782C43.0483 31.1485 43.4512 29.5299 44.277 28.119C45.1028 26.708 46.3167 25.5641 47.7742 24.8235C49.2317 24.0829 50.8713 23.7767 52.4978 23.9415L52.3065 25.8301C51.042 25.702 49.7672 25.94 48.6341 26.5157C47.501 27.0915 46.5573 27.9809 45.9152 29.0778C45.2732 30.1747 44.96 31.4331 45.0129 32.703C45.0657 33.9729 45.4825 35.2009 46.2134 36.2407C46.9444 37.2805 47.9588 38.0883 49.1359 38.5679C50.3129 39.0475 51.603 39.1787 52.8525 38.9459C54.102 38.7131 55.2583 38.1261 56.1837 37.2548C57.109 36.3835 57.7645 35.2646 58.072 34.0314L59.9138 34.4906Z"
        stroke="black" stroke-width="4" mask="url(#path-8-inside-1)" />
</svg>