<svg width="56" height="54" viewBox="0 0 56 54" fill="none" xmlns="http://www.w3.org/2000/svg">
    <path
        d="M47.5437 30.2703H17.6258C16.3471 30.2703 15.3968 31.4537 15.673 32.7021L19.1397 48.3778C19.3423 49.2938 20.1543 49.9459 21.0925 49.9459H44.6547C45.6195 49.9459 46.4467 49.2572 46.6216 48.3084L49.5106 32.6328C49.7371 31.4037 48.7934 30.2703 47.5437 30.2703Z"
        fill="#FCCECE" />
    <circle cx="30.2703" cy="12.1081" r="7.56757" fill="#FCCECE" />
    <circle cx="26.4865" cy="8.32432" r="7.32432" stroke="black" stroke-width="2" />
    <path
        d="M13.7472 30.6716L15.2133 17.6856C15.2771 17.1202 15.8006 16.7193 16.3562 16.842C21.5561 17.9903 24.3488 21.1817 27.6603 20.3191C30.7 19.5273 34.5752 17.4498 36.8975 17.1351C37.3367 17.0756 37.7068 17.3988 37.8019 17.8317L40.5983 30.5694C40.7352 31.1932 40.2602 31.7838 39.6215 31.7838H14.7409C14.1442 31.7838 13.6802 31.2646 13.7472 30.6716Z"
        stroke="black" stroke-width="2" />
    <rect y="34.8108" width="56" height="4.54054" rx="2.27027" fill="black" />
    <path
        d="M41.4323 36.3243H13.1561C11.855 36.3243 10.9003 37.5471 11.2159 38.8094L14.378 51.458C14.6006 52.3484 15.4006 52.973 16.3183 52.973H38.7972C39.7445 52.973 40.5619 52.3083 40.7551 51.3809L43.3902 38.7322C43.649 37.4903 42.7009 36.3243 41.4323 36.3243Z"
        stroke="black" stroke-width="2" />
    <path d="M3.19162 39.3514C2.80996 35.8995 2.84812 28.0398 6.05405 24.2162" stroke="black" />
    <circle cx="6.81081" cy="23.4595" r="1.77027" stroke="black" />
</svg>