<svg width="193" height="226" viewBox="0 0 193 226" fill="none" xmlns="http://www.w3.org/2000/svg">
    <circle cx="100.5" cy="109.5" r="56.5" fill="#D4D4FF" />
    <rect x="117.268" y="153.787" width="3" height="30.6086" transform="rotate(-37.5224 117.268 153.787)"
        fill="#E95D5D" />
    <rect x="124.865" y="179.767" width="17.996" height="55.1379" rx="8.99798"
        transform="rotate(-37.5224 124.865 179.767)" fill="#E95D5D" />
    <circle cx="76.7298" cy="106.663" r="58" transform="rotate(7.47756 76.7298 106.663)" stroke="#394179"
        stroke-width="10" />
    <circle cx="76.7298" cy="106.663" r="54" transform="rotate(7.47756 76.7298 106.663)" stroke="#E95D5D"
        stroke-width="4" />
    <path fill-rule="evenodd" clip-rule="evenodd"
        d="M117.619 153.846L111.762 158.343L127.595 178.96C125.237 182.432 125.243 187.16 127.939 190.671L148.038 216.843C151.402 221.224 157.68 222.048 162.06 218.684C166.44 215.32 167.264 209.042 163.901 204.662L143.801 178.489C141.362 175.313 137.389 174.006 133.72 174.811L117.619 153.846Z"
        fill="#394179" />
    <path fill-rule="evenodd" clip-rule="evenodd"
        d="M134.063 27.968C135.48 17.4817 145.13 10.13 155.617 11.5477C166.103 12.9653 173.455 22.6153 172.037 33.1016C170.619 43.588 160.969 50.9396 150.483 49.522L149.734 55.0599L149.414 57.4333L148.344 65.3446C148.049 67.5292 149.58 69.5397 151.765 69.835C153.95 70.1303 155.96 68.5987 156.255 66.4141L157.485 57.3205C168.934 55.4288 178.309 46.2765 179.948 34.1771L179.948 34.1711C181.957 19.3155 171.542 5.64463 156.686 3.63634C141.831 1.62804 128.16 12.0429 126.151 26.8985C125.856 29.0831 127.388 31.0936 129.572 31.3889C131.757 31.6842 133.767 30.1526 134.063 27.968ZM149.847 83.9684C152.469 84.3228 154.881 82.4849 155.235 79.8633C155.59 77.2418 153.752 74.8292 151.13 74.4748C148.509 74.1204 146.096 75.9583 145.742 78.5799C145.388 81.2015 147.225 83.614 149.847 83.9684Z"
        fill="#212121" />
</svg>