<svg width="48" height="44" viewBox="0 0 48 44" fill="none" xmlns="http://www.w3.org/2000/svg">
    <rect x="8.11522" y="6.33643" width="39.1347" height="28.4616" rx="2" fill="#FCCECE" />
    <path
        d="M39.1347 1H2C1.44772 1 1 1.44771 1 2V27.686C1 28.2485 1.46391 28.7004 2.02631 28.6856L5.06018 28.6058C5.70929 28.5887 6.20228 29.1851 6.06332 29.8194L3.94884 39.4716C3.72201 40.5071 5.0505 41.1375 5.70918 40.307L10.7837 33.9087L13.7588 29.1801C13.9418 28.8892 14.2615 28.7126 14.6052 28.7126H39.1347C39.687 28.7126 40.1347 28.2649 40.1347 27.7126V2C40.1347 1.44772 39.687 1 39.1347 1Z"
        stroke="black" stroke-width="2" />
    <circle cx="13.4519" cy="15.2308" r="1.77885" fill="white" />
    <circle cx="22.3462" cy="15.2308" r="1.77885" fill="white" />
    <circle cx="31.2404" cy="15.2308" r="1.77885" fill="white" />
</svg>