<svg width="46" height="53" viewBox="0 0 46 53" fill="none" xmlns="http://www.w3.org/2000/svg">
    <rect x="4.60004" y="28.5" width="8.1" height="24.5" fill="#FCCECE" />
    <rect x="20.8" y="24.0454" width="8.1" height="28.9545" fill="#FCCECE" />
    <rect x="37.0001" y="17.3635" width="9" height="35.6364" fill="#FCCECE" />
    <rect x="2" y="29.5" width="6.1" height="22.5" stroke="black" stroke-width="2" />
    <rect x="18.2" y="25.0454" width="6.1" height="26.9545" stroke="black" stroke-width="2" />
    <rect x="34.4" y="18.3635" width="7" height="33.6364" stroke="black" stroke-width="2" />
    <path
        d="M43.4202 4.33501C43.5788 3.85213 43.2506 3.31067 42.6872 3.12561L33.5053 0.109874C32.9418 -0.0751864 32.3565 0.166237 32.1979 0.64911C32.0393 1.13198 32.3675 1.67345 32.931 1.85851L41.0926 4.53916L38.7953 11.5337C38.6367 12.0166 38.9649 12.558 39.5284 12.7431C40.0918 12.9282 40.6771 12.6867 40.8357 12.2039L43.4202 4.33501ZM1.51834 21.9309L42.9183 4.8551L41.8817 3.14475L0.48166 20.2205L1.51834 21.9309Z"
        fill="black" />
</svg>