<svg width="45" height="45" viewBox="0 0 589 589" fill="none" xmlns="http://www.w3.org/2000/svg">
    <g filter="url(#filter0_d)">
        <circle cx="284.5" cy="290.5" r="274.5" fill="#E22D2D" />
        <circle cx="282.296" cy="289.796" r="156" transform="rotate(123 282.296 289.796)" fill="white" />
        <path d="M439.965 392.188L389.805 389.559L417.162 347.433L439.965 392.188Z" fill="white" />
        <path
            d="M264.459 324.597V316.297C264.459 309.118 265.992 302.874 269.058 297.564C272.124 292.255 277.732 286.609 285.884 280.627C293.735 275.018 298.895 270.457 301.363 266.942C303.906 263.427 305.177 259.501 305.177 255.164C305.177 250.303 303.382 246.602 299.793 244.059C296.203 241.517 291.193 240.245 284.762 240.245C273.545 240.245 260.757 243.91 246.4 251.238L234.173 226.673C250.849 217.325 268.535 212.651 287.23 212.651C302.634 212.651 314.861 216.353 323.909 223.756C333.032 231.16 337.594 241.031 337.594 253.369C337.594 261.595 335.725 268.699 331.986 274.682C328.247 280.664 321.142 287.394 310.673 294.872C303.494 300.182 298.933 304.22 296.988 306.987C295.119 309.754 294.184 313.38 294.184 317.867V324.597H264.459ZM260.87 362.96C260.87 356.678 262.552 351.93 265.917 348.714C269.282 345.498 274.18 343.891 280.612 343.891C286.818 343.891 291.604 345.536 294.969 348.826C298.409 352.117 300.129 356.828 300.129 362.96C300.129 368.867 298.409 373.541 294.969 376.981C291.529 380.346 286.743 382.029 280.612 382.029C274.33 382.029 269.469 380.383 266.029 377.093C262.589 373.728 260.87 369.017 260.87 362.96Z"
            fill="#E22D2D" />
    </g>
    <defs>
        <filter id="filter0_d" x="0" y="0" width="589" height="589" filterUnits="userSpaceOnUse"
            color-interpolation-filters="sRGB">
            <feFlood flood-opacity="0" result="BackgroundImageFix" />
            <feColorMatrix in="SourceAlpha" type="matrix" values="0 0 0 0 0 0 0 0 0 0 0 0 0 0 0 0 0 0 127 0" />
            <feOffset dx="10" dy="4" />
            <feGaussianBlur stdDeviation="10" />
            <feColorMatrix type="matrix" values="0 0 0 0 0 0 0 0 0 0 0 0 0 0 0 0 0 0 0.25 0" />
            <feBlend mode="normal" in2="BackgroundImageFix" result="effect1_dropShadow" />
            <feBlend mode="normal" in="SourceGraphic" in2="effect1_dropShadow" result="shape" />
        </filter>
    </defs>
</svg>