<?xml version="1.0" encoding="UTF-8"?>
<svg width="20px" height="16px" viewBox="0 0 20 16" version="1.1" xmlns="http://www.w3.org/2000/svg" xmlns:xlink="http://www.w3.org/1999/xlink">
    <!-- Generator: Sketch 56.3 (81716) - https://sketch.com -->
    <title></title>
    <desc>Created with Sketch.</desc>
    <g id="Page-1" stroke="none" stroke-width="1" fill="none" fill-rule="evenodd">
        <g id="4.1_profile_progress_subscribers0" transform="translate(-46.000000, -492.000000)" fill="#E22D2D" fill-rule="nonzero">
            <path d="M46.4296875,497.898438 C46.3255203,497.846354 46.2441409,497.76823 46.1855469,497.664062 C46.1269528,497.559895 46.0976562,497.449219 46.0976562,497.332031 C46.0976562,497.214843 46.130208,497.107422 46.1953125,497.009766 C46.260417,496.912109 46.3450516,496.83724 46.4492188,496.785156 L55.8242188,492.078125 C55.915365,492.026041 56.0097651,492 56.1074219,492 C56.2050786,492 56.2994787,492.026041 56.390625,492.078125 L65.6679688,496.785156 C65.7721359,496.83724 65.8535153,496.912109 65.9121094,497.009766 C65.9707034,497.107422 66,497.214843 66,497.332031 C66,497.449219 65.9707034,497.559895 65.9121094,497.664062 C65.8535153,497.76823 65.7786463,497.846354 65.6875,497.898438 L56.2929688,502.957031 C56.2539061,502.983073 56.2083336,502.999349 56.15625,503.005859 C56.1041664,503.01237 56.0520836,503.015625 56,503.015625 C55.9479164,503.015625 55.8990888,503.009115 55.8535156,502.996094 C55.8079425,502.983073 55.7591148,502.970052 55.7070312,502.957031 L46.4296875,497.898438 Z M56.0976562,493.328125 L48.0703125,497.371094 L56,501.6875 L64.0273438,497.371094 L56.0976562,493.328125 Z M65.5507812,501.375 C65.6549484,501.427084 65.739583,501.505208 65.8046875,501.609375 C65.869792,501.713542 65.9023438,501.817708 65.9023438,501.921875 C65.9023438,502.039063 65.8730472,502.149739 65.8144531,502.253906 C65.7558591,502.358073 65.6744797,502.436198 65.5703125,502.488281 L56.1953125,507.546875 C56.1432289,507.572917 56.0944013,507.592448 56.0488281,507.605469 C56.003255,507.61849 55.9544273,507.625 55.9023438,507.625 C55.8502602,507.625 55.7981773,507.61849 55.7460938,507.605469 C55.6940102,507.592448 55.6419273,507.572917 55.5898438,507.546875 L46.3125,502.488281 C46.2213537,502.436198 46.1464847,502.358073 46.0878906,502.253906 C46.0292966,502.149739 46,502.039063 46,501.921875 C46,501.804687 46.0292966,501.697266 46.0878906,501.599609 C46.1464847,501.501953 46.2278641,501.427084 46.3320312,501.375 L48.3046875,500.398438 L49.6328125,501.121094 L47.9726562,501.960938 L55.9023438,506.277344 L63.9296875,501.960938 L62.3671875,501.160156 L63.6953125,500.4375 L65.5507812,501.375 Z M62.4648438,505.613281 L63.7929688,504.890625 L62.4648438,505.613281 Z" id=""></path>
        </g>
    </g>
</svg>