<svg width="100" height="100" viewBox="0 0 100 100" fill="none" xmlns="http://www.w3.org/2000/svg">
<path d="M26.911 84.589C25.3836 88.3883 18.6631 95.5309 4 93.7073C4 87.6284 6.74932 75.4707 17.7466 75.4707M93.3531 7.08373C47.531 5.26008 34.5481 33.6787 33.7844 48.1159C13.6226 46.2923 8.58221 54.9546 8.58221 59.5138C40.6577 66.3533 38.3666 75.4707 42.9488 93.7073C52.1132 86.8694 54.4043 84.589 54.4043 66.3533C71.2057 61.7936 102.517 43.5561 93.3531 7.08373Z" stroke="#E22D2D" stroke-width="5" stroke-linecap="round" stroke-linejoin="round"/>
<path d="M75.5 34.5C75.5 39.3714 71.348 43.5 66 43.5C60.652 43.5 56.5 39.3714 56.5 34.5C56.5 29.6286 60.652 25.5 66 25.5C71.348 25.5 75.5 29.6286 75.5 34.5Z" stroke="#E22D2D" stroke-width="5" stroke-linecap="round" stroke-linejoin="round"/>
</svg>
