<svg width="32" height="32" viewBox="0 0 32 32" fill="none" xmlns="http://www.w3.org/2000/svg">
<path d="M15.9876 6.65295C9.97245 6.65295 5.09619 11.5292 5.09619 17.5444C5.09619 23.5595 9.97245 28.4358 15.9876 28.4358C22.0027 28.4358 26.879 23.5595 26.879 17.5444" stroke="white" stroke-width="0.7" stroke-linecap="round"/>
<path d="M11.6431 4L17.2325 6.17124L13.8113 11.4519" stroke="white" stroke-width="0.7" stroke-linecap="round"/>
<path d="M12.971 18.2211L15.985 21.3422C16.0269 21.3854 16.0256 21.4544 15.9823 21.4962C15.9686 21.5095 15.9516 21.5189 15.933 21.5235L11.54 22.6188L12.788 18.2668C12.8046 18.2089 12.8649 18.1755 12.9227 18.192C12.9411 18.1973 12.9577 18.2073 12.971 18.2211Z" stroke="white" stroke-width="0.7" stroke-linecap="square"/>
<path d="M24.6688 12.5208L22.0207 9.77864C21.8117 9.5623 21.467 9.55628 21.2507 9.7652L14.1995 16.5744C13.9832 16.7833 13.9771 17.1282 14.1861 17.3445L16.8341 20.0866C17.043 20.3029 17.3877 20.309 17.6041 20.1L24.6552 13.2908C24.8717 13.0819 24.8777 12.7371 24.6688 12.5208Z" stroke="white" stroke-width="0.7"/>
<path d="M23.7399 12.0169L23.0215 11.2731L15.5835 18.4559L16.3018 19.1997L23.7399 12.0169Z" stroke="white" stroke-width="0.7"/>
<path d="M27.019 10.251L24.371 7.50887C24.1621 7.29253 23.8172 7.2865 23.6009 7.49543L23.0526 8.02504C22.8361 8.23396 22.8302 8.57872 23.0391 8.79506L25.6871 11.5372C25.896 11.7535 26.2408 11.7595 26.4571 11.5506L27.0056 11.021C27.2219 10.8121 27.2279 10.4673 27.019 10.251Z" stroke="white" stroke-width="0.7"/>
</svg>
