<?xml version="1.0" encoding="UTF-8"?>
<svg width="20px" height="21px" viewBox="0 0 20 21" version="1.1" xmlns="http://www.w3.org/2000/svg" xmlns:xlink="http://www.w3.org/1999/xlink">
    <!-- Generator: Sketch 56.3 (81716) - https://sketch.com -->
    <title></title>
    <desc>Created with Sketch.</desc>
    <g id="Page-1" stroke="none" stroke-width="1" fill="none" fill-rule="evenodd">
        <g id="4.1_profile_progress_subscribers0" transform="translate(-46.000000, -573.000000)" fill="#E22D2D" fill-rule="nonzero">
            <path d="M46.4296875,579.148438 C46.3255203,579.096354 46.2441409,579.01823 46.1855469,578.914062 C46.1269528,578.809895 46.0976562,578.699219 46.0976562,578.582031 C46.0976562,578.464843 46.130208,578.357422 46.1953125,578.259766 C46.260417,578.162109 46.3450516,578.08724 46.4492188,578.035156 L55.8242188,573.328125 C55.915365,573.276041 56.0097651,573.25 56.1074219,573.25 C56.2050786,573.25 56.2994787,573.276041 56.390625,573.328125 L65.6679688,578.035156 C65.7721359,578.08724 65.8535153,578.162109 65.9121094,578.259766 C65.9707034,578.357422 66,578.464843 66,578.582031 C66,578.699219 65.9707034,578.809895 65.9121094,578.914062 C65.8535153,579.01823 65.7786463,579.096354 65.6875,579.148438 L56.2929688,584.207031 C56.2539061,584.233073 56.2083336,584.249349 56.15625,584.255859 C56.1041664,584.26237 56.0520836,584.265625 56,584.265625 C55.9479164,584.265625 55.8990888,584.259115 55.8535156,584.246094 C55.8079425,584.233073 55.7591148,584.220052 55.7070312,584.207031 L46.4296875,579.148438 Z M56.0976562,574.578125 L48.0703125,578.621094 L56,582.9375 L64.0273438,578.621094 L56.0976562,574.578125 Z M65.5507812,582.625 C65.6549484,582.677084 65.739583,582.755208 65.8046875,582.859375 C65.869792,582.963542 65.9023438,583.067708 65.9023438,583.171875 C65.9023438,583.289063 65.8730472,583.399739 65.8144531,583.503906 C65.7558591,583.608073 65.6744797,583.686198 65.5703125,583.738281 L56.1953125,588.796875 C56.1432289,588.822917 56.0944013,588.842448 56.0488281,588.855469 C56.003255,588.86849 55.9544273,588.875 55.9023438,588.875 C55.8502602,588.875 55.7981773,588.86849 55.7460938,588.855469 C55.6940102,588.842448 55.6419273,588.822917 55.5898438,588.796875 L46.3125,583.738281 C46.2213537,583.686198 46.1464847,583.608073 46.0878906,583.503906 C46.0292966,583.399739 46,583.289063 46,583.171875 C46,583.054687 46.0292966,582.947266 46.0878906,582.849609 C46.1464847,582.751953 46.2278641,582.677084 46.3320312,582.625 L48.3046875,581.648438 L49.6328125,582.371094 L47.9726562,583.210938 L55.9023438,587.527344 L63.9296875,583.210938 L62.3671875,582.410156 L63.6953125,581.6875 L65.5507812,582.625 Z M65.5507812,587 C65.6549484,587.052084 65.739583,587.130208 65.8046875,587.234375 C65.869792,587.338542 65.9023438,587.442708 65.9023438,587.546875 C65.9023438,587.664063 65.8730472,587.774739 65.8144531,587.878906 C65.7558591,587.983073 65.6744797,588.061198 65.5703125,588.113281 L56.1953125,593.171875 C56.1432289,593.197917 56.0944013,593.217448 56.0488281,593.230469 C56.003255,593.24349 55.9544273,593.25 55.9023438,593.25 C55.8502602,593.25 55.7981773,593.24349 55.7460938,593.230469 C55.6940102,593.217448 55.6419273,593.197917 55.5898438,593.171875 L46.3125,588.113281 C46.2213537,588.061198 46.1464847,587.983073 46.0878906,587.878906 C46.0292966,587.774739 46,587.664063 46,587.546875 C46,587.429687 46.0292966,587.322266 46.0878906,587.224609 C46.1464847,587.126953 46.2278641,587.052084 46.3320312,587 L48.1875,586.160156 L49.515625,586.882812 L47.9726562,587.585938 L55.9023438,591.902344 L63.9296875,587.585938 L62.4648438,586.863281 L63.7929688,586.140625 L65.5507812,587 Z" id=""></path>
        </g>
    </g>
</svg>