<?xml version="1.0" encoding="UTF-8"?>
<svg width="18px" height="21px" viewBox="0 0 18 21" version="1.1" xmlns="http://www.w3.org/2000/svg" xmlns:xlink="http://www.w3.org/1999/xlink">
    <!-- Generator: Sketch 56.3 (81716) - https://sketch.com -->
    <title></title>
    <desc>Created with Sketch.</desc>
    <g id="Page-1" stroke="none" stroke-width="1" fill="none" fill-rule="evenodd">
        <g id="4.1_profile_progress_subscribers0" transform="translate(-47.000000, -243.000000)" fill="#E22D2D" fill-rule="nonzero">
            <path d="M55.921875,263.230469 C54.7499941,263.230469 53.6692758,263.038413 52.6796875,262.654297 C51.6900992,262.27018 50.8404983,261.733076 50.1308594,261.042969 C49.4212204,260.352861 48.8678405,259.532557 48.4707031,258.582031 C48.0735657,257.631506 47.875,256.59636 47.875,255.476562 C47.875,254.877601 47.949869,254.281904 48.0996094,253.689453 C48.2493497,253.097002 48.4153637,252.559898 48.5976562,252.078125 C48.7799488,251.596352 48.949218,251.202475 49.1054688,250.896484 C49.2617195,250.590493 49.3528645,250.424479 49.3789062,250.398438 C49.4309898,250.281249 49.5156244,250.196615 49.6328125,250.144531 C49.7500006,250.092448 49.8671869,250.072917 49.984375,250.085938 C50.114584,250.098958 50.2285151,250.147786 50.3261719,250.232422 C50.4238286,250.317058 50.485677,250.417968 50.5117188,250.535156 C50.5247396,250.548177 50.6158846,250.828122 50.7851562,251.375 C50.9544279,251.921878 51.1627592,252.397133 51.4101562,252.800781 C51.5924488,253.07422 51.7714835,253.308593 51.9472656,253.503906 C52.1230478,253.69922 52.3085928,253.861979 52.5039062,253.992188 C52.3736973,253.419268 52.276042,252.72266 52.2109375,251.902344 C52.145833,251.082027 52.1979158,250.229171 52.3671875,249.34375 C52.5885428,248.132806 52.9596328,247.139978 53.4804688,246.365234 C54.0013047,245.590491 54.5351535,244.975263 55.0820312,244.519531 C55.628909,244.0638 56.1171854,243.748048 56.546875,243.572266 C56.9765646,243.396483 57.2109373,243.302083 57.25,243.289062 C57.3541672,243.263021 57.4583328,243.263021 57.5625,243.289062 C57.6666672,243.315104 57.7643225,243.360677 57.8554688,243.425781 C57.9335941,243.503907 57.9889321,243.595052 58.0214844,243.699219 C58.0540366,243.803386 58.0572918,243.907552 58.03125,244.011719 L57.953125,244.597656 C57.9010414,244.988283 57.8782552,245.48958 57.8847656,246.101562 C57.8912761,246.713545 57.9531244,247.390621 58.0703125,248.132812 C58.1875006,248.875004 58.4088525,249.610673 58.734375,250.339844 C58.7994795,250.470053 58.8743485,250.610025 58.9589844,250.759766 C59.0436202,250.909506 59.13151,251.062499 59.2226562,251.21875 C59.248698,251.010416 59.2812498,250.795574 59.3203125,250.574219 C59.3593752,250.352863 59.411458,250.131512 59.4765625,249.910156 C59.7109387,249.050777 60.0657528,248.451825 60.5410156,248.113281 C61.0162784,247.774738 61.266927,247.598958 61.2929688,247.585938 C61.3971359,247.533854 61.5045567,247.514323 61.6152344,247.527344 C61.725912,247.540365 61.8268225,247.585937 61.9179688,247.664062 C62.009115,247.729167 62.0774737,247.817057 62.1230469,247.927734 C62.16862,248.038412 62.1783855,248.152343 62.1523438,248.269531 C62.1523438,248.295573 62.1621093,248.572263 62.1816406,249.099609 C62.201172,249.626956 62.4648412,250.307288 62.9726562,251.140625 C63.4153668,251.882816 63.7180981,252.556638 63.8808594,253.162109 C64.0436206,253.767581 64.125,254.539058 64.125,255.476562 C64.125,256.59636 63.9199239,257.631506 63.5097656,258.582031 C63.0996073,259.532557 62.5299516,260.352861 61.8007812,261.042969 C61.0716109,261.733076 60.2089894,262.27018 59.2128906,262.654297 C58.2167919,263.038413 57.1197977,263.230469 55.921875,263.230469 Z M49.828125,252.390625 C49.6588533,252.820315 49.4993497,253.308591 49.3496094,253.855469 C49.199869,254.402346 49.125,254.936195 49.125,255.457031 C49.125,256.407557 49.291014,257.279944 49.6230469,258.074219 C49.9550798,258.868494 50.4238251,259.555336 51.0292969,260.134766 C51.6347687,260.714196 52.3541625,261.166665 53.1875,261.492188 C54.0208375,261.81771 54.9322867,261.980469 55.921875,261.980469 C56.9375051,261.980469 57.8684854,261.81771 58.7148438,261.492188 C59.5612021,261.166665 60.2936167,260.714196 60.9121094,260.134766 C61.5306021,259.555336 62.0123681,258.868494 62.3574219,258.074219 C62.7024757,257.279944 62.875,256.407557 62.875,255.457031 C62.875,254.649736 62.8098965,253.9987 62.6796875,253.503906 C62.5494785,253.009112 62.2890645,252.436201 61.8984375,251.785156 C61.6380195,251.342446 61.4361986,250.932294 61.2929688,250.554688 C61.1497389,250.177081 61.0520836,249.832033 61,249.519531 C60.9348955,249.610678 60.8730472,249.718098 60.8144531,249.841797 C60.7558591,249.965495 60.7070314,250.105468 60.6679688,250.261719 C60.4856762,250.925785 60.3945312,251.573565 60.3945312,252.205078 C60.3945312,252.836592 60.3945312,253.152344 60.3945312,253.152344 C60.3945312,253.295574 60.3587243,253.425781 60.2871094,253.542969 C60.2154944,253.660157 60.1080736,253.744791 59.9648438,253.796875 C59.8346348,253.835938 59.7044277,253.835938 59.5742188,253.796875 C59.4440098,253.757812 59.3398441,253.679688 59.2617188,253.5625 C59.235677,253.523437 59.014325,253.194665 58.5976562,252.576172 C58.1809875,251.957679 57.8489596,251.388023 57.6015625,250.867188 C57.3541654,250.307289 57.1621101,249.750654 57.0253906,249.197266 C56.8886712,248.643877 56.7910159,248.106773 56.7324219,247.585938 C56.6738278,247.065102 56.6477864,246.576825 56.6542969,246.121094 C56.6608073,245.665362 56.6770832,245.261721 56.703125,244.910156 C56.19531,245.209637 55.6126335,245.7207 54.9550781,246.443359 C54.2975228,247.166019 53.8450533,248.210931 53.5976562,249.578125 C53.4674473,250.242191 53.4186196,250.893226 53.4511719,251.53125 C53.4837241,252.169274 53.5455725,252.735675 53.6367188,253.230469 C53.727865,253.725263 53.8222651,254.128905 53.9199219,254.441406 C54.0175786,254.753908 54.0664062,254.910156 54.0664062,254.910156 C54.1054689,255.014323 54.1152345,255.124999 54.0957031,255.242188 C54.0761718,255.359376 54.0273441,255.463541 53.9492188,255.554688 C53.8710934,255.632813 53.7766933,255.691406 53.6660156,255.730469 C53.555338,255.769531 53.4479172,255.776042 53.34375,255.75 C53.3046873,255.736979 52.9401076,255.577475 52.25,255.271484 C51.5598924,254.965493 50.9283883,254.363286 50.3554688,253.464844 C50.2643225,253.308593 50.1731775,253.136069 50.0820312,252.947266 C49.990885,252.758463 49.9062504,252.572918 49.828125,252.390625 Z" id=""></path>
        </g>
    </g>
</svg>