<?xml version="1.0" encoding="UTF-8"?>
<svg width="20px" height="11px" viewBox="0 0 20 11" version="1.1" xmlns="http://www.w3.org/2000/svg" xmlns:xlink="http://www.w3.org/1999/xlink">
    <!-- Generator: Sketch 56.3 (81716) - https://sketch.com -->
    <title></title>
    <desc>Created with Sketch.</desc>
    <g id="Page-1" stroke="none" stroke-width="1" fill="none" fill-rule="evenodd">
        <g id="4.1_profile_progress_subscribers0" transform="translate(-46.000000, -412.000000)" fill="#E22D2D" fill-rule="nonzero">
            <path d="M46.3320312,417.898438 C46.2278641,417.846354 46.1464847,417.76823 46.0878906,417.664062 C46.0292966,417.559895 46,417.449219 46,417.332031 C46,417.214843 46.0325518,417.107422 46.0976562,417.009766 C46.1627607,416.912109 46.2473953,416.83724 46.3515625,416.785156 L55.7265625,412.078125 C55.8177088,412.026041 55.9121089,412 56.0097656,412 C56.1074224,412 56.2018225,412.026041 56.2929688,412.078125 L65.5703125,416.785156 C65.6744797,416.83724 65.7558591,416.912109 65.8144531,417.009766 C65.8730472,417.107422 65.9023438,417.214843 65.9023438,417.332031 C65.9023438,417.449219 65.8730472,417.559895 65.8144531,417.664062 C65.7558591,417.76823 65.68099,417.846354 65.5898438,417.898438 L56.1953125,422.957031 C56.1562498,422.983073 56.1106773,422.999349 56.0585938,423.005859 C56.0065102,423.01237 55.9544273,423.015625 55.9023438,423.015625 C55.8502602,423.015625 55.8014325,423.009115 55.7558594,422.996094 C55.7102862,422.983073 55.6614586,422.970052 55.609375,422.957031 L46.3320312,417.898438 Z M56,413.328125 L47.9726562,417.371094 L55.9023438,421.6875 L63.9296875,417.371094 L56,413.328125 Z" id=""></path>
        </g>
    </g>
</svg>