<?xml version="1.0" encoding="UTF-8"?>
<svg width="171px" height="169px" viewBox="0 0 171 169" version="1.1" xmlns="http://www.w3.org/2000/svg" xmlns:xlink="http://www.w3.org/1999/xlink">
    <!-- Generator: Sketch 60.1 (88133) - https://sketch.com -->
    <title>Icon/password</title>
    <desc>Created with Sketch.</desc>
    <defs>
        <path d="M10,6.92779167e-14 L42,6.92779167e-14 C47.5228475,7.13923032e-14 52,4.4771525 52,10 L52,29.1666667 L52,29.1666667 L0,29.1666667 L0,10 C-2.45271059e-15,4.4771525 4.4771525,6.85160905e-14 10,6.92779167e-14 Z" id="path-1"></path>
    </defs>
    <g id="Icon/password" stroke="none" stroke-width="1" fill="none" fill-rule="evenodd">
        <g id="Group-2" transform="translate(4.000000, 0.000000)">
            <path d="" id="Path-2" stroke="#979797"></path>
            <g id="Group" transform="translate(45.359242, 40.833333)">
                <rect id="Rectangle" fill="#F47D3E" x="0" y="26" width="82.5" height="59" rx="8"></rect>
                <g id="Rectangle" transform="translate(14.640758, 0.166667)">
                    <g transform="translate(0.807425, -0.000000)">
                        <mask id="mask-2" fill="white">
                            <use xlink:href="#path-1"></use>
                        </mask>
                        <use id="Mask" fill="#F5833D" xlink:href="#path-1"></use>
                    </g>
                </g>
            </g>
            <path d="M18.326022,71.1269329 C17.4729616,75.4806215 17.0259088,79.97977 17.0259088,84.5833333 C17.0259088,123.013147 48.1794283,154.166667 86.6092421,154.166667 L86.6092421,154.166667 C125.039056,154.166667 156.192575,123.013147 156.192575,84.5833333 C156.192575,46.1535195 125.039056,15 86.6092421,15 C72.1448875,15 58.7113267,19.4133532 47.5816998,26.9669194" id="Path" stroke="#595757" stroke-width="12" stroke-linecap="round" transform="translate(86.609242, 84.583333) rotate(-14.000000) translate(-86.609242, -84.583333) "></path>
            <circle id="Oval" fill="#9C5224" cx="87.0259088" cy="95.8333333" r="5.83333333"></circle>
            <rect id="Rectangle" fill="#9C5224" x="83.6925755" y="96.6666667" width="6.66666667" height="16.6666667" rx="3.33333333"></rect>
            <polyline id="Path-14" stroke="#595757" stroke-width="10" stroke-linecap="round" transform="translate(16.403778, 88.938471) rotate(-11.000000) translate(-16.403778, -88.938471) " points="2 97.4177873 16.440929 80.4591542 30.8075566 96.7868667"></polyline>
        </g>
        <path d="" id="Path-4" stroke="#979797"></path>
        <path d="M81,47 L101,47 C104.865993,47 108,50.1340068 108,54 L108,66 L108,66 L74,66 L74,54 C74,50.1340068 77.1340068,47 81,47 Z" id="Rectangle" fill="#FFFFFF"></path>
    </g>
</svg>