<svg width="100" height="100" viewBox="0 0 100 100" fill="none" xmlns="http://www.w3.org/2000/svg">
<path d="M88.9375 99.4109C90.3086 99.4109 91.4951 98.9231 92.4971 97.9475C93.499 96.9719 94 95.7722 94 94.3484V56.1819C94 56.05 93.9736 55.9314 93.9209 55.8259C93.8682 55.4041 93.7627 54.9822 93.6045 54.5603C93.4463 54.1384 93.2354 53.7693 92.9717 53.4529L92.8926 53.3738C92.7871 53.2156 92.6553 53.0574 92.4971 52.8992L92.0225 52.4246L78.8125 39.1355V30.988C78.8125 30.3025 78.562 29.7092 78.061 29.2083C77.5601 28.7073 76.9668 28.4568 76.2812 28.4568H68.292L59.0371 20.5466C57.6133 19.1228 55.8203 18.4109 53.6582 18.4109C51.4961 18.4109 49.7031 19.1228 48.2793 20.5466L39.1035 28.4568H30.7188C30.0332 28.4568 29.4399 28.7073 28.939 29.2083C28.438 29.7092 28.1875 30.3025 28.1875 30.988V39.2937L15.2939 52.1873C14.6084 52.6619 14.0547 53.2683 13.6328 54.0066C13.2109 54.7449 13 55.5623 13 56.4587V94.3484C13 95.7722 13.501 96.9719 14.5029 97.9475C15.5049 98.9231 16.6914 99.4109 18.0625 99.4109H88.9375ZM60.54 28.4568H46.7764L51.8389 24.1062C52.1025 23.8953 52.3926 23.7239 52.709 23.592C53.0254 23.4602 53.3418 23.3943 53.6582 23.3943C53.9746 23.3943 54.291 23.4602 54.6074 23.592C54.9238 23.7239 55.2139 23.8953 55.4775 24.1062L60.54 28.4568ZM69.2412 72.7537L58.4043 62.9451C56.9277 61.7849 55.2271 61.1917 53.3022 61.1653C51.3774 61.1389 49.624 61.7585 48.042 63.0242L37.9961 72.3582L33.25 68.1658V33.5193H73.75V68.7195L69.2412 72.7537ZM78.8125 64.2107V46.1755L84.0332 51.3962H83.9541L88.3047 55.7468L78.8125 64.2107ZM28.1875 63.657L18.9326 55.5095L21.0684 53.4529H21.2266L28.1875 46.4919V63.657ZM18.0625 90.8679V61.5212L34.2783 75.8386L18.0625 90.8679ZM88.9375 90.5515L72.959 76.155L88.9375 61.9958V90.5515ZM85.5361 94.3484H21.7012L39.1826 78.2117C39.3408 78.1062 39.4858 78.0007 39.6177 77.8953C39.7495 77.7898 39.8945 77.658 40.0527 77.4998C40.1055 77.447 40.1582 77.3811 40.2109 77.302C40.2637 77.2229 40.3164 77.1306 40.3691 77.0251L51.2852 66.9001C51.5488 66.6892 51.8521 66.5178 52.1948 66.386C52.5376 66.2542 52.8936 66.1882 53.2627 66.1882C53.6318 66.1882 53.9878 66.2542 54.3306 66.386C54.6733 66.5178 54.9502 66.6628 55.1611 66.821L85.5361 94.3484Z" fill="black"/>
<path d="M32.8604 11.3523L38.1322 16.8709" stroke="#212121" stroke-width="3.24" stroke-linecap="round"/>
<path d="M75.2627 10.7268L69.9908 16.2454" stroke="#212121" stroke-width="3.24" stroke-linecap="round"/>
<path d="M53.9966 4L53.9966 11.632" stroke="#212121" stroke-width="3.24" stroke-linecap="round"/>
<path d="M53.4471 52.5929L53.4255 52.5713L53.4026 52.551C51.0458 50.4661 49.1769 48.7888 47.8875 47.22C46.6096 45.6652 46 44.3328 46 42.95C46 40.7123 47.7123 39 49.95 39C51.0194 39 52.1109 39.4432 52.909 40.1915C53.5192 40.7637 54.4808 40.7637 55.091 40.1915C55.8891 39.4432 56.9806 39 58.05 39C60.2877 39 62 40.7123 62 42.95C62 44.3328 61.3904 45.6652 60.1125 47.22C58.8231 48.7888 56.9542 50.4661 54.5974 52.551L54.5745 52.5713L54.5529 52.5929L54 53.1458L53.4471 52.5929Z" fill="#E22D2D" stroke="#E22D2D" stroke-width="2"/>
</svg>
