<svg width="32" height="32" viewBox="0 0 32 32" fill="none" xmlns="http://www.w3.org/2000/svg">
<path d="M15.9876 6.65295C9.97245 6.65295 5.09619 11.5292 5.09619 17.5444C5.09619 23.5595 9.97245 28.4358 15.9876 28.4358C22.0027 28.4358 26.879 23.5595 26.879 17.5444" stroke="white" stroke-width="1.7" stroke-linecap="round"/>
<path d="M11.6431 4L17.2325 6.17124L13.8113 11.4519" stroke="white" stroke-width="1.7" stroke-linecap="round"/>
<path d="M12.5534 18.2741L15.9652 21.6786C16.0125 21.7258 16.0111 21.801 15.9621 21.8466C15.9466 21.8611 15.9273 21.8714 15.9063 21.8764L10.9336 23.0711L12.3462 18.3239C12.365 18.2608 12.4333 18.2244 12.4987 18.2424C12.5195 18.2481 12.5384 18.259 12.5534 18.2741Z" stroke="white" stroke-width="1.5" stroke-linecap="square"/>
<path d="M24.6688 12.5208L22.0207 9.77864C21.8117 9.5623 21.467 9.55628 21.2507 9.7652L14.1995 16.5744C13.9832 16.7833 13.9771 17.1282 14.1861 17.3445L16.8341 20.0866C17.043 20.3029 17.3877 20.309 17.6041 20.1L24.6552 13.2908C24.8717 13.0819 24.8777 12.7371 24.6688 12.5208Z" stroke="white" stroke-width="1.5"/>
<path d="M23.7399 12.0169L23.0215 11.2731L15.5835 18.4559L16.3018 19.1997L23.7399 12.0169Z" stroke="white"/>
<path d="M27.019 10.251L24.371 7.50887C24.1621 7.29253 23.8172 7.2865 23.6009 7.49543L23.0526 8.02504C22.8361 8.23396 22.8302 8.57872 23.0391 8.79506L25.6871 11.5372C25.896 11.7535 26.2408 11.7595 26.4571 11.5506L27.0056 11.021C27.2219 10.8121 27.2279 10.4673 27.019 10.251Z" fill="white" stroke="white" stroke-width="0.7"/>
</svg>
