<svg width="463" height="459" viewBox="0 0 463 459" fill="none" xmlns="http://www.w3.org/2000/svg">
<rect width="463" height="459" fill="white"/>
<g clip-path="url(#clip0)">
<path fill-rule="evenodd" clip-rule="evenodd" d="M451 442L274.68 60.5154L194.885 233.16L161.692 173.655L12 442L98.3607 442H451Z" fill="#E22D2D" fill-opacity="0.293406"/>
<path d="M160.252 417.341C160.252 417.341 197.299 409.148 215.555 402.589C244.775 392.091 276.275 376.807 289.593 339.623C301.251 307.074 247.039 269.124 243.759 223.814C242.666 208.713 267.332 179.724 275.143 152.392C280.708 132.917 277.31 92.4268 277.31 92.4268" stroke="#CF9372" stroke-width="7" stroke-linecap="square"/>
<rect x="93.1033" y="409.138" width="134.298" height="32.3618" rx="16.1809" fill="white" stroke="#212121"/>
<path d="M120.811 421.434V426.977C120.811 427.609 120.668 428.164 120.383 428.641C120.102 429.117 119.693 429.482 119.158 429.736C118.623 429.99 117.99 430.117 117.26 430.117C116.158 430.117 115.303 429.836 114.693 429.273C114.084 428.707 113.779 427.934 113.779 426.953V421.434H115.59V426.678C115.59 427.338 115.723 427.822 115.988 428.131C116.254 428.439 116.693 428.594 117.307 428.594C117.9 428.594 118.33 428.439 118.596 428.131C118.865 427.818 119 427.33 119 426.666V421.434H120.811ZM126.365 430.117C125.596 430.117 124.992 429.838 124.555 429.279H124.461C124.523 429.826 124.555 430.143 124.555 430.229V432.883H122.768V423.449H124.221L124.473 424.299H124.555C124.973 423.65 125.592 423.326 126.412 423.326C127.186 423.326 127.791 423.625 128.229 424.223C128.666 424.82 128.885 425.65 128.885 426.713C128.885 427.412 128.781 428.02 128.574 428.535C128.371 429.051 128.08 429.443 127.701 429.713C127.322 429.982 126.877 430.117 126.365 430.117ZM125.838 424.756C125.397 424.756 125.074 424.893 124.871 425.166C124.668 425.436 124.563 425.883 124.555 426.508V426.701C124.555 427.404 124.658 427.908 124.865 428.213C125.076 428.518 125.408 428.67 125.861 428.67C126.662 428.67 127.063 428.01 127.063 426.689C127.063 426.045 126.963 425.562 126.764 425.242C126.568 424.918 126.26 424.756 125.838 424.756ZM133.959 430.117C133.189 430.117 132.586 429.838 132.148 429.279H132.055C132.117 429.826 132.148 430.143 132.148 430.229V432.883H130.361V423.449H131.814L132.066 424.299H132.148C132.566 423.65 133.186 423.326 134.006 423.326C134.779 423.326 135.385 423.625 135.822 424.223C136.26 424.82 136.479 425.65 136.479 426.713C136.479 427.412 136.375 428.02 136.168 428.535C135.965 429.051 135.674 429.443 135.295 429.713C134.916 429.982 134.471 430.117 133.959 430.117ZM133.432 424.756C132.99 424.756 132.668 424.893 132.465 425.166C132.262 425.436 132.156 425.883 132.148 426.508V426.701C132.148 427.404 132.252 427.908 132.459 428.213C132.67 428.518 133.002 428.67 133.455 428.67C134.256 428.67 134.656 428.01 134.656 426.689C134.656 426.045 134.557 425.562 134.357 425.242C134.162 424.918 133.854 424.756 133.432 424.756ZM140.668 424.598C140.289 424.598 139.992 424.719 139.777 424.961C139.563 425.199 139.439 425.539 139.408 425.98H141.916C141.908 425.539 141.793 425.199 141.57 424.961C141.348 424.719 141.047 424.598 140.668 424.598ZM140.92 430.117C139.865 430.117 139.041 429.826 138.447 429.244C137.854 428.662 137.557 427.838 137.557 426.771C137.557 425.674 137.83 424.826 138.377 424.229C138.928 423.627 139.688 423.326 140.656 423.326C141.582 423.326 142.303 423.59 142.818 424.117C143.334 424.645 143.592 425.373 143.592 426.303V427.17H139.367C139.387 427.678 139.537 428.074 139.818 428.359C140.1 428.645 140.494 428.787 141.002 428.787C141.397 428.787 141.77 428.746 142.121 428.664C142.473 428.582 142.84 428.451 143.223 428.271V429.654C142.91 429.811 142.576 429.926 142.221 430C141.865 430.078 141.432 430.117 140.92 430.117ZM148.701 423.326C148.943 423.326 149.145 423.344 149.305 423.379L149.17 425.055C149.025 425.016 148.85 424.996 148.643 424.996C148.072 424.996 147.627 425.143 147.307 425.436C146.99 425.729 146.832 426.139 146.832 426.666V430H145.045V423.449H146.398L146.662 424.551H146.75C146.953 424.184 147.227 423.889 147.57 423.666C147.918 423.439 148.295 423.326 148.701 423.326ZM149.914 427.516V426.051H153.061V427.516H149.914ZM154.502 421.434H157.168C158.383 421.434 159.264 421.607 159.811 421.955C160.361 422.299 160.637 422.848 160.637 423.602C160.637 424.113 160.516 424.533 160.273 424.861C160.035 425.189 159.717 425.387 159.318 425.453V425.512C159.861 425.633 160.252 425.859 160.49 426.191C160.732 426.523 160.854 426.965 160.854 427.516C160.854 428.297 160.57 428.906 160.004 429.344C159.441 429.781 158.676 430 157.707 430H154.502V421.434ZM156.318 424.826H157.373C157.865 424.826 158.221 424.75 158.439 424.598C158.662 424.445 158.773 424.193 158.773 423.842C158.773 423.514 158.652 423.279 158.41 423.139C158.172 422.994 157.793 422.922 157.273 422.922H156.318V424.826ZM156.318 426.268V428.5H157.502C158.002 428.5 158.371 428.404 158.609 428.213C158.848 428.021 158.967 427.729 158.967 427.334C158.967 426.623 158.459 426.268 157.443 426.268H156.318ZM165.137 424.598C164.758 424.598 164.461 424.719 164.246 424.961C164.031 425.199 163.908 425.539 163.877 425.98H166.385C166.377 425.539 166.262 425.199 166.039 424.961C165.816 424.719 165.516 424.598 165.137 424.598ZM165.389 430.117C164.334 430.117 163.51 429.826 162.916 429.244C162.322 428.662 162.025 427.838 162.025 426.771C162.025 425.674 162.299 424.826 162.846 424.229C163.397 423.627 164.156 423.326 165.125 423.326C166.051 423.326 166.772 423.59 167.287 424.117C167.803 424.645 168.061 425.373 168.061 426.303V427.17H163.836C163.855 427.678 164.006 428.074 164.287 428.359C164.568 428.645 164.963 428.787 165.471 428.787C165.865 428.787 166.238 428.746 166.59 428.664C166.941 428.582 167.309 428.451 167.691 428.271V429.654C167.379 429.811 167.045 429.926 166.689 430C166.334 430.078 165.9 430.117 165.389 430.117ZM175.215 423.449V424.357L174.189 424.621C174.377 424.914 174.471 425.242 174.471 425.605C174.471 426.309 174.225 426.857 173.732 427.252C173.244 427.643 172.564 427.838 171.693 427.838L171.371 427.82L171.107 427.791C170.924 427.932 170.832 428.088 170.832 428.26C170.832 428.518 171.16 428.646 171.816 428.646H172.93C173.648 428.646 174.195 428.801 174.57 429.109C174.949 429.418 175.139 429.871 175.139 430.469C175.139 431.234 174.818 431.828 174.178 432.25C173.541 432.672 172.625 432.883 171.43 432.883C170.516 432.883 169.816 432.723 169.332 432.402C168.852 432.086 168.611 431.641 168.611 431.066C168.611 430.672 168.734 430.342 168.98 430.076C169.227 429.811 169.588 429.621 170.064 429.508C169.881 429.43 169.721 429.303 169.584 429.127C169.447 428.947 169.379 428.758 169.379 428.559C169.379 428.309 169.451 428.102 169.596 427.938C169.74 427.77 169.949 427.605 170.223 427.445C169.879 427.297 169.605 427.059 169.402 426.73C169.203 426.402 169.104 426.016 169.104 425.57C169.104 424.855 169.336 424.303 169.801 423.912C170.266 423.521 170.93 423.326 171.793 423.326C171.977 423.326 172.193 423.344 172.443 423.379C172.697 423.41 172.859 423.434 172.93 423.449H175.215ZM170.158 430.926C170.158 431.172 170.275 431.365 170.51 431.506C170.748 431.646 171.08 431.717 171.506 431.717C172.147 431.717 172.648 431.629 173.012 431.453C173.375 431.277 173.557 431.037 173.557 430.732C173.557 430.486 173.449 430.316 173.234 430.223C173.02 430.129 172.688 430.082 172.238 430.082H171.313C170.984 430.082 170.709 430.158 170.486 430.311C170.268 430.467 170.158 430.672 170.158 430.926ZM170.809 425.594C170.809 425.949 170.889 426.23 171.049 426.438C171.213 426.645 171.461 426.748 171.793 426.748C172.129 426.748 172.375 426.645 172.531 426.438C172.688 426.23 172.766 425.949 172.766 425.594C172.766 424.805 172.441 424.41 171.793 424.41C171.137 424.41 170.809 424.805 170.809 425.594ZM176.223 421.756C176.223 421.174 176.547 420.883 177.195 420.883C177.844 420.883 178.168 421.174 178.168 421.756C178.168 422.033 178.086 422.25 177.922 422.406C177.762 422.559 177.52 422.635 177.195 422.635C176.547 422.635 176.223 422.342 176.223 421.756ZM178.086 430H176.299V423.449H178.086V430ZM186.014 430H184.227V426.174C184.227 425.701 184.143 425.348 183.975 425.113C183.807 424.875 183.539 424.756 183.172 424.756C182.672 424.756 182.311 424.924 182.088 425.26C181.865 425.592 181.754 426.145 181.754 426.918V430H179.967V423.449H181.332L181.572 424.287H181.672C181.871 423.971 182.145 423.732 182.492 423.572C182.844 423.408 183.242 423.326 183.688 423.326C184.449 423.326 185.027 423.533 185.422 423.947C185.816 424.357 186.014 424.951 186.014 425.729V430ZM193.9 430H192.113V426.174C192.113 425.701 192.029 425.348 191.861 425.113C191.693 424.875 191.426 424.756 191.059 424.756C190.559 424.756 190.197 424.924 189.975 425.26C189.752 425.592 189.641 426.145 189.641 426.918V430H187.854V423.449H189.219L189.459 424.287H189.559C189.758 423.971 190.031 423.732 190.379 423.572C190.73 423.408 191.129 423.326 191.574 423.326C192.336 423.326 192.914 423.533 193.309 423.947C193.703 424.357 193.9 424.951 193.9 425.729V430ZM198.453 424.598C198.074 424.598 197.777 424.719 197.563 424.961C197.348 425.199 197.225 425.539 197.193 425.98H199.701C199.693 425.539 199.578 425.199 199.355 424.961C199.133 424.719 198.832 424.598 198.453 424.598ZM198.705 430.117C197.65 430.117 196.826 429.826 196.232 429.244C195.639 428.662 195.342 427.838 195.342 426.771C195.342 425.674 195.615 424.826 196.162 424.229C196.713 423.627 197.473 423.326 198.441 423.326C199.367 423.326 200.088 423.59 200.604 424.117C201.119 424.645 201.377 425.373 201.377 426.303V427.17H197.152C197.172 427.678 197.322 428.074 197.604 428.359C197.885 428.645 198.279 428.787 198.787 428.787C199.182 428.787 199.555 428.746 199.906 428.664C200.258 428.582 200.625 428.451 201.008 428.271V429.654C200.695 429.811 200.361 429.926 200.006 430C199.65 430.078 199.217 430.117 198.705 430.117ZM206.486 423.326C206.729 423.326 206.93 423.344 207.09 423.379L206.955 425.055C206.811 425.016 206.635 424.996 206.428 424.996C205.857 424.996 205.412 425.143 205.092 425.436C204.775 425.729 204.617 426.139 204.617 426.666V430H202.83V423.449H204.184L204.447 424.551H204.535C204.738 424.184 205.012 423.889 205.355 423.666C205.703 423.439 206.08 423.326 206.486 423.326Z" fill="#212121"/>
<rect x="249.992" y="335.162" width="117.026" height="32.3618" rx="16.1809" fill="white" stroke="#212121"/>
<rect x="228.402" y="223.473" width="86.8" height="32.3618" rx="16.1809" fill="white" stroke="#212121"/>
<path d="M271.366 354.464V345.898H273.182V354.464H271.366ZM281.245 354.464H279.458V350.638C279.458 350.165 279.374 349.812 279.206 349.577C279.038 349.339 278.77 349.22 278.403 349.22C277.903 349.22 277.542 349.388 277.319 349.724C277.096 350.056 276.985 350.609 276.985 351.382V354.464H275.198V347.913H276.563L276.803 348.751H276.903C277.102 348.435 277.376 348.197 277.723 348.036C278.075 347.872 278.473 347.79 278.919 347.79C279.68 347.79 280.259 347.997 280.653 348.411C281.048 348.822 281.245 349.415 281.245 350.193V354.464ZM285.845 353.157C286.157 353.157 286.532 353.089 286.97 352.952V354.282C286.524 354.482 285.977 354.581 285.329 354.581C284.614 354.581 284.093 354.402 283.764 354.042C283.44 353.679 283.278 353.136 283.278 352.413V349.255H282.423V348.499L283.407 347.902L283.923 346.519H285.065V347.913H286.899V349.255H285.065V352.413C285.065 352.667 285.136 352.855 285.276 352.976C285.421 353.097 285.61 353.157 285.845 353.157ZM291.012 349.062C290.634 349.062 290.337 349.183 290.122 349.425C289.907 349.663 289.784 350.003 289.753 350.445H292.261C292.253 350.003 292.137 349.663 291.915 349.425C291.692 349.183 291.391 349.062 291.012 349.062ZM291.264 354.581C290.21 354.581 289.386 354.29 288.792 353.708C288.198 353.126 287.901 352.302 287.901 351.236C287.901 350.138 288.175 349.29 288.721 348.693C289.272 348.091 290.032 347.79 291.001 347.79C291.927 347.79 292.647 348.054 293.163 348.581C293.678 349.109 293.936 349.837 293.936 350.767V351.634H289.712C289.731 352.142 289.882 352.538 290.163 352.823C290.444 353.109 290.839 353.251 291.346 353.251C291.741 353.251 292.114 353.21 292.466 353.128C292.817 353.046 293.184 352.915 293.567 352.736V354.118C293.255 354.275 292.921 354.39 292.565 354.464C292.21 354.542 291.776 354.581 291.264 354.581ZM299.046 347.79C299.288 347.79 299.489 347.808 299.649 347.843L299.514 349.519C299.37 349.48 299.194 349.46 298.987 349.46C298.417 349.46 297.971 349.607 297.651 349.9C297.335 350.193 297.177 350.603 297.177 351.13V354.464H295.389V347.913H296.743L297.007 349.015H297.095C297.298 348.648 297.571 348.353 297.915 348.13C298.262 347.904 298.639 347.79 299.046 347.79ZM306.704 354.464H304.917V350.638C304.917 350.165 304.837 349.812 304.677 349.577C304.52 349.339 304.272 349.22 303.932 349.22C303.475 349.22 303.143 349.388 302.936 349.724C302.729 350.06 302.626 350.613 302.626 351.382V354.464H300.839V347.913H302.204L302.444 348.751H302.544C302.72 348.45 302.973 348.216 303.305 348.048C303.637 347.876 304.018 347.79 304.448 347.79C305.428 347.79 306.093 348.111 306.44 348.751H306.598C306.774 348.447 307.032 348.21 307.372 348.042C307.716 347.874 308.102 347.79 308.532 347.79C309.274 347.79 309.835 347.982 310.214 348.365C310.596 348.743 310.788 349.353 310.788 350.193V354.464H308.995V350.638C308.995 350.165 308.915 349.812 308.755 349.577C308.598 349.339 308.35 349.22 308.011 349.22C307.573 349.22 307.245 349.376 307.026 349.689C306.811 350.001 306.704 350.497 306.704 351.177V354.464ZM315.341 349.062C314.962 349.062 314.665 349.183 314.45 349.425C314.235 349.663 314.112 350.003 314.081 350.445H316.589C316.581 350.003 316.466 349.663 316.243 349.425C316.02 349.183 315.72 349.062 315.341 349.062ZM315.593 354.581C314.538 354.581 313.714 354.29 313.12 353.708C312.526 353.126 312.229 352.302 312.229 351.236C312.229 350.138 312.503 349.29 313.05 348.693C313.6 348.091 314.36 347.79 315.329 347.79C316.255 347.79 316.975 348.054 317.491 348.581C318.007 349.109 318.264 349.837 318.264 350.767V351.634H314.04C314.059 352.142 314.21 352.538 314.491 352.823C314.772 353.109 315.167 353.251 315.675 353.251C316.069 353.251 316.442 353.21 316.794 353.128C317.145 353.046 317.512 352.915 317.895 352.736V354.118C317.583 354.275 317.249 354.39 316.893 354.464C316.538 354.542 316.104 354.581 315.593 354.581ZM321.792 354.581C321.022 354.581 320.417 354.282 319.975 353.685C319.538 353.087 319.319 352.259 319.319 351.2C319.319 350.126 319.542 349.29 319.987 348.693C320.436 348.091 321.053 347.79 321.839 347.79C322.663 347.79 323.292 348.111 323.725 348.751H323.784C323.694 348.263 323.649 347.827 323.649 347.445V345.347H325.442V354.464H324.071L323.725 353.615H323.649C323.243 354.259 322.624 354.581 321.792 354.581ZM322.419 353.157C322.876 353.157 323.21 353.025 323.421 352.759C323.636 352.493 323.753 352.042 323.772 351.406V351.212C323.772 350.509 323.663 350.005 323.444 349.7C323.229 349.396 322.878 349.243 322.389 349.243C321.991 349.243 321.68 349.413 321.458 349.753C321.239 350.089 321.13 350.579 321.13 351.224C321.13 351.868 321.241 352.353 321.464 352.677C321.686 352.997 322.005 353.157 322.419 353.157ZM327.235 346.22C327.235 345.638 327.559 345.347 328.208 345.347C328.856 345.347 329.18 345.638 329.18 346.22C329.18 346.497 329.098 346.714 328.934 346.87C328.774 347.023 328.532 347.099 328.208 347.099C327.559 347.099 327.235 346.806 327.235 346.22ZM329.098 354.464H327.311V347.913H329.098V354.464ZM335.139 354.464L334.794 353.573H334.747C334.446 353.952 334.136 354.216 333.815 354.365C333.499 354.509 333.085 354.581 332.573 354.581C331.944 354.581 331.448 354.402 331.085 354.042C330.725 353.683 330.546 353.171 330.546 352.507C330.546 351.812 330.788 351.3 331.272 350.972C331.761 350.64 332.495 350.456 333.475 350.421L334.612 350.386V350.099C334.612 349.435 334.272 349.103 333.593 349.103C333.069 349.103 332.454 349.261 331.747 349.577L331.155 348.37C331.909 347.976 332.745 347.779 333.663 347.779C334.542 347.779 335.216 347.97 335.684 348.353C336.153 348.736 336.387 349.318 336.387 350.099V354.464H335.139ZM334.612 351.429L333.921 351.452C333.401 351.468 333.014 351.562 332.761 351.734C332.507 351.906 332.38 352.167 332.38 352.519C332.38 353.023 332.669 353.275 333.247 353.275C333.661 353.275 333.991 353.156 334.237 352.917C334.487 352.679 334.612 352.363 334.612 351.968V351.429ZM340.993 353.157C341.305 353.157 341.68 353.089 342.118 352.952V354.282C341.673 354.482 341.126 354.581 340.477 354.581C339.762 354.581 339.241 354.402 338.913 354.042C338.589 353.679 338.427 353.136 338.427 352.413V349.255H337.571V348.499L338.555 347.902L339.071 346.519H340.214V347.913H342.048V349.255H340.214V352.413C340.214 352.667 340.284 352.855 340.425 352.976C340.569 353.097 340.759 353.157 340.993 353.157ZM346.161 349.062C345.782 349.062 345.485 349.183 345.27 349.425C345.055 349.663 344.932 350.003 344.901 350.445H347.409C347.401 350.003 347.286 349.663 347.063 349.425C346.841 349.183 346.54 349.062 346.161 349.062ZM346.413 354.581C345.358 354.581 344.534 354.29 343.94 353.708C343.346 353.126 343.05 352.302 343.05 351.236C343.05 350.138 343.323 349.29 343.87 348.693C344.421 348.091 345.18 347.79 346.149 347.79C347.075 347.79 347.796 348.054 348.311 348.581C348.827 349.109 349.085 349.837 349.085 350.767V351.634H344.86C344.88 352.142 345.03 352.538 345.311 352.823C345.593 353.109 345.987 353.251 346.495 353.251C346.889 353.251 347.262 353.21 347.614 353.128C347.966 353.046 348.333 352.915 348.716 352.736V354.118C348.403 354.275 348.069 354.39 347.714 354.464C347.358 354.542 346.925 354.581 346.413 354.581Z" fill="#212121"/>
<path d="M248.049 241.775L247.428 239.736H244.305L243.684 241.775H241.727L244.75 233.173H246.971L250.006 241.775H248.049ZM246.994 238.212C246.42 236.365 246.096 235.32 246.021 235.077C245.951 234.835 245.9 234.644 245.869 234.503C245.74 235.003 245.371 236.24 244.762 238.212H246.994ZM253.023 241.892C252.254 241.892 251.648 241.593 251.207 240.995C250.77 240.398 250.551 239.57 250.551 238.511C250.551 237.437 250.773 236.601 251.219 236.003C251.668 235.402 252.285 235.101 253.07 235.101C253.895 235.101 254.523 235.421 254.957 236.062H255.016C254.926 235.573 254.881 235.138 254.881 234.755V232.657H256.674V241.775H255.303L254.957 240.925H254.881C254.475 241.57 253.855 241.892 253.023 241.892ZM253.65 240.468C254.107 240.468 254.441 240.335 254.652 240.07C254.867 239.804 254.984 239.353 255.004 238.716V238.523C255.004 237.82 254.895 237.316 254.676 237.011C254.461 236.706 254.109 236.554 253.621 236.554C253.223 236.554 252.912 236.724 252.689 237.064C252.471 237.4 252.361 237.89 252.361 238.534C252.361 239.179 252.473 239.663 252.695 239.988C252.918 240.308 253.236 240.468 253.65 240.468ZM260.102 241.775L257.605 235.224H259.475L260.74 238.956C260.881 239.429 260.969 239.876 261.004 240.298H261.039C261.059 239.923 261.146 239.476 261.303 238.956L262.563 235.224H264.432L261.936 241.775H260.102ZM269.535 241.775L269.189 240.884H269.143C268.842 241.263 268.531 241.527 268.211 241.675C267.895 241.82 267.48 241.892 266.969 241.892C266.34 241.892 265.844 241.712 265.48 241.353C265.121 240.993 264.941 240.482 264.941 239.818C264.941 239.122 265.184 238.611 265.668 238.282C266.156 237.95 266.891 237.767 267.871 237.732L269.008 237.697V237.409C269.008 236.745 268.668 236.413 267.988 236.413C267.465 236.413 266.85 236.572 266.143 236.888L265.551 235.681C266.305 235.286 267.141 235.089 268.059 235.089C268.938 235.089 269.611 235.281 270.08 235.663C270.549 236.046 270.783 236.628 270.783 237.409V241.775H269.535ZM269.008 238.74L268.316 238.763C267.797 238.779 267.41 238.872 267.156 239.044C266.902 239.216 266.775 239.478 266.775 239.829C266.775 240.333 267.064 240.585 267.643 240.585C268.057 240.585 268.387 240.466 268.633 240.228C268.883 239.99 269.008 239.673 269.008 239.279V238.74ZM278.676 241.775H276.889V237.948C276.889 237.476 276.805 237.122 276.637 236.888C276.469 236.65 276.201 236.531 275.834 236.531C275.334 236.531 274.973 236.698 274.75 237.034C274.527 237.366 274.416 237.919 274.416 238.693V241.775H272.629V235.224H273.994L274.234 236.062H274.334C274.533 235.745 274.807 235.507 275.154 235.347C275.506 235.183 275.904 235.101 276.35 235.101C277.111 235.101 277.689 235.308 278.084 235.722C278.479 236.132 278.676 236.726 278.676 237.503V241.775ZM283.176 241.892C281.137 241.892 280.117 240.773 280.117 238.534C280.117 237.421 280.395 236.572 280.949 235.986C281.504 235.396 282.299 235.101 283.334 235.101C284.092 235.101 284.771 235.249 285.373 235.546L284.846 236.929C284.564 236.816 284.303 236.724 284.061 236.654C283.818 236.579 283.576 236.542 283.334 236.542C282.404 236.542 281.939 237.202 281.939 238.523C281.939 239.804 282.404 240.445 283.334 240.445C283.678 240.445 283.996 240.4 284.289 240.31C284.582 240.216 284.875 240.072 285.168 239.876V241.406C284.879 241.589 284.586 241.716 284.289 241.786C283.996 241.857 283.625 241.892 283.176 241.892ZM289.404 236.372C289.025 236.372 288.729 236.493 288.514 236.736C288.299 236.974 288.176 237.314 288.145 237.755H290.652C290.645 237.314 290.529 236.974 290.307 236.736C290.084 236.493 289.783 236.372 289.404 236.372ZM289.656 241.892C288.602 241.892 287.777 241.601 287.184 241.019C286.59 240.437 286.293 239.613 286.293 238.546C286.293 237.448 286.566 236.601 287.113 236.003C287.664 235.402 288.424 235.101 289.393 235.101C290.318 235.101 291.039 235.365 291.555 235.892C292.07 236.419 292.328 237.148 292.328 238.077V238.945H288.104C288.123 239.452 288.273 239.849 288.555 240.134C288.836 240.419 289.23 240.562 289.738 240.562C290.133 240.562 290.506 240.521 290.857 240.439C291.209 240.357 291.576 240.226 291.959 240.046V241.429C291.646 241.585 291.313 241.7 290.957 241.775C290.602 241.853 290.168 241.892 289.656 241.892ZM295.855 241.892C295.086 241.892 294.48 241.593 294.039 240.995C293.602 240.398 293.383 239.57 293.383 238.511C293.383 237.437 293.605 236.601 294.051 236.003C294.5 235.402 295.117 235.101 295.902 235.101C296.727 235.101 297.355 235.421 297.789 236.062H297.848C297.758 235.573 297.713 235.138 297.713 234.755V232.657H299.506V241.775H298.135L297.789 240.925H297.713C297.307 241.57 296.688 241.892 295.855 241.892ZM296.482 240.468C296.939 240.468 297.273 240.335 297.484 240.07C297.699 239.804 297.816 239.353 297.836 238.716V238.523C297.836 237.82 297.727 237.316 297.508 237.011C297.293 236.706 296.941 236.554 296.453 236.554C296.055 236.554 295.744 236.724 295.521 237.064C295.303 237.4 295.193 237.89 295.193 238.534C295.193 239.179 295.305 239.663 295.527 239.988C295.75 240.308 296.068 240.468 296.482 240.468Z" fill="#212121"/>
<rect x="212.569" y="65.3669" width="117.026" height="32.3618" rx="16.1809" fill="white" stroke="#212121"/>
<path d="M234.199 85.6689L233.578 83.6299H230.455L229.834 85.6689H227.877L230.9 77.0674H233.121L236.156 85.6689H234.199ZM233.144 82.1064C232.57 80.2588 232.246 79.2139 232.172 78.9717C232.101 78.7295 232.051 78.5381 232.019 78.3975C231.89 78.8975 231.521 80.1338 230.912 82.1064H233.144ZM238.886 85.6689H237.099V76.5518H238.886V85.6689ZM246.633 85.6689H244.845V81.8428C244.845 81.3701 244.765 81.0166 244.605 80.7822C244.449 80.5439 244.201 80.4248 243.861 80.4248C243.404 80.4248 243.072 80.5928 242.865 80.9287C242.658 81.2646 242.554 81.8174 242.554 82.5869V85.6689H240.767V79.1182H242.133L242.373 79.9561H242.472C242.648 79.6553 242.902 79.4209 243.234 79.2529C243.566 79.0811 243.947 78.9951 244.377 78.9951C245.357 78.9951 246.021 79.3154 246.369 79.9561H246.527C246.703 79.6514 246.961 79.415 247.301 79.2471C247.644 79.0791 248.031 78.9951 248.461 78.9951C249.203 78.9951 249.763 79.1865 250.142 79.5693C250.525 79.9482 250.717 80.5576 250.717 81.3975V85.6689H248.924V81.8428C248.924 81.3701 248.844 81.0166 248.683 80.7822C248.527 80.5439 248.279 80.4248 247.939 80.4248C247.502 80.4248 247.174 80.5811 246.955 80.8936C246.74 81.2061 246.633 81.7021 246.633 82.3818V85.6689ZM253.98 82.3818C253.98 83.0303 254.086 83.5205 254.297 83.8525C254.511 84.1846 254.859 84.3506 255.34 84.3506C255.816 84.3506 256.158 84.1865 256.365 83.8584C256.576 83.5264 256.681 83.0342 256.681 82.3818C256.681 81.7334 256.576 81.2471 256.365 80.9229C256.154 80.5986 255.808 80.4365 255.328 80.4365C254.851 80.4365 254.508 80.5986 254.297 80.9229C254.086 81.2432 253.98 81.7295 253.98 82.3818ZM258.51 82.3818C258.51 83.4482 258.228 84.2822 257.666 84.8838C257.103 85.4854 256.32 85.7861 255.316 85.7861C254.687 85.7861 254.133 85.6494 253.652 85.376C253.172 85.0986 252.802 84.7021 252.545 84.1865C252.287 83.6709 252.158 83.0693 252.158 82.3818C252.158 81.3115 252.437 80.4795 252.996 79.8857C253.554 79.292 254.34 78.9951 255.351 78.9951C255.98 78.9951 256.535 79.1318 257.015 79.4053C257.496 79.6787 257.865 80.0713 258.123 80.583C258.381 81.0947 258.51 81.6943 258.51 82.3818ZM264.556 83.7236C264.556 84.3955 264.322 84.9072 263.853 85.2588C263.388 85.6104 262.691 85.7861 261.761 85.7861C261.285 85.7861 260.879 85.7529 260.543 85.6865C260.207 85.624 259.892 85.5303 259.599 85.4053V83.9287C259.931 84.085 260.304 84.2158 260.719 84.3213C261.136 84.4268 261.504 84.4795 261.82 84.4795C262.469 84.4795 262.793 84.292 262.793 83.917C262.793 83.7764 262.75 83.6631 262.664 83.5771C262.578 83.4873 262.429 83.3877 262.219 83.2783C262.008 83.165 261.726 83.0342 261.375 82.8857C260.871 82.6748 260.5 82.4795 260.261 82.2998C260.027 82.1201 259.855 81.915 259.746 81.6846C259.64 81.4502 259.588 81.1631 259.588 80.8232C259.588 80.2412 259.812 79.792 260.261 79.4756C260.715 79.1553 261.355 78.9951 262.183 78.9951C262.972 78.9951 263.74 79.167 264.486 79.5107L263.947 80.7998C263.619 80.6592 263.312 80.5439 263.027 80.4541C262.742 80.3643 262.451 80.3193 262.154 80.3193C261.627 80.3193 261.363 80.4619 261.363 80.7471C261.363 80.9072 261.447 81.0459 261.615 81.1631C261.787 81.2803 262.16 81.4541 262.734 81.6846C263.246 81.8916 263.621 82.085 263.859 82.2646C264.097 82.4443 264.273 82.6514 264.386 82.8857C264.5 83.1201 264.556 83.3994 264.556 83.7236ZM268.711 84.3623C269.023 84.3623 269.398 84.2939 269.836 84.1572V85.4873C269.39 85.6865 268.844 85.7861 268.195 85.7861C267.48 85.7861 266.959 85.6064 266.631 85.2471C266.306 84.8838 266.144 84.3408 266.144 83.6182V80.46H265.289V79.7041L266.273 79.1064L266.789 77.7236H267.931V79.1182H269.765V80.46H267.931V83.6182C267.931 83.8721 268.002 84.0596 268.142 84.1807C268.287 84.3018 268.476 84.3623 268.711 84.3623ZM282.023 85.6689H279.715L275.988 79.1885H275.935C276.01 80.333 276.047 81.1494 276.047 81.6377V85.6689H274.424V77.1025H276.715L280.435 83.5186H280.476C280.418 82.4053 280.388 81.6182 280.388 81.1572V77.1025H282.023V85.6689ZM288.205 85.6689L287.859 84.7783H287.812C287.511 85.1572 287.201 85.4209 286.881 85.5693C286.564 85.7139 286.15 85.7861 285.638 85.7861C285.01 85.7861 284.513 85.6064 284.15 85.2471C283.791 84.8877 283.611 84.376 283.611 83.7119C283.611 83.0166 283.853 82.5049 284.338 82.1768C284.826 81.8447 285.56 81.6611 286.541 81.626L287.677 81.5908V81.3037C287.677 80.6396 287.338 80.3076 286.658 80.3076C286.135 80.3076 285.519 80.4658 284.812 80.7822L284.22 79.5752C284.974 79.1807 285.81 78.9834 286.728 78.9834C287.607 78.9834 288.281 79.1748 288.75 79.5576C289.219 79.9404 289.453 80.5225 289.453 81.3037V85.6689H288.205ZM287.677 82.6338L286.986 82.6572C286.467 82.6729 286.08 82.7666 285.826 82.9385C285.572 83.1104 285.445 83.3721 285.445 83.7236C285.445 84.2275 285.734 84.4795 286.312 84.4795C286.726 84.4795 287.056 84.3604 287.302 84.1221C287.552 83.8838 287.677 83.5674 287.677 83.1729V82.6338ZM294.058 84.3623C294.371 84.3623 294.746 84.2939 295.183 84.1572V85.4873C294.738 85.6865 294.191 85.7861 293.543 85.7861C292.828 85.7861 292.306 85.6064 291.978 85.2471C291.654 84.8838 291.492 84.3408 291.492 83.6182V80.46H290.636V79.7041L291.621 79.1064L292.136 77.7236H293.279V79.1182H295.113V80.46H293.279V83.6182C293.279 83.8721 293.349 84.0596 293.49 84.1807C293.635 84.3018 293.824 84.3623 294.058 84.3623ZM296.437 77.4248C296.437 76.8428 296.761 76.5518 297.41 76.5518C298.058 76.5518 298.383 76.8428 298.383 77.4248C298.383 77.7021 298.301 77.9189 298.136 78.0752C297.976 78.2275 297.734 78.3037 297.41 78.3037C296.761 78.3037 296.437 78.0107 296.437 77.4248ZM298.301 85.6689H296.513V79.1182H298.301V85.6689ZM301.74 85.6689L299.244 79.1182H301.113L302.379 82.8506C302.519 83.3232 302.607 83.7705 302.642 84.1924H302.677C302.697 83.8174 302.785 83.3701 302.941 82.8506L304.201 79.1182H306.07L303.574 85.6689H301.74ZM309.726 80.2666C309.347 80.2666 309.051 80.3877 308.836 80.6299C308.621 80.8682 308.498 81.208 308.467 81.6494H310.974C310.967 81.208 310.851 80.8682 310.629 80.6299C310.406 80.3877 310.105 80.2666 309.726 80.2666ZM309.978 85.7861C308.924 85.7861 308.099 85.4951 307.506 84.9131C306.912 84.3311 306.615 83.5068 306.615 82.4404C306.615 81.3428 306.888 80.4951 307.435 79.8975C307.986 79.2959 308.746 78.9951 309.715 78.9951C310.64 78.9951 311.361 79.2588 311.877 79.7861C312.392 80.3135 312.65 81.042 312.65 81.9717V82.8389H308.426C308.445 83.3467 308.595 83.7432 308.877 84.0283C309.158 84.3135 309.552 84.4561 310.06 84.4561C310.455 84.4561 310.828 84.415 311.179 84.333C311.531 84.251 311.898 84.1201 312.281 83.9404V85.3232C311.969 85.4795 311.635 85.5947 311.279 85.6689C310.924 85.7471 310.49 85.7861 309.978 85.7861Z" fill="#212121"/>
<path d="M13.2178 38V24.6507H16.0483V35.6625H21.4629V38H13.2178ZM27.7998 29.5813C27.2093 29.5813 26.7467 29.7701 26.4119 30.1475C26.0771 30.5188 25.8853 31.0484 25.8366 31.7362H29.7446C29.7324 31.0484 29.5529 30.5188 29.2059 30.1475C28.8589 29.7701 28.3902 29.5813 27.7998 29.5813ZM28.1924 38.1826C26.5488 38.1826 25.2644 37.7291 24.3392 36.8221C23.4139 35.9151 22.9513 34.6307 22.9513 32.9689C22.9513 31.2584 23.3774 29.9375 24.2296 29.0061C25.0879 28.0687 26.2719 27.6 27.7815 27.6C29.2242 27.6 30.3473 28.0108 31.1508 28.8326C31.9543 29.6544 32.356 30.7897 32.356 32.2384V33.5898H25.7727C25.8031 34.3811 26.0375 34.999 26.4758 35.4434C26.9141 35.8877 27.5289 36.1099 28.3202 36.1099C28.935 36.1099 29.5164 36.046 30.0642 35.9182C30.6121 35.7903 31.1843 35.5864 31.7808 35.3064V37.4613C31.2938 37.7048 30.7734 37.8843 30.2194 38C29.6655 38.1217 28.9898 38.1826 28.1924 38.1826ZM37.0493 38L33.1596 27.7917H36.0723L38.0446 33.6081C38.2637 34.3446 38.4007 35.0416 38.4555 35.699H38.5102C38.5407 35.1146 38.6776 34.4177 38.9211 33.6081L40.8843 27.7917H43.797L39.9073 38H37.0493ZM49.4947 29.5813C48.9042 29.5813 48.4416 29.7701 48.1068 30.1475C47.772 30.5188 47.5802 31.0484 47.5315 31.7362H51.4395C51.4274 31.0484 51.2478 30.5188 50.9008 30.1475C50.5539 29.7701 50.0851 29.5813 49.4947 29.5813ZM49.8873 38.1826C48.2437 38.1826 46.9593 37.7291 46.0341 36.8221C45.1088 35.9151 44.6462 34.6307 44.6462 32.9689C44.6462 31.2584 45.0723 29.9375 45.9245 29.0061C46.7828 28.0687 47.9668 27.6 49.4764 27.6C50.9191 27.6 52.0422 28.0108 52.8457 28.8326C53.6492 29.6544 54.051 30.7897 54.051 32.2384V33.5898H47.4676C47.4981 34.3811 47.7324 34.999 48.1707 35.4434C48.609 35.8877 49.2238 36.1099 50.0151 36.1099C50.6299 36.1099 51.2113 36.046 51.7591 35.9182C52.307 35.7903 52.8792 35.5864 53.4757 35.3064V37.4613C52.9887 37.7048 52.4683 37.8843 51.9144 38C51.3604 38.1217 50.6847 38.1826 49.8873 38.1826ZM59.1003 38H56.3154V23.7924H59.1003V38ZM77.9738 24.6507V33.2885C77.9738 34.2746 77.7516 35.139 77.3073 35.8816C76.869 36.6243 76.2329 37.1934 75.3989 37.5891C74.565 37.9848 73.5788 38.1826 72.4405 38.1826C70.7239 38.1826 69.3908 37.7443 68.4412 36.8678C67.4916 35.9851 67.0168 34.7799 67.0168 33.252V24.6507H69.8382V32.8228C69.8382 33.8515 70.0452 34.6064 70.4591 35.0873C70.8731 35.5681 71.5579 35.8086 72.5136 35.8086C73.4388 35.8086 74.1084 35.5681 74.5224 35.0873C74.9424 34.6003 75.1524 33.8394 75.1524 32.8045V24.6507H77.9738ZM86.6299 38.1826C85.4307 38.1826 84.4902 37.7474 83.8084 36.8769H83.6623C83.7597 37.7291 83.8084 38.2222 83.8084 38.3561V42.4924H81.0235V27.7917H83.288L83.6806 29.1157H83.8084C84.4598 28.1052 85.4246 27.6 86.7029 27.6C87.9082 27.6 88.8517 28.0656 89.5335 28.997C90.2153 29.9283 90.5561 31.2219 90.5561 32.8776C90.5561 33.9672 90.3948 34.9138 90.0722 35.7173C89.7557 36.5208 89.3022 37.1326 88.7117 37.5526C88.1213 37.9726 87.4273 38.1826 86.6299 38.1826ZM85.8081 29.8279C85.1202 29.8279 84.618 30.0409 84.3015 30.467C83.985 30.8871 83.8206 31.584 83.8084 32.558V32.8593C83.8084 33.955 83.9698 34.7403 84.2924 35.2151C84.6211 35.6899 85.1385 35.9273 85.8446 35.9273C87.0925 35.9273 87.7164 34.8986 87.7164 32.8411C87.7164 31.8367 87.5612 31.0849 87.2508 30.5857C86.9464 30.0805 86.4655 29.8279 85.8081 29.8279ZM103.002 30.5036H108.297V37.4248C107.439 37.7048 106.63 37.8996 105.869 38.0091C105.114 38.1248 104.341 38.1826 103.549 38.1826C101.534 38.1826 99.9944 37.5922 98.9291 36.4112C97.87 35.2242 97.3404 33.5228 97.3404 31.3071C97.3404 29.1522 97.9552 27.4721 99.1848 26.2668C100.421 25.0616 102.131 24.4589 104.316 24.4589C105.686 24.4589 107.007 24.7329 108.279 25.2807L107.339 27.5452C106.365 27.0582 105.351 26.8147 104.298 26.8147C103.075 26.8147 102.095 27.2256 101.358 28.0474C100.621 28.8691 100.253 29.974 100.253 31.3619C100.253 32.8106 100.548 33.9185 101.139 34.6855C101.735 35.4464 102.6 35.8269 103.732 35.8269C104.322 35.8269 104.922 35.766 105.531 35.6442V32.8593H103.002V30.5036ZM118.497 38L118.122 36.6943H117.976C117.678 37.1691 117.255 37.5374 116.707 37.7991C116.159 38.0548 115.535 38.1826 114.835 38.1826C113.636 38.1826 112.732 37.863 112.123 37.2239C111.515 36.5786 111.21 35.6534 111.21 34.4481V27.7917H113.995V33.7542C113.995 34.4907 114.126 35.0446 114.388 35.416C114.649 35.7812 115.066 35.9638 115.639 35.9638C116.418 35.9638 116.981 35.7051 117.328 35.1877C117.675 34.6642 117.848 33.7998 117.848 32.5945V27.7917H120.633V38H118.497ZM123.436 25.1529C123.436 24.2459 123.942 23.7924 124.952 23.7924C125.963 23.7924 126.468 24.2459 126.468 25.1529C126.468 25.5851 126.34 25.9229 126.084 26.1664C125.835 26.4038 125.457 26.5225 124.952 26.5225C123.942 26.5225 123.436 26.066 123.436 25.1529ZM126.34 38H123.555V27.7917H126.34V38ZM132.503 38.1826C131.304 38.1826 130.361 37.7169 129.673 36.7856C128.991 35.8542 128.65 34.5638 128.65 32.9141C128.65 31.2401 128.997 29.9375 129.691 29.0061C130.391 28.0687 131.353 27.6 132.576 27.6C133.861 27.6 134.841 28.0991 135.517 29.0974H135.608C135.468 28.3365 135.398 27.6578 135.398 27.0612V23.7924H138.192V38H136.055L135.517 36.676H135.398C134.765 37.6804 133.8 38.1826 132.503 38.1826ZM133.48 35.9638C134.193 35.9638 134.713 35.7569 135.042 35.3429C135.376 34.929 135.559 34.2259 135.59 33.2337V32.9324C135.59 31.8367 135.419 31.0514 135.078 30.5766C134.743 30.1018 134.196 29.8644 133.435 29.8644C132.814 29.8644 132.33 30.1292 131.983 30.6588C131.642 31.1823 131.472 31.9462 131.472 32.9506C131.472 33.955 131.645 34.7098 131.992 35.2151C132.339 35.7142 132.835 35.9638 133.48 35.9638ZM145.332 29.5813C144.742 29.5813 144.279 29.7701 143.944 30.1475C143.609 30.5188 143.418 31.0484 143.369 31.7362H147.277C147.265 31.0484 147.085 30.5188 146.738 30.1475C146.391 29.7701 145.923 29.5813 145.332 29.5813ZM145.725 38.1826C144.081 38.1826 142.797 37.7291 141.872 36.8221C140.946 35.9151 140.484 34.6307 140.484 32.9689C140.484 31.2584 140.91 29.9375 141.762 29.0061C142.62 28.0687 143.804 27.6 145.314 27.6C146.757 27.6 147.88 28.0108 148.683 28.8326C149.487 29.6544 149.888 30.7897 149.888 32.2384V33.5898H143.305C143.336 34.3811 143.57 34.999 144.008 35.4434C144.446 35.8877 145.061 36.1099 145.853 36.1099C146.467 36.1099 147.049 36.046 147.597 35.9182C148.144 35.7903 148.717 35.5864 149.313 35.3064V37.4613C148.826 37.7048 148.306 37.8843 147.752 38C147.198 38.1217 146.522 38.1826 145.725 38.1826ZM154.938 38H152.153V23.7924H154.938V38ZM157.75 25.1529C157.75 24.2459 158.255 23.7924 159.266 23.7924C160.276 23.7924 160.782 24.2459 160.782 25.1529C160.782 25.5851 160.654 25.9229 160.398 26.1664C160.149 26.4038 159.771 26.5225 159.266 26.5225C158.255 26.5225 157.75 26.066 157.75 25.1529ZM160.654 38H157.869V27.7917H160.654V38ZM173.008 38H170.223V32.0375C170.223 31.301 170.092 30.7501 169.83 30.3849C169.569 30.0135 169.152 29.8279 168.579 29.8279C167.8 29.8279 167.237 30.0896 166.89 30.6131C166.543 31.1305 166.37 31.9919 166.37 33.1972V38H163.585V27.7917H165.712L166.087 29.0974H166.242C166.552 28.6043 166.978 28.233 167.52 27.9834C168.068 27.7278 168.689 27.6 169.383 27.6C170.57 27.6 171.471 27.9226 172.086 28.5678C172.7 29.207 173.008 30.1322 173.008 31.3436V38ZM180.102 29.5813C179.512 29.5813 179.049 29.7701 178.715 30.1475C178.38 30.5188 178.188 31.0484 178.139 31.7362H182.047C182.035 31.0484 181.856 30.5188 181.509 30.1475C181.162 29.7701 180.693 29.5813 180.102 29.5813ZM180.495 38.1826C178.852 38.1826 177.567 37.7291 176.642 36.8221C175.717 35.9151 175.254 34.6307 175.254 32.9689C175.254 31.2584 175.68 29.9375 176.532 29.0061C177.391 28.0687 178.575 27.6 180.084 27.6C181.527 27.6 182.65 28.0108 183.454 28.8326C184.257 29.6544 184.659 30.7897 184.659 32.2384V33.5898H178.075C178.106 34.3811 178.34 34.999 178.779 35.4434C179.217 35.8877 179.832 36.1099 180.623 36.1099C181.238 36.1099 181.819 36.046 182.367 35.9182C182.915 35.7903 183.487 35.5864 184.084 35.3064V37.4613C183.597 37.7048 183.076 37.8843 182.522 38C181.968 38.1217 181.293 38.1826 180.495 38.1826Z" fill="#212121"/>
<path fill-rule="evenodd" clip-rule="evenodd" d="M298.094 32.1579C298.623 32.5581 298.623 33.3534 298.094 33.7535L280.601 46.9745C279.943 47.4724 278.998 47.0025 278.998 46.1768V19.7347C278.998 18.9089 279.943 18.439 280.601 18.9369L298.094 32.1579Z" fill="#E22D2D"/>
<rect x="272.521" y="18.4507" width="4.31805" height="42.0648" rx="1.5" fill="#E22D2D"/>
<path d="M128.342 393.062C128.128 393.062 127.897 393.129 127.651 393.262C127.409 393.391 127.182 393.561 126.971 393.771V392.418C127.374 391.992 127.874 391.779 128.471 391.779C128.757 391.779 129.024 391.811 129.274 391.873C129.528 391.936 129.801 392.029 130.094 392.154C130.598 392.369 131.042 392.477 131.425 392.477C131.632 392.477 131.858 392.414 132.104 392.289C132.35 392.164 132.579 391.99 132.79 391.768V393.121C132.395 393.547 131.895 393.76 131.29 393.76C131.032 393.76 130.786 393.734 130.551 393.684C130.317 393.633 130.024 393.535 129.673 393.391C129.161 393.172 128.717 393.062 128.342 393.062ZM139.745 392.09C139.745 393.777 139.389 395.037 138.678 395.869C137.967 396.701 136.891 397.117 135.45 397.117C134.942 397.117 134.557 397.09 134.296 397.035V395.582C134.624 395.664 134.967 395.705 135.327 395.705C135.932 395.705 136.43 395.617 136.821 395.441C137.212 395.262 137.51 394.982 137.717 394.604C137.925 394.221 138.044 393.695 138.075 393.027H138.005C137.778 393.395 137.516 393.652 137.219 393.801C136.923 393.949 136.551 394.023 136.106 394.023C135.36 394.023 134.772 393.785 134.342 393.309C133.913 392.828 133.698 392.162 133.698 391.311C133.698 390.393 133.958 389.668 134.477 389.137C135.001 388.602 135.712 388.334 136.61 388.334C137.243 388.334 137.796 388.482 138.268 388.779C138.745 389.076 139.11 389.508 139.364 390.074C139.618 390.637 139.745 391.309 139.745 392.09ZM136.645 389.787C136.27 389.787 135.977 389.916 135.766 390.174C135.555 390.432 135.45 390.803 135.45 391.287C135.45 391.701 135.546 392.029 135.737 392.271C135.928 392.514 136.219 392.635 136.61 392.635C136.977 392.635 137.292 392.516 137.553 392.277C137.815 392.035 137.946 391.758 137.946 391.445C137.946 390.98 137.823 390.588 137.577 390.268C137.335 389.947 137.024 389.787 136.645 389.787ZM146.589 392.717C146.589 394.213 146.342 395.32 145.85 396.039C145.362 396.758 144.608 397.117 143.589 397.117C142.6 397.117 141.854 396.746 141.35 396.004C140.85 395.262 140.6 394.166 140.6 392.717C140.6 391.205 140.844 390.092 141.333 389.377C141.821 388.658 142.573 388.299 143.589 388.299C144.577 388.299 145.323 388.674 145.827 389.424C146.335 390.174 146.589 391.271 146.589 392.717ZM142.399 392.717C142.399 393.768 142.489 394.521 142.669 394.979C142.852 395.432 143.159 395.658 143.589 395.658C144.01 395.658 144.315 395.428 144.503 394.967C144.69 394.506 144.784 393.756 144.784 392.717C144.784 391.666 144.688 390.912 144.497 390.455C144.309 389.994 144.007 389.764 143.589 389.764C143.163 389.764 142.858 389.994 142.675 390.455C142.491 390.912 142.399 391.666 142.399 392.717ZM152.864 397H151.077V387.883H152.864V397ZM157.458 391.598C157.079 391.598 156.782 391.719 156.567 391.961C156.352 392.199 156.229 392.539 156.198 392.98H158.706C158.698 392.539 158.583 392.199 158.36 391.961C158.137 391.719 157.837 391.598 157.458 391.598ZM157.71 397.117C156.655 397.117 155.831 396.826 155.237 396.244C154.643 395.662 154.346 394.838 154.346 393.771C154.346 392.674 154.62 391.826 155.167 391.229C155.717 390.627 156.477 390.326 157.446 390.326C158.372 390.326 159.092 390.59 159.608 391.117C160.124 391.645 160.382 392.373 160.382 393.303V394.17H156.157C156.176 394.678 156.327 395.074 156.608 395.359C156.889 395.645 157.284 395.787 157.792 395.787C158.186 395.787 158.559 395.746 158.911 395.664C159.262 395.582 159.63 395.451 160.012 395.271V396.654C159.7 396.811 159.366 396.926 159.01 397C158.655 397.078 158.221 397.117 157.71 397.117ZM166.405 395.055C166.405 395.727 166.171 396.238 165.702 396.59C165.237 396.941 164.54 397.117 163.61 397.117C163.133 397.117 162.727 397.084 162.391 397.018C162.055 396.955 161.741 396.861 161.448 396.736V395.26C161.78 395.416 162.153 395.547 162.567 395.652C162.985 395.758 163.352 395.811 163.669 395.811C164.317 395.811 164.641 395.623 164.641 395.248C164.641 395.107 164.598 394.994 164.512 394.908C164.426 394.818 164.278 394.719 164.067 394.609C163.856 394.496 163.575 394.365 163.223 394.217C162.719 394.006 162.348 393.811 162.11 393.631C161.876 393.451 161.704 393.246 161.594 393.016C161.489 392.781 161.436 392.494 161.436 392.154C161.436 391.572 161.661 391.123 162.11 390.807C162.563 390.486 163.204 390.326 164.032 390.326C164.821 390.326 165.589 390.498 166.335 390.842L165.796 392.131C165.467 391.99 165.161 391.875 164.876 391.785C164.591 391.695 164.3 391.65 164.003 391.65C163.475 391.65 163.212 391.793 163.212 392.078C163.212 392.238 163.296 392.377 163.464 392.494C163.635 392.611 164.008 392.785 164.583 393.016C165.094 393.223 165.469 393.416 165.708 393.596C165.946 393.775 166.122 393.982 166.235 394.217C166.348 394.451 166.405 394.73 166.405 395.055ZM172.37 395.055C172.37 395.727 172.135 396.238 171.667 396.59C171.202 396.941 170.505 397.117 169.575 397.117C169.098 397.117 168.692 397.084 168.356 397.018C168.02 396.955 167.706 396.861 167.413 396.736V395.26C167.745 395.416 168.118 395.547 168.532 395.652C168.95 395.758 169.317 395.811 169.633 395.811C170.282 395.811 170.606 395.623 170.606 395.248C170.606 395.107 170.563 394.994 170.477 394.908C170.391 394.818 170.243 394.719 170.032 394.609C169.821 394.496 169.54 394.365 169.188 394.217C168.684 394.006 168.313 393.811 168.075 393.631C167.841 393.451 167.669 393.246 167.559 393.016C167.454 392.781 167.401 392.494 167.401 392.154C167.401 391.572 167.626 391.123 168.075 390.807C168.528 390.486 169.169 390.326 169.997 390.326C170.786 390.326 171.553 390.498 172.3 390.842L171.76 392.131C171.432 391.99 171.126 391.875 170.841 391.785C170.555 391.695 170.264 391.65 169.967 391.65C169.44 391.65 169.176 391.793 169.176 392.078C169.176 392.238 169.26 392.377 169.428 392.494C169.6 392.611 169.973 392.785 170.548 393.016C171.059 393.223 171.434 393.416 171.673 393.596C171.911 393.775 172.087 393.982 172.2 394.217C172.313 394.451 172.37 394.73 172.37 395.055ZM175.188 393.713C175.188 394.361 175.294 394.852 175.505 395.184C175.719 395.516 176.067 395.682 176.548 395.682C177.024 395.682 177.366 395.518 177.573 395.189C177.784 394.857 177.889 394.365 177.889 393.713C177.889 393.064 177.784 392.578 177.573 392.254C177.362 391.93 177.016 391.768 176.536 391.768C176.059 391.768 175.716 391.93 175.505 392.254C175.294 392.574 175.188 393.061 175.188 393.713ZM179.717 393.713C179.717 394.779 179.436 395.613 178.874 396.215C178.311 396.816 177.528 397.117 176.524 397.117C175.895 397.117 175.341 396.98 174.86 396.707C174.38 396.43 174.01 396.033 173.753 395.518C173.495 395.002 173.366 394.4 173.366 393.713C173.366 392.643 173.645 391.811 174.204 391.217C174.762 390.623 175.548 390.326 176.559 390.326C177.188 390.326 177.743 390.463 178.223 390.736C178.704 391.01 179.073 391.402 179.331 391.914C179.589 392.426 179.717 393.025 179.717 393.713ZM187.241 397H185.454V393.174C185.454 392.701 185.37 392.348 185.202 392.113C185.034 391.875 184.766 391.756 184.399 391.756C183.899 391.756 183.538 391.924 183.315 392.26C183.092 392.592 182.981 393.145 182.981 393.918V397H181.194V390.449H182.559L182.8 391.287H182.899C183.098 390.971 183.372 390.732 183.719 390.572C184.071 390.408 184.469 390.326 184.915 390.326C185.676 390.326 186.255 390.533 186.649 390.947C187.044 391.357 187.241 391.951 187.241 392.729V397ZM193.651 395.055C193.651 395.727 193.417 396.238 192.948 396.59C192.483 396.941 191.786 397.117 190.856 397.117C190.38 397.117 189.973 397.084 189.637 397.018C189.301 396.955 188.987 396.861 188.694 396.736V395.26C189.026 395.416 189.399 395.547 189.813 395.652C190.231 395.758 190.598 395.811 190.915 395.811C191.563 395.811 191.887 395.623 191.887 395.248C191.887 395.107 191.844 394.994 191.758 394.908C191.673 394.818 191.524 394.719 191.313 394.609C191.102 394.496 190.821 394.365 190.469 394.217C189.966 394.006 189.594 393.811 189.356 393.631C189.122 393.451 188.95 393.246 188.841 393.016C188.735 392.781 188.682 392.494 188.682 392.154C188.682 391.572 188.907 391.123 189.356 390.807C189.809 390.486 190.45 390.326 191.278 390.326C192.067 390.326 192.835 390.498 193.581 390.842L193.042 392.131C192.714 391.99 192.407 391.875 192.122 391.785C191.837 391.695 191.546 391.65 191.249 391.65C190.721 391.65 190.458 391.793 190.458 392.078C190.458 392.238 190.542 392.377 190.71 392.494C190.882 392.611 191.255 392.785 191.829 393.016C192.341 393.223 192.716 393.416 192.954 393.596C193.192 393.775 193.368 393.982 193.481 394.217C193.594 394.451 193.651 394.73 193.651 395.055Z" fill="#E22D2D"/>
<path d="M303.113 296.062C302.898 296.062 302.668 296.129 302.422 296.262C302.179 296.391 301.953 296.561 301.742 296.771V295.418C302.144 294.992 302.644 294.779 303.242 294.779C303.527 294.779 303.795 294.811 304.045 294.873C304.299 294.936 304.572 295.029 304.865 295.154C305.369 295.369 305.812 295.477 306.195 295.477C306.402 295.477 306.629 295.414 306.875 295.289C307.121 295.164 307.349 294.99 307.56 294.768V296.121C307.166 296.547 306.666 296.76 306.06 296.76C305.802 296.76 305.556 296.734 305.322 296.684C305.088 296.633 304.795 296.535 304.443 296.391C303.931 296.172 303.488 296.062 303.113 296.062ZM313.039 300H311.228V295.043L311.246 294.229L311.275 293.338C310.974 293.639 310.765 293.836 310.648 293.93L309.664 294.721L308.791 293.631L311.55 291.434H313.039V300ZM318.535 294.527C319.363 294.527 320.021 294.76 320.509 295.225C321.002 295.689 321.248 296.326 321.248 297.135C321.248 298.092 320.953 298.828 320.363 299.344C319.773 299.859 318.929 300.117 317.832 300.117C316.879 300.117 316.109 299.963 315.523 299.654V298.09C315.832 298.254 316.191 298.389 316.601 298.494C317.011 298.596 317.4 298.646 317.767 298.646C318.873 298.646 319.425 298.193 319.425 297.287C319.425 296.424 318.853 295.992 317.709 295.992C317.502 295.992 317.273 296.014 317.023 296.057C316.773 296.096 316.57 296.139 316.414 296.186L315.693 295.799L316.015 291.434H320.662V292.969H317.603L317.445 294.65L317.65 294.609C317.888 294.555 318.183 294.527 318.535 294.527ZM328.215 295.717C328.215 297.213 327.968 298.32 327.476 299.039C326.988 299.758 326.234 300.117 325.215 300.117C324.226 300.117 323.48 299.746 322.976 299.004C322.476 298.262 322.226 297.166 322.226 295.717C322.226 294.205 322.47 293.092 322.959 292.377C323.447 291.658 324.199 291.299 325.215 291.299C326.203 291.299 326.949 291.674 327.453 292.424C327.961 293.174 328.215 294.271 328.215 295.717ZM324.025 295.717C324.025 296.768 324.115 297.521 324.295 297.979C324.478 298.432 324.785 298.658 325.215 298.658C325.636 298.658 325.941 298.428 326.129 297.967C326.316 297.506 326.41 296.756 326.41 295.717C326.41 294.666 326.314 293.912 326.123 293.455C325.935 292.994 325.633 292.764 325.215 292.764C324.789 292.764 324.484 292.994 324.3 293.455C324.117 293.912 324.025 294.666 324.025 295.717ZM334.49 300H332.703V290.883H334.49V300ZM339.084 294.598C338.705 294.598 338.408 294.719 338.193 294.961C337.978 295.199 337.855 295.539 337.824 295.98H340.332C340.324 295.539 340.209 295.199 339.986 294.961C339.763 294.719 339.463 294.598 339.084 294.598ZM339.336 300.117C338.281 300.117 337.457 299.826 336.863 299.244C336.269 298.662 335.972 297.838 335.972 296.771C335.972 295.674 336.246 294.826 336.793 294.229C337.343 293.627 338.103 293.326 339.072 293.326C339.998 293.326 340.718 293.59 341.234 294.117C341.75 294.645 342.008 295.373 342.008 296.303V297.17H337.783C337.802 297.678 337.953 298.074 338.234 298.359C338.515 298.645 338.91 298.787 339.418 298.787C339.812 298.787 340.185 298.746 340.537 298.664C340.888 298.582 341.256 298.451 341.638 298.271V299.654C341.326 299.811 340.992 299.926 340.636 300C340.281 300.078 339.847 300.117 339.336 300.117ZM348.031 298.055C348.031 298.727 347.797 299.238 347.328 299.59C346.863 299.941 346.166 300.117 345.236 300.117C344.759 300.117 344.353 300.084 344.017 300.018C343.681 299.955 343.367 299.861 343.074 299.736V298.26C343.406 298.416 343.779 298.547 344.193 298.652C344.611 298.758 344.978 298.811 345.295 298.811C345.943 298.811 346.267 298.623 346.267 298.248C346.267 298.107 346.224 297.994 346.138 297.908C346.052 297.818 345.904 297.719 345.693 297.609C345.482 297.496 345.201 297.365 344.849 297.217C344.345 297.006 343.974 296.811 343.736 296.631C343.502 296.451 343.33 296.246 343.22 296.016C343.115 295.781 343.062 295.494 343.062 295.154C343.062 294.572 343.287 294.123 343.736 293.807C344.189 293.486 344.83 293.326 345.658 293.326C346.447 293.326 347.215 293.498 347.961 293.842L347.422 295.131C347.093 294.99 346.787 294.875 346.502 294.785C346.216 294.695 345.925 294.65 345.629 294.65C345.101 294.65 344.838 294.793 344.838 295.078C344.838 295.238 344.922 295.377 345.09 295.494C345.261 295.611 345.634 295.785 346.209 296.016C346.72 296.223 347.095 296.416 347.334 296.596C347.572 296.775 347.748 296.982 347.861 297.217C347.974 297.451 348.031 297.73 348.031 298.055ZM353.996 298.055C353.996 298.727 353.761 299.238 353.293 299.59C352.828 299.941 352.131 300.117 351.201 300.117C350.724 300.117 350.318 300.084 349.982 300.018C349.646 299.955 349.332 299.861 349.039 299.736V298.26C349.371 298.416 349.744 298.547 350.158 298.652C350.576 298.758 350.943 298.811 351.259 298.811C351.908 298.811 352.232 298.623 352.232 298.248C352.232 298.107 352.189 297.994 352.103 297.908C352.017 297.818 351.869 297.719 351.658 297.609C351.447 297.496 351.166 297.365 350.814 297.217C350.31 297.006 349.939 296.811 349.701 296.631C349.466 296.451 349.295 296.246 349.185 296.016C349.08 295.781 349.027 295.494 349.027 295.154C349.027 294.572 349.252 294.123 349.701 293.807C350.154 293.486 350.795 293.326 351.623 293.326C352.412 293.326 353.179 293.498 353.925 293.842L353.386 295.131C353.058 294.99 352.752 294.875 352.466 294.785C352.181 294.695 351.89 294.65 351.593 294.65C351.066 294.65 350.802 294.793 350.802 295.078C350.802 295.238 350.886 295.377 351.054 295.494C351.226 295.611 351.599 295.785 352.174 296.016C352.685 296.223 353.06 296.416 353.299 296.596C353.537 296.775 353.713 296.982 353.826 297.217C353.939 297.451 353.996 297.73 353.996 298.055ZM356.814 296.713C356.814 297.361 356.92 297.852 357.131 298.184C357.345 298.516 357.693 298.682 358.174 298.682C358.65 298.682 358.992 298.518 359.199 298.189C359.41 297.857 359.515 297.365 359.515 296.713C359.515 296.064 359.41 295.578 359.199 295.254C358.988 294.93 358.642 294.768 358.162 294.768C357.685 294.768 357.341 294.93 357.131 295.254C356.92 295.574 356.814 296.061 356.814 296.713ZM361.343 296.713C361.343 297.779 361.062 298.613 360.5 299.215C359.937 299.816 359.154 300.117 358.15 300.117C357.521 300.117 356.966 299.98 356.486 299.707C356.006 299.43 355.636 299.033 355.379 298.518C355.121 298.002 354.992 297.4 354.992 296.713C354.992 295.643 355.271 294.811 355.83 294.217C356.388 293.623 357.174 293.326 358.185 293.326C358.814 293.326 359.369 293.463 359.849 293.736C360.33 294.01 360.699 294.402 360.957 294.914C361.215 295.426 361.343 296.025 361.343 296.713ZM368.867 300H367.08V296.174C367.08 295.701 366.996 295.348 366.828 295.113C366.66 294.875 366.392 294.756 366.025 294.756C365.525 294.756 365.164 294.924 364.941 295.26C364.718 295.592 364.607 296.145 364.607 296.918V300H362.82V293.449H364.185L364.425 294.287H364.525C364.724 293.971 364.998 293.732 365.345 293.572C365.697 293.408 366.095 293.326 366.541 293.326C367.302 293.326 367.881 293.533 368.275 293.947C368.67 294.357 368.867 294.951 368.867 295.729V300ZM375.277 298.055C375.277 298.727 375.043 299.238 374.574 299.59C374.109 299.941 373.412 300.117 372.482 300.117C372.006 300.117 371.599 300.084 371.263 300.018C370.927 299.955 370.613 299.861 370.32 299.736V298.26C370.652 298.416 371.025 298.547 371.439 298.652C371.857 298.758 372.224 298.811 372.541 298.811C373.189 298.811 373.513 298.623 373.513 298.248C373.513 298.107 373.47 297.994 373.384 297.908C373.299 297.818 373.15 297.719 372.939 297.609C372.728 297.496 372.447 297.365 372.095 297.217C371.591 297.006 371.22 296.811 370.982 296.631C370.748 296.451 370.576 296.246 370.466 296.016C370.361 295.781 370.308 295.494 370.308 295.154C370.308 294.572 370.533 294.123 370.982 293.807C371.435 293.486 372.076 293.326 372.904 293.326C373.693 293.326 374.461 293.498 375.207 293.842L374.668 295.131C374.34 294.99 374.033 294.875 373.748 294.785C373.463 294.695 373.172 294.65 372.875 294.65C372.347 294.65 372.084 294.793 372.084 295.078C372.084 295.238 372.168 295.377 372.336 295.494C372.508 295.611 372.881 295.785 373.455 296.016C373.966 296.223 374.341 296.416 374.58 296.596C374.818 296.775 374.994 296.982 375.107 297.217C375.22 297.451 375.277 297.73 375.277 298.055Z" fill="#E22D2D"/>
<path d="M295.014 158.062C294.799 158.062 294.569 158.129 294.322 158.262C294.08 158.391 293.854 158.561 293.643 158.771V157.418C294.045 156.992 294.545 156.779 295.143 156.779C295.428 156.779 295.696 156.811 295.946 156.873C296.199 156.936 296.473 157.029 296.766 157.154C297.27 157.369 297.713 157.477 298.096 157.477C298.303 157.477 298.53 157.414 298.776 157.289C299.022 157.164 299.25 156.99 299.461 156.768V158.121C299.067 158.547 298.567 158.76 297.961 158.76C297.703 158.76 297.457 158.734 297.223 158.684C296.988 158.633 296.696 158.535 296.344 158.391C295.832 158.172 295.389 158.062 295.014 158.062ZM304.94 162H303.129V157.043L303.147 156.229L303.176 155.338C302.875 155.639 302.666 155.836 302.549 155.93L301.565 156.721L300.692 155.631L303.451 153.434H304.94V162ZM310.436 156.527C311.264 156.527 311.922 156.76 312.41 157.225C312.903 157.689 313.149 158.326 313.149 159.135C313.149 160.092 312.854 160.828 312.264 161.344C311.674 161.859 310.83 162.117 309.733 162.117C308.78 162.117 308.01 161.963 307.424 161.654V160.09C307.733 160.254 308.092 160.389 308.502 160.494C308.912 160.596 309.301 160.646 309.668 160.646C310.774 160.646 311.326 160.193 311.326 159.287C311.326 158.424 310.754 157.992 309.61 157.992C309.403 157.992 309.174 158.014 308.924 158.057C308.674 158.096 308.471 158.139 308.315 158.186L307.594 157.799L307.916 153.434H312.563V154.969H309.504L309.346 156.65L309.551 156.609C309.789 156.555 310.084 156.527 310.436 156.527ZM320.115 157.717C320.115 159.213 319.869 160.32 319.377 161.039C318.889 161.758 318.135 162.117 317.115 162.117C316.127 162.117 315.381 161.746 314.877 161.004C314.377 160.262 314.127 159.166 314.127 157.717C314.127 156.205 314.371 155.092 314.86 154.377C315.348 153.658 316.1 153.299 317.115 153.299C318.104 153.299 318.85 153.674 319.354 154.424C319.862 155.174 320.115 156.271 320.115 157.717ZM315.926 157.717C315.926 158.768 316.016 159.521 316.196 159.979C316.379 160.432 316.686 160.658 317.115 160.658C317.537 160.658 317.842 160.428 318.03 159.967C318.217 159.506 318.311 158.756 318.311 157.717C318.311 156.666 318.215 155.912 318.024 155.455C317.836 154.994 317.533 154.764 317.115 154.764C316.69 154.764 316.385 154.994 316.201 155.455C316.018 155.912 315.926 156.666 315.926 157.717ZM326.391 162H324.604V152.883H326.391V162ZM330.985 156.598C330.606 156.598 330.309 156.719 330.094 156.961C329.879 157.199 329.756 157.539 329.725 157.98H332.233C332.225 157.539 332.11 157.199 331.887 156.961C331.664 156.719 331.363 156.598 330.985 156.598ZM331.237 162.117C330.182 162.117 329.358 161.826 328.764 161.244C328.17 160.662 327.873 159.838 327.873 158.771C327.873 157.674 328.147 156.826 328.694 156.229C329.244 155.627 330.004 155.326 330.973 155.326C331.899 155.326 332.619 155.59 333.135 156.117C333.651 156.645 333.908 157.373 333.908 158.303V159.17H329.684C329.703 159.678 329.854 160.074 330.135 160.359C330.416 160.645 330.811 160.787 331.319 160.787C331.713 160.787 332.086 160.746 332.438 160.664C332.789 160.582 333.156 160.451 333.539 160.271V161.654C333.227 161.811 332.893 161.926 332.537 162C332.182 162.078 331.748 162.117 331.237 162.117ZM339.932 160.055C339.932 160.727 339.697 161.238 339.229 161.59C338.764 161.941 338.067 162.117 337.137 162.117C336.66 162.117 336.254 162.084 335.918 162.018C335.582 161.955 335.268 161.861 334.975 161.736V160.26C335.307 160.416 335.68 160.547 336.094 160.652C336.512 160.758 336.879 160.811 337.196 160.811C337.844 160.811 338.168 160.623 338.168 160.248C338.168 160.107 338.125 159.994 338.039 159.908C337.953 159.818 337.805 159.719 337.594 159.609C337.383 159.496 337.102 159.365 336.75 159.217C336.246 159.006 335.875 158.811 335.637 158.631C335.403 158.451 335.231 158.246 335.121 158.016C335.016 157.781 334.963 157.494 334.963 157.154C334.963 156.572 335.188 156.123 335.637 155.807C336.09 155.486 336.731 155.326 337.559 155.326C338.348 155.326 339.115 155.498 339.862 155.842L339.322 157.131C338.994 156.99 338.688 156.875 338.403 156.785C338.117 156.695 337.826 156.65 337.53 156.65C337.002 156.65 336.738 156.793 336.738 157.078C336.738 157.238 336.822 157.377 336.99 157.494C337.162 157.611 337.535 157.785 338.11 158.016C338.621 158.223 338.996 158.416 339.235 158.596C339.473 158.775 339.649 158.982 339.762 159.217C339.875 159.451 339.932 159.73 339.932 160.055ZM345.897 160.055C345.897 160.727 345.662 161.238 345.194 161.59C344.729 161.941 344.031 162.117 343.102 162.117C342.625 162.117 342.219 162.084 341.883 162.018C341.547 161.955 341.233 161.861 340.94 161.736V160.26C341.272 160.416 341.645 160.547 342.059 160.652C342.477 160.758 342.844 160.811 343.16 160.811C343.809 160.811 344.133 160.623 344.133 160.248C344.133 160.107 344.09 159.994 344.004 159.908C343.918 159.818 343.77 159.719 343.559 159.609C343.348 159.496 343.067 159.365 342.715 159.217C342.211 159.006 341.84 158.811 341.602 158.631C341.367 158.451 341.196 158.246 341.086 158.016C340.981 157.781 340.928 157.494 340.928 157.154C340.928 156.572 341.153 156.123 341.602 155.807C342.055 155.486 342.696 155.326 343.524 155.326C344.313 155.326 345.08 155.498 345.826 155.842L345.287 157.131C344.959 156.99 344.653 156.875 344.367 156.785C344.082 156.695 343.791 156.65 343.494 156.65C342.967 156.65 342.703 156.793 342.703 157.078C342.703 157.238 342.787 157.377 342.955 157.494C343.127 157.611 343.5 157.785 344.074 158.016C344.586 158.223 344.961 158.416 345.199 158.596C345.438 158.775 345.613 158.982 345.727 159.217C345.84 159.451 345.897 159.73 345.897 160.055ZM348.715 158.713C348.715 159.361 348.821 159.852 349.031 160.184C349.246 160.516 349.594 160.682 350.074 160.682C350.551 160.682 350.893 160.518 351.1 160.189C351.311 159.857 351.416 159.365 351.416 158.713C351.416 158.064 351.311 157.578 351.1 157.254C350.889 156.93 350.543 156.768 350.063 156.768C349.586 156.768 349.242 156.93 349.031 157.254C348.821 157.574 348.715 158.061 348.715 158.713ZM353.244 158.713C353.244 159.779 352.963 160.613 352.401 161.215C351.838 161.816 351.055 162.117 350.051 162.117C349.422 162.117 348.867 161.98 348.387 161.707C347.906 161.43 347.537 161.033 347.28 160.518C347.022 160.002 346.893 159.4 346.893 158.713C346.893 157.643 347.172 156.811 347.731 156.217C348.289 155.623 349.074 155.326 350.086 155.326C350.715 155.326 351.27 155.463 351.75 155.736C352.231 156.01 352.6 156.402 352.858 156.914C353.115 157.426 353.244 158.025 353.244 158.713ZM360.768 162H358.981V158.174C358.981 157.701 358.897 157.348 358.729 157.113C358.561 156.875 358.293 156.756 357.926 156.756C357.426 156.756 357.065 156.924 356.842 157.26C356.619 157.592 356.508 158.145 356.508 158.918V162H354.721V155.449H356.086L356.326 156.287H356.426C356.625 155.971 356.899 155.732 357.246 155.572C357.598 155.408 357.996 155.326 358.442 155.326C359.203 155.326 359.781 155.533 360.176 155.947C360.571 156.357 360.768 156.951 360.768 157.729V162ZM367.178 160.055C367.178 160.727 366.944 161.238 366.475 161.59C366.01 161.941 365.313 162.117 364.383 162.117C363.906 162.117 363.5 162.084 363.164 162.018C362.828 161.955 362.514 161.861 362.221 161.736V160.26C362.553 160.416 362.926 160.547 363.34 160.652C363.758 160.758 364.125 160.811 364.442 160.811C365.09 160.811 365.414 160.623 365.414 160.248C365.414 160.107 365.371 159.994 365.285 159.908C365.199 159.818 365.051 159.719 364.84 159.609C364.629 159.496 364.348 159.365 363.996 159.217C363.492 159.006 363.121 158.811 362.883 158.631C362.649 158.451 362.477 158.246 362.367 158.016C362.262 157.781 362.209 157.494 362.209 157.154C362.209 156.572 362.434 156.123 362.883 155.807C363.336 155.486 363.977 155.326 364.805 155.326C365.594 155.326 366.362 155.498 367.108 155.842L366.569 157.131C366.24 156.99 365.934 156.875 365.649 156.785C365.363 156.695 365.072 156.65 364.776 156.65C364.248 156.65 363.985 156.793 363.985 157.078C363.985 157.238 364.069 157.377 364.237 157.494C364.408 157.611 364.781 157.785 365.356 158.016C365.867 158.223 366.242 158.416 366.481 158.596C366.719 158.775 366.895 158.982 367.008 159.217C367.121 159.451 367.178 159.73 367.178 160.055Z" fill="#E22D2D"/>
</g>
<defs>
<clipPath id="clip0">
<rect width="439" height="425" fill="white" transform="translate(12 17)"/>
</clipPath>
</defs>
</svg>
