<svg width="375" height="368" viewBox="0 0 375 368" fill="none" xmlns="http://www.w3.org/2000/svg">
<g clip-path="url(#clip0)">
<path fill-rule="evenodd" clip-rule="evenodd" d="M236.454 135.075L265.333 196.8L193.609 368.421H132.681L236.454 135.075Z" fill="#D2D0D0" stroke="#D2D0D0" stroke-width="5"/>
<path fill-rule="evenodd" clip-rule="evenodd" d="M323.217 79L442 367.818H204.434L323.217 79Z" fill="#D2D0D0" stroke="#D2D0D0" stroke-width="5"/>
<path fill-rule="evenodd" clip-rule="evenodd" d="M236.089 130.252L264.127 196.843C264.127 196.843 256.521 207.647 252.552 204.83C244.394 199.04 239.593 210.445 236.089 210.445C232.671 210.445 227.293 198.062 218.466 204.83C214.479 207.886 208.051 196.843 208.051 196.843L236.089 130.252Z" fill="white" stroke="#D2D0D0" stroke-width="3"/>
<path fill-rule="evenodd" clip-rule="evenodd" d="M322.614 81.4119L350.35 147.56C350.35 147.56 344.335 159.644 340.472 156.671C331.251 149.574 326.08 161.003 322.614 161.003C319.232 161.003 314.925 151.499 309.869 152.889C309.425 153.011 304.264 156.826 303.797 156.772C301.183 156.467 294.877 147.56 294.877 147.56L322.614 81.4119Z" fill="white" stroke="#D2D0D0" stroke-width="3"/>
<path d="M252.975 237.943C252.975 238.91 252.626 239.671 251.928 240.228C251.234 240.785 250.267 241.063 249.027 241.063C247.885 241.063 246.874 240.848 245.995 240.418V238.309C246.718 238.631 247.328 238.858 247.826 238.99C248.329 239.122 248.788 239.188 249.203 239.188C249.701 239.188 250.082 239.093 250.346 238.902C250.614 238.712 250.748 238.429 250.748 238.053C250.748 237.843 250.69 237.657 250.573 237.496C250.455 237.33 250.282 237.171 250.053 237.02C249.828 236.869 249.367 236.627 248.668 236.295C248.014 235.987 247.523 235.692 247.196 235.409C246.869 235.125 246.608 234.796 246.412 234.42C246.217 234.044 246.119 233.604 246.119 233.102C246.119 232.154 246.439 231.41 247.079 230.868C247.723 230.326 248.612 230.055 249.745 230.055C250.302 230.055 250.831 230.121 251.334 230.252C251.842 230.384 252.372 230.57 252.924 230.809L252.191 232.574C251.62 232.34 251.146 232.176 250.77 232.083C250.399 231.991 250.033 231.944 249.672 231.944C249.242 231.944 248.912 232.044 248.683 232.245C248.453 232.445 248.339 232.706 248.339 233.028C248.339 233.229 248.385 233.404 248.478 233.556C248.571 233.702 248.717 233.846 248.917 233.988C249.122 234.125 249.603 234.374 250.36 234.735C251.361 235.213 252.047 235.694 252.418 236.178C252.789 236.656 252.975 237.245 252.975 237.943ZM257.186 235.248H257.933C258.632 235.248 259.154 235.111 259.501 234.837C259.847 234.559 260.021 234.156 260.021 233.629C260.021 233.097 259.874 232.704 259.581 232.45C259.293 232.196 258.839 232.069 258.219 232.069H257.186V235.248ZM262.313 233.548C262.313 234.701 261.952 235.582 261.229 236.192C260.512 236.803 259.489 237.108 258.16 237.108H257.186V240.917H254.916V230.208H258.336C259.635 230.208 260.621 230.489 261.295 231.051C261.974 231.607 262.313 232.44 262.313 233.548ZM270.502 240.917H264.335V230.208H270.502V232.069H266.605V234.42H270.231V236.28H266.605V239.042H270.502V240.917ZM279.298 240.917L278.522 238.368H274.618L273.842 240.917H271.395L275.175 230.165H277.951L281.744 240.917H279.298ZM277.98 236.463C277.262 234.154 276.857 232.848 276.764 232.545C276.676 232.242 276.613 232.003 276.574 231.827C276.412 232.452 275.951 233.998 275.189 236.463H277.98ZM291.713 240.917H289.135L286.329 236.405L285.37 237.093V240.917H283.099V230.208H285.37V235.108L286.264 233.849L289.164 230.208H291.683L287.948 234.947L291.713 240.917ZM223.781 251.944C222.926 251.944 222.264 252.267 221.796 252.911C221.327 253.551 221.093 254.444 221.093 255.592C221.093 257.979 221.989 259.173 223.781 259.173C224.533 259.173 225.443 258.985 226.513 258.609V260.514C225.634 260.88 224.652 261.063 223.568 261.063C222.011 261.063 220.819 260.592 219.994 259.649C219.169 258.702 218.756 257.345 218.756 255.577C218.756 254.464 218.959 253.49 219.364 252.655C219.769 251.815 220.35 251.173 221.107 250.729C221.869 250.279 222.76 250.055 223.781 250.055C224.821 250.055 225.866 250.306 226.915 250.809L226.183 252.655C225.783 252.464 225.38 252.298 224.974 252.157C224.569 252.015 224.171 251.944 223.781 251.944ZM238.517 255.548C238.517 257.32 238.077 258.683 237.199 259.635C236.32 260.587 235.06 261.063 233.419 261.063C231.779 261.063 230.519 260.587 229.64 259.635C228.761 258.683 228.322 257.315 228.322 255.533C228.322 253.751 228.761 252.391 229.64 251.454C230.524 250.511 231.788 250.04 233.434 250.04C235.079 250.04 236.337 250.514 237.206 251.461C238.08 252.408 238.517 253.771 238.517 255.548ZM230.702 255.548C230.702 256.744 230.929 257.645 231.383 258.25C231.837 258.856 232.516 259.159 233.419 259.159C235.231 259.159 236.137 257.955 236.137 255.548C236.137 253.136 235.236 251.93 233.434 251.93C232.531 251.93 231.849 252.235 231.39 252.845C230.931 253.451 230.702 254.352 230.702 255.548ZM250.236 260.917H247.35L242.692 252.816H242.626C242.719 254.247 242.765 255.267 242.765 255.877V260.917H240.736V250.208H243.6L248.251 258.229H248.302C248.229 256.837 248.192 255.853 248.192 255.277V250.208H250.236V260.917ZM255.172 260.917H252.938V250.208H259.076V252.069H255.172V254.83H258.805V256.683H255.172V260.917ZM261.171 260.917V250.208H263.441V260.917H261.171ZM275.021 255.46C275.021 257.223 274.518 258.573 273.512 259.51C272.511 260.448 271.063 260.917 269.169 260.917H266.137V250.208H269.498C271.246 250.208 272.604 250.67 273.571 251.593C274.537 252.516 275.021 253.805 275.021 255.46ZM272.662 255.519C272.662 253.219 271.647 252.069 269.616 252.069H268.407V259.042H269.381C271.569 259.042 272.662 257.867 272.662 255.519ZM283.407 260.917H277.24V250.208H283.407V252.069H279.511V254.42H283.136V256.28H279.511V259.042H283.407V260.917ZM295.148 260.917H292.262L287.604 252.816H287.538C287.631 254.247 287.677 255.267 287.677 255.877V260.917H285.648V250.208H288.512L293.163 258.229H293.214C293.141 256.837 293.104 255.853 293.104 255.277V250.208H295.148V260.917ZM301.981 260.917H299.711V252.098H296.803V250.208H304.889V252.098H301.981V260.917ZM306.537 260.917V250.208H308.807V259.042H313.151V260.917H306.537ZM318.351 254.618L320.585 250.208H323.031L319.479 256.749V260.917H317.223V256.822L313.671 250.208H316.132L318.351 254.618ZM244.603 280.917H242.333V272.098H239.425V270.208H247.511V272.098H244.603V280.917ZM258.878 275.548C258.878 277.32 258.439 278.683 257.56 279.635C256.681 280.587 255.421 281.063 253.781 281.063C252.14 281.063 250.88 280.587 250.001 279.635C249.122 278.683 248.683 277.315 248.683 275.533C248.683 273.751 249.122 272.391 250.001 271.454C250.885 270.511 252.15 270.04 253.795 270.04C255.441 270.04 256.698 270.514 257.567 271.461C258.441 272.408 258.878 273.771 258.878 275.548ZM251.063 275.548C251.063 276.744 251.29 277.645 251.744 278.25C252.199 278.856 252.877 279.159 253.781 279.159C255.592 279.159 256.498 277.955 256.498 275.548C256.498 273.136 255.597 271.93 253.795 271.93C252.892 271.93 252.211 272.235 251.752 272.845C251.293 273.451 251.063 274.352 251.063 275.548ZM267.264 275.248H268.012C268.71 275.248 269.232 275.111 269.579 274.837C269.926 274.559 270.099 274.156 270.099 273.629C270.099 273.097 269.952 272.704 269.66 272.45C269.371 272.196 268.917 272.069 268.297 272.069H267.264V275.248ZM272.391 273.548C272.391 274.701 272.03 275.582 271.307 276.192C270.59 276.803 269.567 277.108 268.239 277.108H267.264V280.917H264.994V270.208H268.414C269.713 270.208 270.7 270.489 271.373 271.051C272.052 271.607 272.391 272.44 272.391 273.548ZM280.58 280.917H274.413V270.208H280.58V272.069H276.683V274.42H280.309V276.28H276.683V279.042H280.58V280.917ZM289.376 280.917L288.6 278.368H284.696L283.92 280.917H281.473L285.253 270.165H288.029L291.823 280.917H289.376ZM288.058 276.463C287.34 274.154 286.935 272.848 286.842 272.545C286.754 272.242 286.691 272.003 286.652 271.827C286.491 272.452 286.029 273.998 285.267 276.463H288.058ZM301.791 280.917H299.213L296.408 276.405L295.448 277.093V280.917H293.178V270.208H295.448V275.108L296.342 273.849L299.242 270.208H301.762L298.026 274.947L301.791 280.917Z" fill="#E22D2D" fill-opacity="0.8583"/>
</g>
<defs>
<clipPath id="clip0">
<rect width="375" height="368" fill="white"/>
</clipPath>
</defs>
</svg>
