<svg viewBox="0 0 375 375" fill="none" xmlns="http://www.w3.org/2000/svg">
    <ellipse cx="187.135" cy="211.492" rx="139.423" ry="139.436" fill="#EAEAFF" />
    <path d="M346.22 251.16h11.479M331.366 251.16h11.478M105.836 154.997h11.478M90.981 154.997h11.479" stroke="#000"
        stroke-width="1.663" />
    <path
        d="M15.602 120.762l2.159 6.644h6.986l-5.652 4.107 2.159 6.645-5.652-4.107-5.652 4.107 2.16-6.645-5.653-4.107h6.986l2.16-6.644zM288.039 352.305l2.159 6.645h6.986l-5.652 4.107 2.159 6.644-5.652-4.106-5.652 4.106 2.159-6.644-5.652-4.107h6.986l2.159-6.645zM312.987 85.83l2.159 6.645h6.986l-5.652 4.107 2.159 6.645-5.652-4.107-5.651 4.107 2.158-6.645-5.651-4.107h6.986l2.158-6.644zM98.193 64.844l1.35 4.153h4.366l-3.533 2.566 1.35 4.153-3.533-2.566-3.532 2.566 1.35-4.153-3.533-2.566h4.366l1.35-4.153z"
        fill="#C2EEDF" />
    <path fill-rule="evenodd" clip-rule="evenodd"
        d="M176.41 133.677v-25.889h-10v25.889c0 19.33 15.67 35 35 35h52.055c12.672 0 22.945 10.273 22.945 22.945s-10.273 22.945-22.945 22.945H126.355c-18.195 0-32.945 14.75-32.945 32.945s14.75 32.945 32.945 32.945H253.465c12.672 0 22.945 10.273 22.945 22.945s-10.273 22.945-22.945 22.945H177.41v10h76.055c18.195 0 32.945-14.75 32.945-32.945 0-17.879-14.242-32.432-32-32.932v-.013H126.355c-12.672 0-22.945-10.273-22.945-22.945s10.273-22.945 22.945-22.945H254.41v-.013c17.758-.5 32-15.053 32-32.932 0-18.195-14.75-32.945-32.945-32.945H201.41c-13.807 0-25-11.192-25-25z"
        fill="#8D98F5" />
    <path
        d="M239.401 91.847v-9.495h2.014v7.832h3.851v1.663h-5.865zm7.281-9.138c0-.645.359-.968 1.078-.968.719 0 1.078.323 1.078.968 0 .307-.091.547-.273.72-.177.17-.446.254-.805.254-.719 0-1.078-.325-1.078-.974zm2.065 9.138h-1.981v-7.261h1.981v7.26zm7.151-2.156c0 .744-.26 1.311-.78 1.701-.515.39-1.288.585-2.318.585-.529 0-.979-.037-1.351-.11a4.97 4.97 0 01-1.046-.313v-1.636c.368.173.782.318 1.241.435.463.117.87.175 1.221.175.718 0 1.078-.208 1.078-.623a.51.51 0 00-.143-.377c-.095-.1-.26-.21-.494-.331-.234-.126-.545-.27-.935-.435-.559-.234-.97-.45-1.234-.65-.26-.199-.45-.426-.571-.682-.117-.26-.176-.578-.176-.954 0-.645.249-1.143.747-1.494.502-.355 1.212-.533 2.13-.533.875 0 1.726.19 2.553.572l-.598 1.429a10.926 10.926 0 00-1.02-.383c-.316-.1-.638-.15-.967-.15-.585 0-.877.158-.877.474 0 .178.093.331.279.461.191.13.604.323 1.241.578.567.23.983.444 1.247.643.264.2.459.429.584.689.126.26.189.57.189.928zm4.604.707c.347 0 .762-.075 1.247-.227v1.474c-.493.221-1.1.332-1.818.332-.793 0-1.371-.2-1.734-.598-.36-.403-.539-1.004-.539-1.805v-3.501h-.949v-.838l1.091-.662.572-1.533h1.266v1.546h2.033v1.487h-2.033v3.5c0 .282.078.49.234.624.16.134.37.201.63.201zm5.728-4.54c-.42 0-.749.135-.987.403-.238.264-.374.641-.409 1.13h2.78c-.009-.489-.137-.866-.383-1.13-.247-.268-.581-.402-1.001-.402zm.28 6.119c-1.169 0-2.083-.323-2.741-.968-.658-.645-.987-1.559-.987-2.74 0-1.218.303-2.157.909-2.82.611-.666 1.453-1 2.526-1 1.027 0 1.825.293 2.397.877.571.585.857 1.392.857 2.423v.96h-4.682c.021.564.188 1.003.5 1.32.311.315.749.473 1.312.473.437 0 .85-.045 1.24-.136.39-.091.797-.236 1.221-.435v1.532c-.346.174-.716.301-1.11.384-.394.086-.875.13-1.442.13zm11.274-.13h-1.981v-4.241c0-.524-.093-.916-.279-1.176-.186-.264-.483-.396-.89-.396-.554 0-.954.186-1.201.559-.247.368-.37.98-.37 1.837v3.417h-1.981v-7.261h1.513l.266.928h.111c.221-.35.524-.614.909-.792.39-.182.831-.273 1.325-.273.844 0 1.485.23 1.922.689.438.454.656 1.112.656 1.974v4.735zm1.955-9.138c0-.645.36-.968 1.078-.968.719 0 1.078.323 1.078.968 0 .307-.091.547-.272.72-.178.17-.446.254-.806.254-.718 0-1.078-.325-1.078-.974zm2.065 9.138h-1.98v-7.261h1.98v7.26zm8.788 0h-1.981v-4.241c0-.524-.093-.916-.279-1.176-.187-.264-.483-.396-.89-.396-.554 0-.955.186-1.202.559-.247.368-.37.98-.37 1.837v3.417h-1.981v-7.261h1.513l.267.928h.11c.221-.35.524-.614.909-.792.39-.182.832-.273 1.325-.273.845 0 1.485.23 1.923.689.437.454.656 1.112.656 1.974v4.735zm8.358-7.261v1.006l-1.136.293c.207.324.311.688.311 1.09 0 .78-.272 1.388-.818 1.826-.541.433-1.295.65-2.26.65l-.357-.02-.293-.033c-.203.156-.305.33-.305.52 0 .286.364.428 1.091.428h1.234c.797 0 1.403.171 1.819.513.42.343.63.845.63 1.507 0 .849-.355 1.507-1.065 1.975-.706.467-1.721.701-3.046.701-1.014 0-1.789-.177-2.325-.532-.533-.351-.799-.845-.799-1.481 0-.438.136-.803.409-1.098.273-.294.673-.504 1.201-.63a1.334 1.334 0 01-.532-.422c-.152-.2-.227-.41-.227-.63 0-.277.08-.507.24-.688.16-.187.392-.368.695-.546a1.965 1.965 0 01-.909-.792c-.221-.364-.332-.793-.332-1.286 0-.793.258-1.405.773-1.838.515-.433 1.251-.65 2.208-.65.204 0 .444.02.721.059.282.034.461.06.539.078h2.533zm-5.605 8.287c0 .273.13.487.39.643.264.156.632.234 1.104.234.71 0 1.267-.098 1.669-.293.403-.194.604-.46.604-.798 0-.273-.119-.462-.357-.566-.238-.103-.606-.155-1.104-.155h-1.026c-.364 0-.669.084-.916.253a.803.803 0 00-.364.682zm.721-5.91c0 .394.089.706.266.935.182.23.457.344.825.344.373 0 .645-.115.819-.344.173-.23.259-.541.259-.935 0-.875-.359-1.312-1.078-1.312-.727 0-1.091.437-1.091 1.312zM177.22 252.887c0 .857-.31 1.533-.929 2.026-.615.494-1.472.741-2.572.741-1.013 0-1.909-.191-2.689-.572v-1.87c.641.286 1.182.487 1.624.604.446.117.853.175 1.221.175.441 0 .779-.084 1.013-.253.238-.169.357-.42.357-.753a.817.817 0 00-.156-.494 1.693 1.693 0 00-.461-.422c-.199-.134-.608-.349-1.227-.643-.58-.273-1.016-.535-1.306-.786a2.956 2.956 0 01-.695-.877c-.173-.333-.259-.723-.259-1.169 0-.84.283-1.5.85-1.981.572-.48 1.36-.721 2.364-.721.494 0 .964.059 1.41.176.45.117.92.281 1.409.493l-.649 1.566a9.56 9.56 0 00-1.26-.436 4.02 4.02 0 00-.975-.123c-.381 0-.673.089-.876.266a.88.88 0 00-.306.695.88.88 0 00.124.468c.082.13.212.257.39.383.181.121.608.342 1.279.663.888.424 1.496.85 1.825 1.279.329.424.494.946.494 1.565zm8.267 2.637h-1.981v-4.241c0-1.048-.389-1.572-1.169-1.572-.554 0-.954.189-1.201.565-.247.377-.37.987-.37 1.832v3.416h-1.981v-10.106h1.981v2.059c0 .16-.016.537-.046 1.13l-.045.585h.104c.441-.71 1.143-1.065 2.104-1.065.853 0 1.5.229 1.942.688.441.459.662 1.117.662 1.974v4.735zm6.651 0l-.384-.987h-.052c-.333.42-.677.712-1.032.877-.351.16-.81.24-1.377.24-.697 0-1.247-.199-1.65-.598-.398-.398-.597-.965-.597-1.701 0-.771.268-1.338.805-1.702.541-.368 1.355-.571 2.442-.61l1.26-.039v-.319c0-.736-.377-1.104-1.13-1.104-.58 0-1.262.176-2.046.526l-.656-1.337c.836-.438 1.762-.656 2.78-.656.974 0 1.721.212 2.241.636.519.424.779 1.07.779 1.935v4.839h-1.383zm-.585-3.364l-.766.026c-.576.017-1.005.121-1.286.311-.282.191-.422.481-.422.871 0 .558.32.838.961.838.459 0 .825-.133 1.097-.397.277-.264.416-.614.416-1.052v-.597zm6.313 3.494c-.853 0-1.524-.331-2.014-.994-.484-.662-.727-1.58-.727-2.754 0-1.19.247-2.117.74-2.779.498-.667 1.182-1 2.053-1 .913 0 1.61.355 2.091 1.065h.065a8.065 8.065 0 01-.149-1.449v-2.325h1.987v10.106h-1.52l-.383-.942h-.084c-.451.715-1.137 1.072-2.059 1.072zm.695-1.578c.506 0 .876-.148 1.11-.442.238-.294.368-.794.39-1.5v-.215c0-.779-.121-1.337-.364-1.675-.238-.338-.628-.507-1.169-.507-.441 0-.786.189-1.032.565-.243.373-.364.916-.364 1.63 0 .715.123 1.252.37 1.611.247.355.6.533 1.059.533zm7.001-2.196c0 .719.117 1.263.351 1.631.238.368.623.552 1.156.552.528 0 .907-.182 1.136-.546.234-.368.351-.913.351-1.637 0-.718-.117-1.257-.351-1.617-.234-.359-.617-.539-1.149-.539-.529 0-.91.18-1.143.539-.234.355-.351.894-.351 1.617zm5.02 0c0 1.182-.312 2.107-.935 2.774-.624.666-1.492 1-2.604 1-.697 0-1.312-.152-1.845-.455a3.064 3.064 0 01-1.227-1.318c-.286-.572-.429-1.239-.429-2.001 0-1.186.31-2.108.929-2.766.619-.658 1.489-.987 2.611-.987.697 0 1.311.151 1.844.454a3.03 3.03 0 011.228 1.306c.285.567.428 1.231.428 1.993zm7.605 3.644l-.558-2.539-.754-3.209h-.045l-1.325 5.748h-2.13l-2.065-7.261h1.974l.838 3.215c.134.576.27 1.37.409 2.383h.039c.017-.329.093-.85.227-1.565l.104-.552.896-3.481h2.182l.851 3.481.078.422a17.687 17.687 0 01.202 1.215c.03.199.047.359.051.48h.039c.039-.311.109-.738.208-1.279.1-.546.171-.914.215-1.104l.87-3.215h1.942l-2.091 7.261h-2.157zm5.339-9.138c0-.645.359-.968 1.078-.968.719 0 1.078.323 1.078.968 0 .307-.091.548-.273.721-.177.169-.446.253-.805.253-.719 0-1.078-.324-1.078-.974zm2.065 9.138h-1.981v-7.261h1.981v7.261zm8.787 0h-1.981v-4.241c0-.524-.093-.916-.279-1.176-.186-.264-.483-.396-.89-.396-.554 0-.954.186-1.201.559-.247.368-.37.98-.37 1.838v3.416h-1.981v-7.261h1.513l.266.929h.111c.221-.351.524-.615.909-.793a3.11 3.11 0 011.325-.272c.844 0 1.485.229 1.922.688.438.455.656 1.113.656 1.974v4.735zm8.359-7.261v1.007l-1.137.292c.208.325.312.688.312 1.091 0 .779-.273 1.388-.818 1.825-.542.433-1.295.649-2.26.649l-.358-.019-.292-.033c-.203.156-.305.33-.305.52 0 .286.364.429 1.091.429h1.234c.797 0 1.403.171 1.818.513.42.342.63.844.63 1.506 0 .849-.355 1.507-1.065 1.975-.705.467-1.721.701-3.046.701-1.013 0-1.788-.177-2.325-.532-.532-.351-.799-.845-.799-1.481 0-.437.137-.803.41-1.098.272-.294.673-.504 1.201-.63a1.327 1.327 0 01-.532-.422 1.022 1.022 0 01-.228-.63 1 1 0 01.241-.688c.16-.186.391-.368.694-.546a1.96 1.96 0 01-.909-.792c-.221-.364-.331-.792-.331-1.286 0-.792.258-1.405.773-1.838.515-.433 1.251-.649 2.208-.649.203 0 .444.019.721.058.281.035.461.061.539.078h2.533zm-5.605 8.287c0 .273.13.487.39.643.264.156.632.234 1.104.234.71 0 1.266-.098 1.669-.292.403-.195.604-.462.604-.799 0-.273-.119-.461-.357-.565-.238-.104-.607-.156-1.104-.156h-1.027c-.363 0-.669.084-.915.253a.8.8 0 00-.364.682zm.721-5.91c0 .394.089.706.266.935.182.23.457.344.825.344.372 0 .645-.114.818-.344.173-.229.26-.541.26-.935 0-.875-.359-1.312-1.078-1.312-.727 0-1.091.437-1.091 1.312zM171.032 192.799c0 1.563-.445 2.76-1.337 3.592-.888.831-2.172 1.247-3.852 1.247h-2.688v-9.495h2.981c1.55 0 2.753.409 3.611 1.227.857.818 1.285 1.961 1.285 3.429zm-2.091.052c0-2.039-.9-3.059-2.702-3.059h-1.071v6.183h.864c1.939 0 2.909-1.041 2.909-3.124zm3.819-4.351c0-.645.359-.968 1.078-.968.719 0 1.078.323 1.078.968 0 .307-.091.548-.273.721-.177.169-.445.253-.805.253-.719 0-1.078-.325-1.078-.974zm2.065 9.138h-1.981v-7.261h1.981v7.261zm5.034.13c-2.26 0-3.391-1.241-3.391-3.722 0-1.234.308-2.175.923-2.825.614-.654 1.496-.981 2.643-.981.84 0 1.593.165 2.26.494l-.584 1.533a9.14 9.14 0 00-.871-.306 2.742 2.742 0 00-.805-.123c-1.031 0-1.546.732-1.546 2.195 0 1.42.515 2.13 1.546 2.13.381 0 .734-.049 1.059-.149.324-.104.649-.264.974-.481v1.696a3.206 3.206 0 01-.974.422c-.325.078-.736.117-1.234.117zm6.955-1.579c.347 0 .762-.075 1.247-.227v1.474c-.493.221-1.099.332-1.818.332-.793 0-1.371-.2-1.734-.598-.36-.403-.539-1.004-.539-1.805v-3.501h-.949v-.838l1.092-.662.571-1.533h1.267v1.546h2.032v1.487h-2.032v3.501c0 .281.077.489.233.623.161.134.371.201.63.201zm7.333 1.449l-.383-.987h-.052c-.334.42-.678.712-1.033.876-.351.16-.81.241-1.377.241-.697 0-1.247-.2-1.65-.598-.398-.398-.597-.965-.597-1.701 0-.771.268-1.338.805-1.702.541-.368 1.355-.572 2.442-.611l1.26-.039v-.318c0-.736-.377-1.104-1.13-1.104-.58 0-1.262.176-2.046.526l-.656-1.338c.836-.437 1.763-.656 2.78-.656.974 0 1.721.213 2.241.637.519.424.779 1.069.779 1.935v4.839h-1.383zm-.585-3.364l-.766.025c-.576.018-1.005.122-1.286.312-.282.191-.422.481-.422.87 0 .559.32.838.961.838.459 0 .825-.132 1.098-.396.277-.264.415-.615.415-1.052v-.597zm7.073 1.915c.346 0 .762-.075 1.247-.227v1.474c-.494.221-1.1.332-1.819.332-.792 0-1.37-.2-1.734-.598-.359-.403-.539-1.004-.539-1.805v-3.501h-.948v-.838l1.091-.662.572-1.533h1.266v1.546h2.033v1.487h-2.033v3.501c0 .281.078.489.234.623.16.134.37.201.63.201zm2.637-7.689c0-.645.359-.968 1.078-.968.718 0 1.078.323 1.078.968 0 .307-.091.548-.273.721-.178.169-.446.253-.805.253-.719 0-1.078-.325-1.078-.974zm2.065 9.138h-1.981v-7.261h1.981v7.261zm3.663-3.644c0 .719.117 1.262.35 1.63.239.368.624.552 1.157.552.528 0 .907-.181 1.136-.545.234-.368.351-.914.351-1.637 0-.718-.117-1.258-.351-1.617-.234-.359-.617-.539-1.149-.539-.529 0-.91.18-1.144.539-.233.355-.35.894-.35 1.617zm5.02 0c0 1.182-.312 2.107-.935 2.773-.624.667-1.492 1.001-2.604 1.001-.698 0-1.312-.152-1.845-.455a3.064 3.064 0 01-1.227-1.318c-.286-.572-.429-1.239-.429-2.001 0-1.186.31-2.108.929-2.766.619-.659 1.489-.988 2.611-.988.697 0 1.311.152 1.844.455.533.303.942.738 1.227 1.305.286.568.429 1.232.429 1.994zm8.339 3.644h-1.981v-4.241c0-.524-.093-.916-.279-1.176-.186-.264-.483-.396-.89-.396-.554 0-.954.186-1.201.559-.247.368-.37.98-.37 1.838v3.416h-1.981v-7.261h1.513l.266.928h.111c.22-.35.524-.614.909-.792.39-.182.831-.273 1.325-.273.844 0 1.485.23 1.922.689.437.454.656 1.113.656 1.974v4.735z"
        fill="#000" />
    <ellipse cx="279.91" cy="177.151" rx="32.5" ry="32.436" fill="#FCCECE" />
    <ellipse cx="116.91" cy="233.041" rx="32.5" ry="32.436" fill="#FCCECE" />
    <ellipse cx="174.91" cy="324.859" rx="32.5" ry="32.436" fill="#FCCECE" />
    <path
        d="M374.135 205.482c0 103.287-83.723 187.018-187 187.018s-187-83.731-187-187.018 83.723-187.018 187-187.018 187 83.731 187 187.018z"
        stroke="#EBEBF3" />
    <path
        d="M354.905 205.483c0 92.665-75.113 167.785-167.77 167.785-92.656 0-167.769-75.12-167.769-167.785 0-92.665 75.113-167.785 167.769-167.785 92.657 0 167.77 75.12 167.77 167.785z"
        stroke="#EBEBF3" />
    <path
        d="M342.885 205.482c0 86.027-69.731 155.765-155.75 155.765-86.018 0-155.75-69.738-155.75-155.765 0-86.027 69.732-155.765 155.75-155.765 86.019 0 155.75 69.738 155.75 155.765z"
        stroke="#EBEBF3" />
    <path
        d="M222.039 54.892c0 30.04-24.349 54.392-54.386 54.392-30.037 0-54.387-24.353-54.387-54.392 0-30.04 24.35-54.392 54.387-54.392s54.386 24.352 54.386 54.392z"
        fill="#fff" stroke="#EBEBF3" />
    <path
        d="M317.41 177.151c0 17.36-14.101 31.436-31.5 31.436s-31.5-14.076-31.5-31.436 14.101-31.436 31.5-31.436 31.5 14.076 31.5 31.436zM145 233.041c0 17.359-14.101 31.436-31.5 31.436S82 250.4 82 233.041c0-17.36 14.101-31.437 31.5-31.437s31.5 14.077 31.5 31.437zM213.41 322.863c0 17.36-14.101 31.436-31.5 31.436s-31.5-14.076-31.5-31.436 14.101-31.436 31.5-31.436 31.5 14.076 31.5 31.436z"
        stroke="#747474" stroke-width="2" />
    <path fill="#E9BBC7"
        d="M202.41 95.811h83v.998h-83zM133.41 259.488h92v.998h-92zM182.41 201.603h79v.998h-79zM76.41 351.307h85v.998h-85z" />
    <path fill="#747474"
        d="M199.41 88.825h36v2.994h-36zM136 252.502h32v2.994h-32zM224.41 194.616h36v2.994h-36zM124.41 344.321h36v2.994h-36z" />
    <path fill-rule="evenodd" clip-rule="evenodd"
        d="M111.186 214.577a8.203 8.203 0 00-8.203 8.203v11.132a8.204 8.204 0 1016.407 0V222.78a8.203 8.203 0 00-8.204-8.203zM100 234.11v-2.414h1v2.414c0 5.513 4.47 9.983 9.983 9.983 5.514 0 9.983-4.47 9.983-9.983v-2.414h1v2.414c0 5.583-4.166 10.193-9.559 10.891v3.069h3.661v2.436h-9.763v-2.436h3.661v-3.024c-5.589-.513-9.966-5.213-9.966-10.936z"
        fill="#403A3A" />
    <rect x="271.41" y="160.683" width="25" height="33.933" rx="1" fill="#403A3A" />
    <rect x="162.41" y="305.398" width="25" height="33.933" rx="1" fill="#403A3A" />
    <path fill="#DC9896" stroke="#E9BBC7" stroke-width=".499"
        d="M166.66 324.61h18.501v.499H166.66zM166.66 327.604h18.501v.499H166.66zM166.66 330.598h18.501v.499H166.66zM274.66 169.915h17.501v.499H274.66zM274.66 175.903h12.501v.499H274.66zM274.66 181.891h9.501v.499h-9.501z" />
    <rect x=".091" y=".341" width="5.434" height="20.25" rx=".75"
        transform="rotate(29.951 -161.53 642.998) skewX(-.098)" fill="#403A3A" stroke="#E9BBC7" stroke-width=".5" />
    <path d="M293.492 187.354l-4.039 2.004-.303-4.491 4.342 2.487z" fill="#403A3A" stroke="#E9BBC7" stroke-width=".5" />
    <path
        d="M179.826 320.396l-.688-2.26h-3.462l-.688 2.26h-2.17l3.352-9.534h2.461l3.364 9.534h-2.169zm-1.169-3.949c-.636-2.048-.996-3.206-1.078-3.474a11.29 11.29 0 01-.169-.637c-.143.554-.552 1.925-1.227 4.111h2.474zM182.696 313.427h-2.514v-1.422h2.514v-2.533h1.422v2.533h2.513v1.422h-2.513v2.501h-1.422v-2.501z"
        fill="#E9BBC7" />
    <path fill="#EBEBF3" d="M241.41 326.356h11v9.98h-11z" />
    <path
        d="M58.953 347.343h-5.468v-9.495h5.468v1.649h-3.455v2.085h3.215v1.65h-3.215v2.448h3.455v1.663zm3.56 0l-2.767-7.261h2.072l1.402 4.137a7.39 7.39 0 01.293 1.487h.039c.021-.416.119-.911.292-1.487l1.396-4.137h2.072l-2.767 7.261h-2.033zm10.456 0l-.383-.987h-.052c-.334.42-.678.712-1.033.876-.35.161-.81.241-1.377.241-.697 0-1.247-.2-1.65-.598-.398-.398-.597-.965-.597-1.701 0-.771.268-1.338.805-1.702.541-.368 1.355-.572 2.442-.61l1.26-.039v-.319c0-.736-.377-1.104-1.13-1.104-.58 0-1.262.176-2.046.526l-.656-1.338c.836-.437 1.763-.656 2.78-.656.974 0 1.721.213 2.24.637.52.424.78 1.069.78 1.935v4.839h-1.383zm-.585-3.364l-.766.026c-.576.017-1.005.121-1.286.311-.281.191-.422.481-.422.871 0 .558.32.837.96.837.46 0 .826-.132 1.099-.396.277-.264.415-.615.415-1.052v-.597zm5.995 3.364h-1.981v-10.106h1.98v10.106zm7.228 0l-.266-.929h-.104c-.212.338-.513.6-.903.786-.39.182-.833.273-1.331.273-.853 0-1.496-.228-1.93-.682-.432-.459-.648-1.117-.648-1.975v-4.734h1.98v4.241c0 .524.093.918.28 1.182.186.26.482.389.89.389.553 0 .954-.184 1.2-.552.248-.372.371-.987.371-1.844v-3.416h1.98v7.261h-1.519zm8.21 0l-.384-.987h-.052c-.333.42-.677.712-1.032.876-.351.161-.81.241-1.377.241-.697 0-1.247-.2-1.65-.598-.398-.398-.597-.965-.597-1.701 0-.771.268-1.338.805-1.702.541-.368 1.355-.572 2.442-.61l1.26-.039v-.319c0-.736-.377-1.104-1.13-1.104-.58 0-1.262.176-2.046.526l-.656-1.338c.836-.437 1.762-.656 2.78-.656.974 0 1.72.213 2.24.637.52.424.78 1.069.78 1.935v4.839h-1.384zm-.585-3.364l-.767.026c-.575.017-1.004.121-1.285.311-.282.191-.423.481-.423.871 0 .558.32.837.962.837.459 0 .824-.132 1.097-.396.277-.264.416-.615.416-1.052v-.597zm7.072 1.915c.347 0 .762-.075 1.247-.227v1.474c-.493.221-1.099.332-1.818.332-.793 0-1.37-.2-1.734-.598-.36-.403-.54-1.004-.54-1.805v-3.501h-.948v-.838l1.092-.662.571-1.533h1.267v1.546h2.032v1.487h-2.032v3.501c0 .281.078.489.233.623.16.134.371.201.63.201zm2.637-7.689c0-.645.36-.968 1.078-.968.719 0 1.078.323 1.078.968 0 .307-.091.548-.272.721-.178.169-.446.253-.806.253-.718 0-1.078-.325-1.078-.974zm2.065 9.138h-1.98v-7.261h1.98v7.261zm3.663-3.644c0 .719.117 1.262.351 1.63.238.368.624.552 1.156.552.528 0 .907-.181 1.137-.545.233-.368.35-.914.35-1.637 0-.718-.117-1.257-.35-1.617-.234-.359-.617-.539-1.15-.539-.528 0-.909.18-1.143.539-.234.355-.351.894-.351 1.617zm5.021 0c0 1.182-.312 2.107-.936 2.773-.623.667-1.491 1.001-2.604 1.001-.697 0-1.312-.152-1.844-.455a3.066 3.066 0 01-1.228-1.318c-.286-.572-.428-1.239-.428-2.001 0-1.186.309-2.108.928-2.766.619-.658 1.49-.988 2.611-.988.697 0 1.312.152 1.845.455.532.303.941.738 1.227 1.305.286.568.429 1.232.429 1.994zm8.339 3.644h-1.981v-4.241c0-.524-.093-.916-.279-1.176-.187-.264-.483-.396-.89-.396-.554 0-.955.186-1.202.559-.246.368-.37.98-.37 1.838v3.416h-1.981v-7.261h1.514l.266.929h.11c.221-.351.524-.615.909-.793.39-.182.832-.273 1.325-.273.845 0 1.485.23 1.923.689.437.454.656 1.113.656 1.974v4.735z"
        fill="#000" />
    <path fill="#EBEBF3"
        d="M242.41 270.467h11v9.98h-11zM203.41 270.467h11v9.98h-11zM125.41 270.467h11v9.98h-11zM160.41 270.467h11v9.98h-11zM160.41 214.577h11v9.98h-11zM202.41 214.577h11v9.98h-11zM242.41 214.577h11v9.98h-11zM202.41 158.687h11v9.98h-11z" />
    <path d="M162.157 102.086l-1.714-16.73 14.935-9.737 9.059 15.48-4.407 10.238-17.873.749z" fill="#614540" />
    <path
        d="M146.837 86.279c-2.437-2.414-7.799-11.102 0-39.096 3.818-3.942 13.307-11.246 20.716-8.929 7.409 2.317 12.348 8.205 13.892 10.86v11.342c.081 1.368.78 4.006 2.924 3.62 2.681-.482 5.118 1.448 5.118 6.516s-4.874 8.93-13.404 6.757l-.244.242-2.193 3.137c-5.118 5.55-9.992 6.275-13.892 6.999-3.87.718-10.48.965-12.917-1.448z"
        fill="#614540" />
    <path
        d="M161 87.827c4.223-1.984 12.609-6.117 14.597-9.687-.58 2.231-2.037 7.14-3.23 8.925-1.192 1.785-7.555 4.929-10.867 6.25l-.5-5.488z"
        fill="#543B37" />
    <ellipse rx="4.528" ry="2.11" transform="matrix(-.94703 -.32115 -.32228 .94664 143.967 62.742)" fill="#865E57" />
    <ellipse rx="4.528" ry="2.11" transform="matrix(-.94703 -.32115 -.32228 .94664 169.327 72.383)" fill="#865E57" />
    <ellipse cx="148.447" cy="56.084" rx="3.157" ry="3.151" fill="#000" />
    <ellipse cx="165.494" cy="60.495" rx="3.788" ry="3.781" fill="#000" />
    <ellipse cx="147.499" cy="55.139" rx=".947" ry=".945" fill="#fff" />
    <ellipse cx="164.232" cy="59.235" rx="1.263" ry="1.26" fill="#fff" />
    <path
        d="M146.552 74.989c-.376 1.103 1.612 3.41 3.98 4.212 2.368.803 7.641-1.849 8.017-2.952.375-1.103-4.289-.239-6.657-1.042-2.368-.803-4.965-1.321-5.34-.218z"
        fill="#000" />
    <path fill-rule="evenodd" clip-rule="evenodd"
        d="M150.133 77.84c-.479-.163-.808-.47-.735-.684.073-.216.521-.258 1-.095.192.065.361.154.489.251.301-.108.793-.082 1.309.093.762.258 1.285.745 1.169 1.087-.117.342-.829.41-1.591.151-.504-.17-.904-.442-1.083-.704a1.741 1.741 0 01-.558-.1z"
        fill="#6B2B2B" />
    <path
        d="M169.562 25.253c-.978.106-11.644-5.718-23.445 8.145-3.157 9.703-.861 13.865 0 14.494 1.076.787 5.599-4.955 10.538-5.041 4.939-.087 11.391.2 15.206 3.4 3.814 3.202 6.506 10.067 6.262 12.354-.245 2.287 1.387 5.098 4.419 5.671 3.032.574 14.538-5.166 16.608-8.34.803-1.232 3.423-9.416.684-16.351-2.739-6.936-8.901-8.977-7.385-8.69 1.516.287 6.064-3.374 9.977-8.322 3.912-4.947 4.116-12.656 1.451-14.39-3.997-2.601-6.831-1.6-8.64-1.554-.636-1.287-4.646-6.276-9.39-4.402-3.795 1.499-5.656 3.566-5.395 4.442 0 0-2.512-2.53-5.29-2.588-2.422-.052-5.273 1.027-7.914 8.549-2.641 7.522 3.292 12.516 2.314 12.623z"
        fill="#000" />
    <path fill-rule="evenodd" clip-rule="evenodd"
        d="M197.178 33.593c1.493 6.764.878 15.065-2.322 23.37h3.201c6.351-17.627 1.964-35.435-10.303-40.487-8.266-3.404-18.087-.184-26.048 7.47h4.537a32.417 32.417 0 012.734-1.967c6.109-3.919 12.394-4.887 17.631-2.73 5.236 2.156 9.009 7.266 10.57 14.344z"
        fill="#E36662" />
    <ellipse rx="10.065" ry="16.758" transform="rotate(29.231 -30.22 391.428) skewX(-.096)" fill="#A64E4B" />
    <ellipse rx="9.467" ry="15.761" transform="rotate(29.231 -31.88 398.033) skewX(-.096)" fill="#C76562" />
    <path
        d="M186 90.322c-4.833 3.16-16.7 9.182-25.5 7.984-2.833-.332-8.9-.798-10.5 0-2 .998-9.835 5.688-6 7.984 5 2.994 13 6.488 31 4.991 13.952-1.161 29-10.48 34.5-18.963-.333-1.164-3.3-4.192-12.5-4.99-9.2-.799-11.166 1.663-11 2.994z"
        fill="#243B65" /></svg>