<svg viewBox="0 0 375 375" fill="none" xmlns="http://www.w3.org/2000/svg">
    <path
        d="M374.5 191.417c0 101.104-83.713 183.083-187 183.083S.5 292.521.5 191.417C.5 90.312 84.213 8.333 187.5 8.333s187 81.98 187 183.084z"
        stroke="#EBEBF3" />
    <path
        d="M355.269 191.417c0 90.705-75.103 164.254-167.769 164.254-92.666 0-167.77-73.549-167.77-164.254 0-90.706 75.104-164.255 167.77-164.255 92.666 0 167.769 73.549 167.769 164.255z"
        stroke="#EBEBF3" />
    <path
        d="M343.25 191.416c0 84.206-69.722 152.487-155.75 152.487S31.75 275.622 31.75 191.416c0-84.205 69.722-152.486 155.75-152.486s155.75 68.281 155.75 152.486z"
        stroke="#EBEBF3" />
    <ellipse cx="187.5" cy="191.417" rx="150.24" ry="147.102" fill="#EAEAFF" />
    <path
        d="M35.394 190.73h-1.968v-7.643h-2.52v-1.637h7.008v1.637h-2.52v7.643zm9.242-9.28h1.987l-3.155 9.28h-2.146l-3.148-9.28h1.987l1.745 5.522c.098.326.197.707.299 1.143.105.431.171.732.196.901.047-.389.206-1.071.476-2.044l1.759-5.522zm12.016 6.703c0 .838-.303 1.498-.908 1.98-.6.483-1.439.724-2.514.724-.99 0-1.866-.186-2.627-.559v-1.828c.626.28 1.155.476 1.587.591a4.75 4.75 0 001.193.171c.431 0 .761-.083.99-.248.233-.165.35-.41.35-.736a.796.796 0 00-.153-.482 1.657 1.657 0 00-.45-.413c-.195-.131-.595-.341-1.2-.628-.568-.267-.993-.523-1.276-.768a2.9 2.9 0 01-.68-.857c-.169-.326-.254-.707-.254-1.143 0-.821.278-1.466.832-1.936.559-.47 1.329-.705 2.31-.705.483 0 .942.058 1.378.172.44.114.9.275 1.377.482l-.634 1.53a9.157 9.157 0 00-1.232-.425 3.887 3.887 0 00-.952-.121c-.372 0-.658.087-.857.26a.86.86 0 00-.298.68c0 .173.04.325.12.457.08.127.208.251.381.374.178.119.595.334 1.25.648.868.414 1.463.831 1.784 1.25.322.415.483.925.483 1.53zm8.08 2.577h-1.936v-4.145c0-1.024-.38-1.536-1.142-1.536-.542 0-.933.184-1.175.552-.24.368-.361.965-.361 1.79v3.339h-1.936v-9.877h1.936v2.012c0 .157-.015.525-.045 1.105l-.044.571h.101c.432-.694 1.118-1.041 2.057-1.041.834 0 1.466.224 1.898.673.432.448.647 1.092.647 1.93v4.627zm3.536-3.561c0 .702.114 1.234.343 1.593.233.36.61.54 1.13.54.516 0 .886-.178 1.11-.533.23-.36.343-.893.343-1.6 0-.703-.114-1.229-.342-1.581-.229-.351-.603-.526-1.124-.526-.516 0-.889.175-1.117.526-.229.347-.343.874-.343 1.581zm4.907 0c0 1.155-.305 2.059-.914 2.71-.61.652-1.458.978-2.546.978-.681 0-1.282-.148-1.802-.444a3 3 0 01-1.2-1.289c-.28-.559-.42-1.21-.42-1.955 0-1.16.303-2.061.909-2.704.605-.643 1.455-.965 2.551-.965.682 0 1.283.148 1.803.444.52.297.92.722 1.2 1.276.28.555.419 1.204.419 1.949zm7.433 3.561l-.546-2.482-.736-3.136h-.045l-1.295 5.618h-2.082l-2.018-7.097h1.93l.818 3.142c.132.563.265 1.34.4 2.33h.038c.017-.322.091-.832.222-1.53l.102-.539.876-3.403h2.133l.831 3.403a131.896 131.896 0 00.184.996c.034.203.064.404.09.603.029.195.046.351.05.47h.038c.038-.305.106-.722.203-1.251.098-.533.167-.892.21-1.079l.85-3.142h1.898l-2.044 7.097h-2.107zm10.251-2.107c0 .727-.253 1.282-.761 1.663-.504.381-1.26.571-2.266.571-.517 0-.957-.036-1.32-.108a4.843 4.843 0 01-1.023-.305v-1.599c.36.169.764.311 1.213.425.453.114.85.171 1.193.171.703 0 1.054-.203 1.054-.609a.498.498 0 00-.14-.368c-.093-.097-.254-.205-.482-.324a11.241 11.241 0 00-.914-.425c-.546-.229-.948-.44-1.206-.635a1.842 1.842 0 01-.56-.666c-.113-.254-.17-.565-.17-.934 0-.63.243-1.117.73-1.459.49-.347 1.184-.521 2.082-.521.854 0 1.686.186 2.494.559l-.584 1.396a10.718 10.718 0 00-.996-.374 3.108 3.108 0 00-.946-.146c-.572 0-.857.154-.857.463 0 .173.09.324.273.451.186.127.59.315 1.212.565.555.224.96.433 1.219.628.258.195.449.419.571.673.123.254.184.556.184.908zM40.707 199.45l-3.46 9.28H35.49l3.46-9.28h1.758zm5.16 9.28l-2.234-7.281h-.057c.08 1.481.12 2.469.12 2.965v4.316h-1.758v-9.28h2.679l2.196 7.096h.038l2.33-7.096h2.678v9.28h-1.834v-4.393c0-.207.002-.446.006-.717.009-.271.038-.99.09-2.158h-.058l-2.393 7.268h-1.803zm9.725-3.561c0 .702.114 1.234.343 1.593.232.36.609.54 1.13.54.516 0 .886-.178 1.11-.533.229-.36.343-.893.343-1.6 0-.703-.114-1.229-.343-1.581-.228-.351-.603-.526-1.123-.526-.517 0-.889.175-1.117.526-.229.347-.343.874-.343 1.581zm4.907 0c0 1.155-.305 2.059-.915 2.71-.609.652-1.457.978-2.545.978-.681 0-1.282-.148-1.803-.444a3 3 0 01-1.2-1.289c-.279-.559-.418-1.21-.418-1.955 0-1.16.302-2.061.907-2.704.605-.643 1.456-.965 2.552-.965.681 0 1.282.148 1.803.444.52.297.92.722 1.2 1.276.279.555.419 1.204.419 1.949zm3.288 3.561l-2.704-7.097h2.024l1.371 4.044c.153.512.248.996.286 1.453h.038c.021-.406.117-.89.286-1.453l1.365-4.044h2.025l-2.705 7.097h-1.986zm5.63-8.931c0-.631.351-.946 1.054-.946.702 0 1.053.315 1.053.946 0 .3-.088.535-.266.704-.174.165-.436.248-.787.248-.703 0-1.054-.317-1.054-.952zm2.019 8.931h-1.937v-7.097h1.937v7.097zm4.976-5.853c-.41 0-.732.132-.965.394-.233.258-.366.626-.4 1.104h2.717c-.008-.478-.133-.846-.374-1.104-.242-.262-.567-.394-.978-.394zm.273 5.98c-1.142 0-2.035-.315-2.679-.946-.643-.63-.965-1.523-.965-2.679 0-1.189.297-2.107.89-2.754.596-.652 1.419-.978 2.468-.978 1.003 0 1.784.286 2.343.857.558.571.838 1.36.838 2.368v.939h-4.577c.021.55.184.98.489 1.289.304.309.732.463 1.282.463.427 0 .832-.044 1.212-.133.381-.089.779-.231 1.194-.426v1.498c-.339.17-.7.295-1.086.375-.385.085-.855.127-1.409.127zm9.42-2.234c0 .727-.254 1.282-.762 1.663-.503.381-1.259.571-2.266.571-.516 0-.956-.036-1.32-.108a4.843 4.843 0 01-1.022-.305v-1.599c.36.169.764.311 1.212.425.453.114.85.171 1.194.171.702 0 1.053-.203 1.053-.609a.498.498 0 00-.14-.368c-.092-.097-.253-.205-.482-.324a11.225 11.225 0 00-.914-.425c-.546-.229-.948-.44-1.206-.635a1.841 1.841 0 01-.558-.666c-.115-.254-.172-.565-.172-.934 0-.63.244-1.117.73-1.459.491-.347 1.185-.521 2.082-.521.855 0 1.686.186 2.495.559l-.584 1.396a10.718 10.718 0 00-.997-.374 3.108 3.108 0 00-.946-.146c-.57 0-.856.154-.856.463 0 .173.09.324.272.451.187.127.59.315 1.213.565.554.224.96.433 1.219.628.258.195.448.419.57.673.124.254.185.556.185.908z"
        fill="#403A3A" />
    <rect x="47.434" y="132.409" width="40.225" height="30.792" rx="4.335" fill="#FCCECE" />
    <rect x="34.867" y="126.831" width="46.536" height="34.787" rx="4.335" stroke="#000" stroke-width="1.734" />
    <rect x="40.718" y="131.127" width="34.103" height="26.194" rx="4.335" stroke="#000" stroke-width="1.734" />
    <path
        d="M48.627 117.004l9.508 9.309M58.135 126.314l6.583-8.593M43.109 161.77h.665m0 0h2.66l-2.328 5.728h-1.33l.998-5.728zM71.7 161.77h-.666m0 0h-2.66l2.328 5.728h1.33l-.998-5.728z"
        stroke="#000" stroke-width="1.734" />
    <path fill="#E9BBC7"
        d="M76.095 246.761h8.261v24.466h-8.261zM92.618 242.311h8.261v28.914h-8.261zM109.141 235.64h9.179v35.587h-9.179z" />
    <path
        d="M66.88 293.065h2.89c1.315 0 2.27.189 2.862.565.597.373.895.967.895 1.784 0 .554-.131 1.009-.394 1.365a1.55 1.55 0 01-1.034.641v.063c.588.132 1.011.377 1.27.737.262.359.393.838.393 1.434 0 .847-.307 1.507-.92 1.981-.61.474-1.44.711-2.489.711h-3.472v-9.281zm1.969 3.676h1.142c.534 0 .919-.083 1.156-.248.24-.165.361-.438.361-.819 0-.355-.13-.609-.393-.761-.258-.157-.669-.235-1.232-.235H68.85v2.063zm0 1.561v2.419h1.282c.542 0 .942-.104 1.2-.311.258-.208.387-.525.387-.952 0-.771-.55-1.156-1.65-1.156h-1.22zm11.641 4.044l-.26-.908h-.102c-.207.33-.501.586-.882.768a3.04 3.04 0 01-1.301.267c-.834 0-1.462-.223-1.885-.667-.424-.448-.635-1.092-.635-1.93v-4.627h1.936v4.145c0 .512.09.897.273 1.155.182.254.472.381.87.381.541 0 .933-.18 1.174-.539.241-.364.362-.965.362-1.803v-3.339h1.936v7.097H80.49zm8.468-2.108c0 .728-.254 1.283-.762 1.663-.503.381-1.259.572-2.266.572-.516 0-.956-.036-1.32-.108a4.905 4.905 0 01-1.022-.305v-1.6c.36.17.764.311 1.212.426.453.114.851.171 1.194.171.702 0 1.053-.203 1.053-.609a.496.496 0 00-.14-.368c-.092-.098-.253-.206-.482-.324a10.895 10.895 0 00-.914-.425c-.546-.229-.948-.441-1.206-.635a1.837 1.837 0 01-.558-.667c-.115-.254-.172-.565-.172-.933 0-.63.244-1.117.73-1.46.491-.347 1.185-.52 2.082-.52.855 0 1.687.186 2.495.558l-.584 1.397a10.752 10.752 0 00-.997-.375 3.14 3.14 0 00-.945-.146c-.572 0-.857.155-.857.464 0 .173.09.323.273.45.186.127.59.316 1.212.565.554.225.96.434 1.219.629.258.194.448.419.571.673.123.253.184.556.184.907zm1.428-6.823c0-.631.352-.946 1.054-.946.703 0 1.054.315 1.054.946 0 .3-.09.535-.267.704-.173.165-.436.248-.787.248-.702 0-1.054-.318-1.054-.952zm2.019 8.931h-1.936v-7.097h1.936v7.097zm8.588 0h-1.936v-4.145c0-.512-.09-.895-.273-1.149-.182-.258-.472-.387-.87-.387-.541 0-.933.182-1.174.545-.24.36-.361.959-.361 1.797v3.339h-1.937v-7.097h1.48l.26.908h.108c.215-.343.512-.601.888-.775.381-.177.813-.266 1.295-.266.825 0 1.452.224 1.879.673.428.444.641 1.087.641 1.929v4.628zm4.932-5.853c-.41 0-.732.131-.964.394-.233.258-.367.626-.4 1.104h2.716c-.008-.478-.133-.846-.374-1.104-.241-.263-.567-.394-.978-.394zm.273 5.98c-1.142 0-2.035-.316-2.678-.946-.644-.631-.965-1.524-.965-2.679 0-1.189.296-2.107.888-2.755.597-.651 1.42-.977 2.47-.977 1.003 0 1.783.285 2.342.857.559.571.838 1.36.838 2.367v.94h-4.577c.021.55.184.979.489 1.288.305.309.732.464 1.282.464.428 0 .832-.045 1.213-.134a6.01 6.01 0 001.193-.425v1.498c-.339.169-.7.294-1.085.375a6.73 6.73 0 01-1.41.127zm9.42-2.235c0 .728-.254 1.283-.761 1.663-.504.381-1.259.572-2.267.572-.516 0-.956-.036-1.32-.108a4.915 4.915 0 01-1.022-.305v-1.6c.36.17.764.311 1.213.426.452.114.85.171 1.193.171.702 0 1.054-.203 1.054-.609a.497.497 0 00-.14-.368c-.093-.098-.254-.206-.482-.324a10.994 10.994 0 00-.915-.425c-.545-.229-.947-.441-1.206-.635a1.84 1.84 0 01-.558-.667c-.114-.254-.172-.565-.172-.933 0-.63.244-1.117.73-1.46.491-.347 1.185-.52 2.082-.52.855 0 1.687.186 2.495.558l-.584 1.397a10.8 10.8 0 00-.996-.375 3.144 3.144 0 00-.946-.146c-.572 0-.857.155-.857.464 0 .173.091.323.273.45.186.127.59.316 1.212.565.554.225.961.434 1.219.629.258.194.448.419.571.673.123.253.184.556.184.907zm6.462 0c0 .728-.254 1.283-.762 1.663-.503.381-1.259.572-2.266.572-.516 0-.956-.036-1.32-.108a4.896 4.896 0 01-1.022-.305v-1.6c.36.17.764.311 1.212.426.453.114.851.171 1.194.171.702 0 1.054-.203 1.054-.609a.497.497 0 00-.14-.368c-.093-.098-.254-.206-.483-.324a10.8 10.8 0 00-.914-.425c-.546-.229-.948-.441-1.206-.635a1.83 1.83 0 01-.558-.667c-.115-.254-.172-.565-.172-.933 0-.63.244-1.117.73-1.46.491-.347 1.185-.52 2.082-.52.855 0 1.687.186 2.495.558l-.584 1.397a10.705 10.705 0 00-.997-.375 3.133 3.133 0 00-.945-.146c-.572 0-.857.155-.857.464 0 .173.091.323.273.45.186.127.59.316 1.212.565.554.225.961.434 1.219.629.258.194.448.419.571.673.123.253.184.556.184.907z"
        fill="#403A3A" />
    <path stroke="#000" stroke-width="1.746"
        d="M73.464 249.066h6.515v22.719h-6.515zM88.818 244.616h6.515v27.168h-6.515zM105.341 237.945h7.433v33.84h-7.433z" />
    <path
        d="M114.544 224.021c.137-.418-.154-.888-.65-1.05l-8.077-2.644c-.496-.163-1.009.044-1.145.462-.137.418.154.888.65 1.05l7.18 2.35-1.98 6.05c-.137.418.154.888.65 1.05.495.162 1.008-.045 1.145-.462l2.227-6.806zm-42.662 17.5l42.225-17.052-.92-1.485-42.224 17.052.92 1.485z"
        fill="#000" />
    <path d="M267.109 251.142c-.252-3.126-.227-10.244 1.891-13.707" stroke="#000" stroke-width=".831" />
    <path
        d="M264.967 295.795c0 .858-.31 1.533-.929 2.027-.615.493-1.472.74-2.572.74-1.013 0-1.909-.19-2.689-.572v-1.87c.641.286 1.182.487 1.624.604.446.117.853.175 1.221.175.442 0 .779-.084 1.013-.253.238-.169.357-.42.357-.753a.825.825 0 00-.155-.494 1.698 1.698 0 00-.462-.422c-.199-.134-.608-.349-1.227-.643-.58-.273-1.015-.535-1.305-.786a2.925 2.925 0 01-.695-.877c-.174-.333-.26-.723-.26-1.169 0-.84.283-1.5.851-1.98.571-.481 1.359-.721 2.364-.721.493 0 .963.058 1.409.175.45.117.92.281 1.409.494l-.649 1.565a9.389 9.389 0 00-1.26-.435 3.972 3.972 0 00-.974-.124c-.381 0-.674.089-.877.267a.875.875 0 00-.305.694c0 .178.041.334.123.468.082.13.212.258.39.383.182.121.608.342 1.279.663.888.424 1.496.85 1.825 1.279.329.424.494.946.494 1.565zm5.553 2.767c-.853 0-1.522-.31-2.007-.929h-.104c.069.606.104.957.104 1.052v2.942h-1.981v-10.456h1.611l.279.942h.091c.463-.719 1.149-1.078 2.059-1.078.857 0 1.528.331 2.013.993.485.663.727 1.583.727 2.761 0 .775-.114 1.448-.344 2.019-.225.572-.548 1.007-.968 1.306-.42.299-.913.448-1.48.448zm-.585-5.943c-.489 0-.846.152-1.071.455-.226.299-.343.795-.351 1.487v.215c0 .779.115 1.338.344 1.675.234.338.602.507 1.104.507.888 0 1.331-.732 1.331-2.195 0-.715-.11-1.249-.331-1.604-.216-.36-.558-.54-1.026-.54zm8.021-.175c-.42 0-.749.134-.987.403-.238.264-.375.641-.409 1.13h2.779c-.008-.489-.136-.866-.383-1.13-.247-.269-.58-.403-1-.403zm.279 6.118c-1.169 0-2.082-.323-2.741-.968-.658-.645-.987-1.558-.987-2.74 0-1.217.303-2.157.91-2.819.61-.667 1.452-1 2.526-1 1.026 0 1.825.292 2.396.877.572.584.858 1.392.858 2.422v.961h-4.683c.022.563.188 1.003.5 1.319.312.316.749.474 1.312.474a5.45 5.45 0 001.241-.137 6.253 6.253 0 001.221-.435v1.533a4.56 4.56 0 01-1.111.383c-.394.087-.875.13-1.442.13zm7.579-6.118c-.42 0-.749.134-.987.403-.238.264-.374.641-.409 1.13h2.78c-.009-.489-.137-.866-.383-1.13-.247-.269-.581-.403-1.001-.403zm.28 6.118c-1.169 0-2.083-.323-2.741-.968-.658-.645-.987-1.558-.987-2.74 0-1.217.303-2.157.909-2.819.61-.667 1.453-1 2.526-1 1.027 0 1.825.292 2.397.877.571.584.857 1.392.857 2.422v.961h-4.682c.021.563.188 1.003.5 1.319.311.316.749.474 1.312.474.437 0 .85-.046 1.24-.137.39-.091.797-.236 1.221-.435v1.533a4.546 4.546 0 01-1.111.383c-.394.087-.874.13-1.441.13zm7.52 0c-2.26 0-3.39-1.24-3.39-3.721 0-1.234.308-2.176.922-2.826.615-.653 1.496-.98 2.644-.98.84 0 1.593.164 2.26.493l-.585 1.533a9.39 9.39 0 00-.87-.305 2.743 2.743 0 00-.805-.124c-1.031 0-1.546.732-1.546 2.196 0 1.42.515 2.13 1.546 2.13.381 0 .734-.05 1.058-.15.325-.103.65-.264.975-.48v1.695a3.21 3.21 0 01-.975.422c-.324.078-.736.117-1.234.117zm10.6-.13h-1.981v-4.241c0-1.048-.39-1.572-1.169-1.572-.555 0-.955.189-1.202.566-.247.376-.37.987-.37 1.831v3.416h-1.981v-10.105h1.981v2.058c0 .161-.015.537-.046 1.13l-.045.585h.104c.442-.71 1.143-1.065 2.104-1.065.853 0 1.5.229 1.942.688.442.459.663 1.117.663 1.975v4.734zm5.046-5.988c-.42 0-.749.134-.987.403-.239.264-.375.641-.41 1.13h2.78c-.009-.489-.136-.866-.383-1.13-.247-.269-.58-.403-1-.403zm.279 6.118c-1.169 0-2.083-.323-2.741-.968-.658-.645-.987-1.558-.987-2.74 0-1.217.303-2.157.909-2.819.611-.667 1.453-1 2.527-1 1.026 0 1.825.292 2.396.877.572.584.858 1.392.858 2.422v.961h-4.683c.022.563.188 1.003.5 1.319.312.316.749.474 1.312.474.437 0 .851-.046 1.24-.137.39-.091.797-.236 1.221-.435v1.533a4.539 4.539 0 01-1.11.383c-.394.087-.875.13-1.442.13zm9.638-2.286c0 .745-.26 1.312-.779 1.702-.516.389-1.288.584-2.319.584-.528 0-.978-.037-1.351-.11a5.039 5.039 0 01-1.045-.312v-1.637c.368.173.781.318 1.24.435.463.117.87.176 1.221.176.719 0 1.078-.208 1.078-.624a.504.504 0 00-.143-.376c-.095-.1-.26-.21-.493-.332-.234-.125-.546-.27-.936-.435-.558-.234-.969-.45-1.234-.649a1.884 1.884 0 01-.571-.682c-.117-.26-.175-.578-.175-.955 0-.645.249-1.143.746-1.494.503-.355 1.213-.532 2.131-.532.874 0 1.725.19 2.552.571l-.597 1.429a11.115 11.115 0 00-1.02-.383 3.19 3.19 0 00-.968-.149c-.584 0-.877.158-.877.474 0 .177.094.331.28.461.19.13.604.322 1.24.578.567.229.983.444 1.247.643.264.199.459.428.585.688.125.26.188.57.188.929z"
        fill="#403A3A" />
    <ellipse cx="295.348" cy="222.109" rx="7.348" ry="7.194" fill="#FCCECE" />
    <path
        d="M293.968 223.808c0 3.895-3.23 7.082-7.251 7.082-4.021 0-7.251-3.187-7.251-7.082s3.23-7.083 7.251-7.083c4.021 0 7.251 3.188 7.251 7.083z"
        stroke="#000" stroke-width="1.663" />
    <path
        d="M309.795 250.163H280.08a1.663 1.663 0 00-1.622 2.029l3.474 15.38a1.663 1.663 0 001.622 1.296H306.9c.8 0 1.486-.569 1.634-1.355l2.895-15.38a1.663 1.663 0 00-1.634-1.97z"
        fill="#FCCECE" />
    <path
        d="M274.333 245.183l1.453-12.605a.8.8 0 01.95-.704c5.142 1.064 7.875 4.164 11.121 3.337 2.998-.765 6.832-2.79 9.074-3.04.365-.041.672.227.753.585l2.767 12.341a.832.832 0 01-.811 1.013h-24.481a.831.831 0 01-.826-.927z"
        stroke="#000" stroke-width="1.663" />
    <rect x="261" y="248.988" width="54.373" height="4.317" rx="2.158" fill="#000" />
    <path
        d="M301.563 250.427h-28.136a1.663 1.663 0 00-1.611 2.074l3.192 12.502a1.663 1.663 0 001.611 1.251h22.284c.785 0 1.463-.549 1.626-1.316l2.66-12.503a1.662 1.662 0 00-1.626-2.008z"
        stroke="#000" stroke-width="1.663" />
    <path
        d="M271.993 238.614c0 .954-.793 1.742-1.789 1.742-.996 0-1.788-.788-1.788-1.742s.792-1.743 1.788-1.743 1.789.789 1.789 1.743z"
        stroke="#000" stroke-width=".831" />
    <path
        d="M281.011 185.703h.662c.619 0 1.082-.121 1.39-.364.307-.246.461-.604.461-1.071 0-.472-.13-.821-.39-1.046-.255-.225-.658-.337-1.208-.337h-.915v2.818zm4.546-1.507c0 1.022-.321 1.804-.961 2.345-.637.541-1.544.812-2.722.812h-.863v3.377h-2.014v-9.495h3.033c1.152 0 2.026.249 2.624.747.602.493.903 1.232.903 2.214zm3.215 2.891c0 .718.116 1.262.35 1.63.238.368.624.552 1.156.552.529 0 .907-.182 1.137-.546.234-.368.351-.913.351-1.636 0-.719-.117-1.258-.351-1.618-.234-.359-.617-.539-1.15-.539-.528 0-.909.18-1.143.539-.234.355-.35.894-.35 1.618zm5.02 0c0 1.182-.312 2.106-.935 2.773-.624.666-1.492 1-2.605 1-.697 0-1.312-.152-1.844-.455a3.066 3.066 0 01-1.228-1.318c-.285-.572-.428-1.238-.428-2 0-1.187.309-2.109.928-2.767.62-.658 1.49-.987 2.611-.987.697 0 1.312.151 1.845.454.532.303.941.738 1.227 1.306.286.567.429 1.231.429 1.994zm5.624 3.773c-.853 0-1.522-.31-2.007-.929h-.104c.07.606.104.957.104 1.052v2.942h-1.981v-10.456h1.611l.279.942h.091c.464-.719 1.15-1.078 2.059-1.078.857 0 1.528.331 2.013.993.485.663.728 1.583.728 2.761 0 .775-.115 1.448-.344 2.019-.226.572-.548 1.007-.968 1.306-.42.298-.914.448-1.481.448zm-.584-5.943c-.49 0-.847.152-1.072.455-.225.299-.342.794-.351 1.487v.215c0 .779.115 1.337.345 1.675.233.338.601.507 1.104.507.887 0 1.331-.732 1.331-2.195 0-.715-.11-1.25-.331-1.605-.217-.359-.559-.539-1.026-.539zm14.229 3.176c0 .857-.309 1.533-.928 2.026-.615.494-1.473.741-2.572.741-1.013 0-1.91-.191-2.689-.572v-1.87c.641.286 1.182.487 1.624.604.446.117.853.175 1.221.175.441 0 .779-.084 1.013-.253.238-.169.357-.42.357-.753a.817.817 0 00-.156-.494 1.708 1.708 0 00-.461-.422c-.199-.134-.608-.349-1.228-.643-.58-.273-1.015-.535-1.305-.786a2.94 2.94 0 01-.695-.877c-.173-.333-.26-.723-.26-1.169 0-.84.284-1.5.851-1.981.572-.48 1.36-.72 2.364-.72.494 0 .964.058 1.409.175.451.117.921.281 1.41.493l-.65 1.566a9.294 9.294 0 00-1.26-.435 3.966 3.966 0 00-.974-.124c-.381 0-.673.089-.877.266a.882.882 0 00-.305.695.87.87 0 00.124.468c.082.13.212.258.389.383.182.121.609.342 1.28.663.887.424 1.496.85 1.825 1.279.329.424.493.946.493 1.565zm3.144-1.006c0 .718.117 1.262.35 1.63.238.368.624.552 1.156.552.529 0 .907-.182 1.137-.546.234-.368.351-.913.351-1.636 0-.719-.117-1.258-.351-1.618-.234-.359-.617-.539-1.15-.539-.528 0-.909.18-1.143.539-.233.355-.35.894-.35 1.618zm5.02 0c0 1.182-.312 2.106-.935 2.773-.624.666-1.492 1-2.605 1-.697 0-1.312-.152-1.844-.455a3.066 3.066 0 01-1.228-1.318c-.285-.572-.428-1.238-.428-2 0-1.187.309-2.109.929-2.767.619-.658 1.489-.987 2.61-.987.697 0 1.312.151 1.845.454.532.303.942.738 1.227 1.306.286.567.429 1.231.429 1.994zm8.339 3.643h-1.981v-4.241c0-.524-.093-.916-.279-1.175-.186-.265-.483-.397-.89-.397-.554 0-.955.187-1.201.559-.247.368-.371.981-.371 1.838v3.416h-1.98v-7.261h1.513l.266.929h.11c.221-.351.524-.615.91-.793a3.107 3.107 0 011.325-.272c.844 0 1.485.229 1.922.688.437.455.656 1.113.656 1.974v4.735zm8.359-7.261v1.007l-1.137.292c.208.325.312.688.312 1.091 0 .779-.273 1.388-.819 1.825-.541.433-1.294.649-2.26.649l-.357-.019-.292-.032c-.204.155-.305.329-.305.519 0 .286.363.429 1.091.429h1.234c.796 0 1.402.171 1.818.513.42.342.63.844.63 1.507 0 .848-.355 1.506-1.065 1.974-.706.468-1.721.701-3.046.701-1.013 0-1.788-.177-2.325-.532-.533-.351-.799-.845-.799-1.481 0-.437.137-.803.409-1.098.273-.294.674-.504 1.202-.63a1.33 1.33 0 01-.533-.422 1.027 1.027 0 01-.227-.63c0-.277.08-.506.24-.688.16-.186.392-.368.695-.546a1.96 1.96 0 01-.909-.792c-.221-.364-.331-.792-.331-1.286 0-.792.257-1.405.773-1.838.515-.433 1.251-.649 2.208-.649.203 0 .443.019.721.058.281.035.461.061.539.078h2.533zm-5.605 8.287c0 .273.13.487.389.643.264.156.632.234 1.104.234.711 0 1.267-.098 1.67-.292.402-.195.604-.461.604-.799 0-.273-.12-.461-.358-.565-.238-.104-.606-.156-1.104-.156h-1.026c-.364 0-.669.084-.916.253a.802.802 0 00-.363.682zm.721-5.91c0 .394.088.706.266.935.182.23.457.344.825.344.372 0 .645-.114.818-.344.173-.229.26-.541.26-.935 0-.875-.36-1.312-1.078-1.312-.728 0-1.091.437-1.091 1.312zm11.151 2.728c0 .744-.26 1.312-.78 1.701-.515.39-1.288.585-2.318.585-.528 0-.979-.037-1.351-.111a5.004 5.004 0 01-1.046-.311v-1.637c.368.173.782.318 1.241.435.463.117.87.176 1.221.176.719 0 1.078-.208 1.078-.624a.512.512 0 00-.143-.377c-.095-.099-.26-.21-.494-.331a11.68 11.68 0 00-.935-.435c-.558-.234-.97-.45-1.234-.649-.26-.2-.45-.427-.571-.682-.117-.26-.176-.578-.176-.955 0-.645.249-1.143.747-1.494.502-.355 1.213-.532 2.13-.532.875 0 1.726.19 2.553.571l-.598 1.429a10.714 10.714 0 00-1.019-.383c-.316-.1-.639-.15-.968-.15-.585 0-.877.158-.877.475 0 .177.093.331.279.461.191.13.604.322 1.241.578.567.229.983.443 1.247.643.264.199.459.428.584.688.126.26.189.569.189.929z"
        fill="#403A3A" />
    <path d="M338.136 117.004l-44.103 7.35v6.93l44.103-6.93v-7.35z" fill="#FCCECE" />
    <ellipse cx="292.53" cy="159.367" rx="7.518" ry="7.14" fill="#FCCECE" />
    <ellipse cx="335.63" cy="149.847" rx="7.518" ry="7.14" fill="#FCCECE" />
    <path
        d="M340.142 120.339l-44.102 7.35v6.93l44.102-6.93v-7.35zM296.04 127.955v32.368M340.142 124.146v20.944M296.211 159.371c0 4.233-3.626 7.737-8.19 7.737s-8.19-3.504-8.19-7.737c0-4.233 3.626-7.736 8.19-7.736s8.19 3.503 8.19 7.736z"
        stroke="#000" stroke-width="1.663" />
    <mask id="prefix__a" fill="#fff">
        <path
            d="M340.022 151.8a8.17 8.17 0 01-2.474 4.011 8.864 8.864 0 01-4.364 2.104 9.11 9.11 0 01-4.869-.471 8.612 8.612 0 01-3.828-2.895 7.979 7.979 0 01-1.573-4.402 7.93 7.93 0 011.182-4.511 8.526 8.526 0 013.562-3.188 9.094 9.094 0 014.811-.853l-.195 1.827a7.06 7.06 0 00-3.74.663 6.627 6.627 0 00-2.769 2.479 6.159 6.159 0 00-.919 3.507 6.21 6.21 0 001.222 3.422 6.707 6.707 0 002.977 2.251 7.087 7.087 0 003.785.366 6.884 6.884 0 003.393-1.636 6.348 6.348 0 001.923-3.118l1.876.444z" />
    </mask>
    <path
        d="M340.022 151.8a8.17 8.17 0 01-2.474 4.011 8.864 8.864 0 01-4.364 2.104 9.11 9.11 0 01-4.869-.471 8.612 8.612 0 01-3.828-2.895 7.979 7.979 0 01-1.573-4.402 7.93 7.93 0 011.182-4.511 8.526 8.526 0 013.562-3.188 9.094 9.094 0 014.811-.853l-.195 1.827a7.06 7.06 0 00-3.74.663 6.627 6.627 0 00-2.769 2.479 6.159 6.159 0 00-.919 3.507 6.21 6.21 0 001.222 3.422 6.707 6.707 0 002.977 2.251 7.087 7.087 0 003.785.366 6.884 6.884 0 003.393-1.636 6.348 6.348 0 001.923-3.118l1.876.444z"
        stroke="#000" stroke-width="3.325" mask="url(#prefix__a)" />
    <path
        d="M117.124 99.672h-2.559l-4.13-7.183h-.059c.083 1.269.124 2.174.124 2.715v4.468h-1.799v-9.495h2.539l4.124 7.112h.046a57.746 57.746 0 01-.098-2.618v-4.494h1.812v9.495zm5.248-5.988c-.42 0-.749.135-.987.403-.238.264-.375.64-.409 1.13h2.779c-.008-.49-.136-.866-.383-1.13-.247-.268-.58-.403-1-.403zm.279 6.118c-1.169 0-2.082-.322-2.741-.967-.658-.646-.987-1.56-.987-2.741 0-1.217.303-2.156.909-2.819.611-.667 1.453-1 2.527-1 1.026 0 1.825.292 2.396.877.572.584.858 1.392.858 2.422v.962h-4.683c.022.562.188 1.002.5 1.318.312.316.749.474 1.312.474.437 0 .851-.046 1.241-.136a6.21 6.21 0 001.22-.435v1.532c-.346.173-.716.301-1.11.383-.394.087-.875.13-1.442.13zm10.541-.13l-.559-2.539-.753-3.208h-.046l-1.324 5.747h-2.131l-2.065-7.26h1.974l.838 3.214c.134.576.271 1.37.409 2.384h.039c.018-.33.093-.851.228-1.565l.104-.552.896-3.482h2.182l.851 3.481.078.423a15.667 15.667 0 01.201 1.215c.03.198.048.358.052.48h.039c.039-.312.108-.739.208-1.28.099-.545.171-.913.214-1.104l.87-3.215h1.942l-2.091 7.261h-2.156zm10.489-2.156c0 .745-.26 1.312-.78 1.702-.515.39-1.288.584-2.318.584-.529 0-.979-.037-1.351-.11a4.964 4.964 0 01-1.046-.312v-1.636c.368.173.782.318 1.241.435.463.117.87.175 1.221.175.718 0 1.078-.208 1.078-.623a.51.51 0 00-.143-.377c-.095-.1-.26-.21-.494-.331-.234-.126-.545-.271-.935-.436-.559-.233-.97-.45-1.234-.649-.26-.2-.45-.427-.571-.682-.117-.26-.176-.578-.176-.955 0-.645.249-1.143.747-1.493.502-.355 1.212-.533 2.13-.533.875 0 1.726.19 2.553.572l-.598 1.428a10.926 10.926 0 00-1.02-.383c-.316-.1-.638-.15-.967-.15-.585 0-.877.159-.877.475 0 .177.093.331.279.461.191.13.604.323 1.241.578.567.23.983.444 1.247.643.264.2.459.429.584.688.126.26.189.57.189.93z"
        fill="#403A3A" />
    <rect x="104.768" y="45.856" width="50.49" height="31.372" rx="3.325" fill="#FCCECE" />
    <rect x="100.715" y="41.465" width="47.856" height="30.66" rx=".831" stroke="#000" stroke-width="1.663" />
    <path stroke="#000" stroke-width="1.663"
        d="M106.541 46.218h14.844v15.45h-14.844zM127.071 46.337h16.506M127.071 51.09h16.506M127.071 56.794h16.506M127.071 62.498h16.506M101.826 47.288H96l.324 23.25c0 .664 2.395 2.523 5.502.664" />
    <path
        d="M231.263 94.34h3.767v4.923c-.61.2-1.186.338-1.727.416a10.89 10.89 0 01-1.65.123c-1.433 0-2.529-.42-3.286-1.26-.754-.844-1.13-2.054-1.13-3.63 0-1.533.437-2.728 1.312-3.585.879-.858 2.095-1.286 3.65-1.286.974 0 1.913.195 2.818.584l-.669 1.611a4.775 4.775 0 00-2.162-.52c-.871 0-1.568.293-2.092.877-.524.585-.786 1.37-.786 2.358 0 1.03.21 1.818.63 2.364.425.541 1.04.812 1.845.812.42 0 .846-.044 1.279-.13v-1.981h-1.799V94.34zm8.885-.656c-.42 0-.749.135-.987.403-.238.264-.375.64-.409 1.13h2.779c-.008-.49-.136-.866-.383-1.13-.247-.268-.58-.403-1-.403zm.279 6.118c-1.169 0-2.082-.322-2.741-.967-.658-.646-.987-1.56-.987-2.741 0-1.217.303-2.156.91-2.819.61-.667 1.452-1 2.526-1 1.026 0 1.825.292 2.396.877.572.584.858 1.392.858 2.422v.962h-4.683c.022.562.188 1.002.5 1.318.312.316.749.474 1.312.474.437 0 .851-.046 1.241-.136a6.24 6.24 0 001.221-.435v1.532c-.347.173-.717.301-1.111.383-.394.087-.875.13-1.442.13zm11.275-.13h-1.981v-4.24c0-.525-.093-.916-.279-1.176-.187-.264-.483-.396-.89-.396-.554 0-.955.186-1.202.558-.246.368-.37.98-.37 1.838v3.416h-1.981v-7.26h1.514l.266.928h.11c.221-.35.524-.615.91-.792a3.094 3.094 0 011.324-.273c.845 0 1.486.23 1.923.688.437.455.656 1.113.656 1.975v4.734zm5.046-5.988c-.42 0-.749.135-.987.403-.238.264-.375.64-.409 1.13h2.779c-.008-.49-.136-.866-.383-1.13-.247-.268-.58-.403-1-.403zm.279 6.118c-1.169 0-2.082-.322-2.74-.967-.659-.646-.988-1.56-.988-2.741 0-1.217.304-2.156.91-2.819.61-.667 1.452-1 2.526-1 1.026 0 1.825.292 2.397.877.571.584.857 1.392.857 2.422v.962h-4.683c.022.562.189 1.002.5 1.318.312.316.749.474 1.312.474a5.45 5.45 0 001.241-.136 6.24 6.24 0 001.221-.435v1.532c-.347.173-.717.301-1.111.383-.394.087-.874.13-1.442.13zm8.625-7.527c.269 0 .492.02.669.058l-.149 1.858a2.275 2.275 0 00-.585-.065c-.632 0-1.126.162-1.481.487-.35.325-.526.78-.526 1.364v3.695h-1.981v-7.26h1.501l.292 1.22h.097c.226-.407.529-.734.91-.98a2.25 2.25 0 011.253-.377zm6.599 7.397l-.384-.987h-.052c-.333.42-.677.712-1.032.877-.351.16-.81.24-1.377.24-.697 0-1.247-.199-1.65-.597-.398-.399-.597-.966-.597-1.702 0-.77.268-1.338.805-1.701.541-.368 1.355-.572 2.442-.61l1.26-.04v-.318c0-.736-.377-1.104-1.13-1.104-.58 0-1.262.175-2.046.526l-.656-1.338c.836-.437 1.762-.656 2.78-.656.974 0 1.721.212 2.241.636.519.425.779 1.07.779 1.936v4.838h-1.383zm-.585-3.364l-.766.026c-.576.017-1.005.121-1.286.312-.282.19-.422.48-.422.87 0 .559.32.838.961.838.459 0 .825-.132 1.097-.396.278-.264.416-.615.416-1.052v-.598zm5.995 3.364h-1.981V89.567h1.981v10.105z"
        fill="#403A3A" />
    <rect x="237.91" y="45.253" width="37.998" height="27.058" rx="1.663" fill="#FCCECE" />
    <path
        d="M267.167 41.612h-36.336a.831.831 0 00-.831.832v24.66c0 .468.385.844.853.832l3.263-.084a.832.832 0 01.833 1.012l-2.21 9.876c-.191.857.905 1.387 1.458.704l5.302-6.546 2.929-4.558a.832.832 0 01.7-.382h24.039a.831.831 0 00.831-.831V42.444a.831.831 0 00-.831-.832z"
        stroke="#000" stroke-width="1.663" />
    <ellipse cx="242.09" cy="55.141" rx="1.727" ry="1.691" fill="#000" />
    <ellipse cx="250.726" cy="55.141" rx="1.727" ry="1.691" fill="#000" />
    <ellipse cx="259.362" cy="55.141" rx="1.727" ry="1.691" fill="#000" />
    <path d="M189.599 176.876l1.202-11.26-10.471-6.554-6.351 10.42 3.09 6.89 12.53.504z" fill="#A67A71" />
    <path d="M169 170.977l5-1.468 15 3.427 10.5 3.427-1.5 2.447-21.5-.979-7.5-6.854z" fill="#A67A71" />
    <path
        d="M190.471 167.755c-2.918-1.344-9.098-4.638-10.471-7.058.401 1.512 1.408 4.84 2.231 6.05.824 1.21 5.608 3.305 7.896 4.202l.344-3.194z"
        fill="#83635D" />
    <path
        d="M200.754 166.598c1.716-1.681 5.492-7.731 0-27.226-2.69-2.745-9.373-7.832-14.591-6.219-5.218 1.614-8.697 5.714-9.784 7.563v7.899c-.057.953-.549 2.79-2.06 2.521-1.888-.336-3.604 1.009-3.604 4.538 0 3.529 3.433 6.218 9.441 4.706l.171.168 1.545 2.185c3.605 3.865 7.038 4.369 9.784 4.873 2.726.501 7.381.673 9.098-1.008z"
        fill="#AC7F76" />
    <ellipse rx="3.153" ry="1.447" transform="matrix(.94887 -.31567 .32785 .94473 202.352 150.083)" fill="#D6A59C" />
    <ellipse rx="3.153" ry="1.447" transform="matrix(.94887 -.31567 .32785 .94473 184.659 156.682)" fill="#D6A59C" />
    <ellipse rx="2.106" ry="2.062" transform="matrix(-1 0 0 1 199.078 145.659)" fill="#000" />
    <ellipse rx="2.106" ry="2.062" transform="matrix(-1 0 0 1 186.441 149.371)" fill="#000" />
    <path
        d="M201 156.781c.262.755-1.348 6.304-3 6.854-1.652.549-5.238-3.652-5.5-4.406-.262-.755 2.671-.063 4.324-.613 1.652-.55 3.914-2.59 4.176-1.835z"
        fill="#000" />
    <path fill-rule="evenodd" clip-rule="evenodd"
        d="M198.267 161.298c.334-.112.564-.321.513-.468-.052-.147-.364-.176-.698-.065a1.241 1.241 0 00-.342.171c-.21-.073-.553-.055-.913.064-.531.177-.897.51-.815.744.081.234.578.281 1.109.104.352-.117.631-.303.756-.483.115.001.25-.021.39-.067z"
        fill="#6B2B2B" />
    <rect width="14.489" height="26.532" rx="3" transform="matrix(.95906 -.28322 .2944 .95569 214 170.774)"
        fill="#242323" />
    <path transform="matrix(.2944 .95569 -.95906 .28322 224.738 167.603)" stroke="#000" stroke-width="5"
        stroke-linecap="round" stroke-linejoin="round" d="M2.5-2.5h21.532" />
    <ellipse rx="2.087" ry="1.758" transform="matrix(-.95906 .28322 .2944 .95569 228.495 185.321)" fill="#AC7F76" />
    <ellipse rx="2.087" ry="1.758" transform="matrix(-.95906 .28322 .2944 .95569 229.185 187.561)" fill="#AC7F76" />
    <ellipse rx="2.087" ry="1.758" transform="matrix(-.95906 .28322 .2944 .95569 230.446 189.633)" fill="#AC7F76" />
    <ellipse rx="2.087" ry="1.758" transform="matrix(-.95906 .28322 .2944 .95569 231.136 191.873)" fill="#AC7F76" />
    <path
        d="M236.53 182.031c.643 1.276 3.47 11.603 4.69 17.251l-11.613 2.818c-.422-1.709-2.446-6.034-1.87-7.085v-.001c.126-.231.2-.364.772-.533l.771-.533.886-1.178-2.189-9.13 4.576-1.351-.663-3.165c.191-.056.836-.124 1.889.053 1.316.223 1.947 1.258 2.751 2.854z"
        fill="#AC7F76" />
    <path fill-rule="evenodd" clip-rule="evenodd"
        d="M163.479 143.979c-1-3.423-2.419-8.284 6.021-13.145-.333-2.122-.3-7.246 2.5-10.77 3.5-4.406 11-3.427 22.5-.979 9.389 1.998 12 3.263 10.5 3.916-.327 0-1.013-.226-1.847-.501-1.291-.425-2.938-.968-4.153-.968-.741 0-1.872.202-3.112.456.198.009.402.02.612.034 6 .392 9.833 3.427 11 4.895-1.167-.652-4-1.566-6 0a1.595 1.595 0 01-.78.348c2.697 2.376 7.115 4.881 10.28 5.527-.775 1.012-2.633 2.868-4.919 3.833l1.919 1.063c-.667.816-2.7 2.643-5.5 3.427-2.8.783-6.5.326-8 0-2.833-.98-8.4-2.546-8-.98.4 1.567 3.5 2.285 5 2.448-1.995.926-5.923 2.046-10.257 1.767l-4.743 8.514c-.295-.722-.634-1.206-.964-1.549l-.036.08c-2-.489-3.7-.391-4.5 1.958-.8 2.35 0 4.733 1 5.875l-4.5-2.937c-1.5-.979-1.5-1.958-1-5.385.086-.589.158-1.053.218-1.415-.237.364-.621.83-1.218 1.415-1.6 1.566-2.333 1.305-2.5.979.5-1.469 1.3-5.092.5-7.833l-.021-.073z"
        fill="#301F1F" />
    <path d="M194 315.396c-1.833-3.263-2.5-10.868-6.5-17.134L173 282.107l14.5-27.416h29l13.5 60.705h-36z"
        fill="#1E2D47" />
    <path
        d="M147.5 315.886c-.833-6.527-2-23.792 0-40.633l4.5-16.155h47v16.155c-4.167 3.101-12.9 10.966-14.5 17.624-1.6 6.658-3.667 18.114-4.5 23.009h-32.5z"
        fill="#243B65" />
    <path d="M152.5 281.617c-.167-.163-.7-1.664-1.5-6.364l10.5-2.938 4 1.469-13 7.833z" fill="#AC7F76" />
    <path fill-rule="evenodd" clip-rule="evenodd"
        d="M171 169.509c6 5.874 18.833 6.038 24.5 5.385 4.833-1.632 15.4-3.133 19 3.916 2.467 4.83 8.204 15.912 13.126 25.402.503-.905.973-1.72 1.374-2.392l11.5-6.365c1.833 6.365 3.7 22.128-3.5 34.269l-5 .979-2.031-.331c-4.034-.476-8.983-3.116-11.969-7.502a455.1 455.1 0 01-2.499-3.71c.19.919.369 1.815.534 2.677.775 4.05 1.052 11.257 1.339 18.708.36 9.352.735 19.089 2.126 23.448l-60.05-1.389c1.368 4.058 2.6 7.748 3.05 10.201l-11 3.427c-5.167-5.711-15.5-19.484-15.5-28.884 0-11.714.994-33.16 13.388-57.061a84.88 84.88 0 001.612-5.602c2-7.833 14.167-13.381 20-15.176z"
        fill="#E22D2D" />
    <path
        d="M230 228.256c-1.5-.49-7-6.854-7-11.75.5.49 1.6 1.665 2 2.448.5.979 7 6.364 9.5 6.364 2 0 3.833-.652 4.5-.979-.5 1.958-2.1 5.777-4.5 5.385-3-.489-3-.979-4.5-1.468zM173.642 263.014c-3.667-10.118-11.1-36.325-11.5-56.299-3.5 10.117-10.2 32.115-9 39.164 1.2 7.05 4.5 14.034 6 16.645l14.5.49z"
        fill="#BE2121" />
    <path d="M151 282.107l17-9.792v2.448l-16 10.77-1-3.426z" fill="#1E2D47" />
    <path stroke="#000" stroke-width="4" d="M88 316.701h201" />
    <ellipse cx="51" cy="36.227" rx="37" ry="36.227" fill="#EAEAFF" />
    <path
        d="M80.5 46.018c0 19.722-16.332 35.727-36.5 35.727S7.5 65.74 7.5 46.018c0-19.721 16.332-35.727 36.5-35.727s36.5 16.006 36.5 35.727z"
        stroke="#EBEBF3" />
</svg>