<svg width="291" height="287" fill="none" xmlns="http://www.w3.org/2000/svg">
    <ellipse cx="147.469" cy="147.965" rx="106.5" ry="107" fill="#EAEAFF" />
    <path
        d="M290.437 143.482c0 78.967-64.009 142.983-142.968 142.983-78.96 0-142.969-64.016-142.969-142.983S68.51.5 147.469.5c78.959 0 142.968 64.015 142.968 142.982z"
        stroke="#EBEBF3" />
    <path
        d="M275.723 143.483c0 70.839-57.422 128.266-128.254 128.266-70.833 0-128.254-57.427-128.254-128.266 0-70.84 57.421-128.266 128.254-128.266 70.832 0 128.254 57.427 128.254 128.266z"
        stroke="#EBEBF3" />
    <path
        d="M266.526 143.483c0 65.759-53.304 119.068-119.057 119.068-65.754 0-119.057-53.309-119.057-119.068 0-65.76 53.303-119.069 119.057-119.069 65.753 0 119.057 53.309 119.057 119.069z"
        stroke="#EBEBF3" />
    <path fill-rule="evenodd" clip-rule="evenodd"
        d="M95 129.251c0-5.957 4.83-10.787 10.787-10.787h89.665c5.958 0 10.787 4.83 10.787 10.787v57.979c0 5.958-4.829 10.787-10.787 10.787h-89.665c-5.958 0-10.787-4.829-10.787-10.787v-57.979zm57.979 31.991c5.267-1.271 9.179-6.014 9.179-11.671 0-6.63-5.375-12.005-12.005-12.005-6.631 0-12.006 5.375-12.006 12.005 0 5.75 4.042 10.555 9.439 11.731v18.063a2.697 2.697 0 005.393 0v-18.123z"
        fill="#4870B8" />
    <path fill-rule="evenodd" clip-rule="evenodd"
        d="M151.057 81C131.696 81 116 96.696 116 116.057v4.27h15.357v-4.249c0-11.052 8.96-20.012 20.012-20.012 11.053 0 20.012 8.96 20.012 20.012v4.249h14.733v-4.27c0-19.361-15.695-35.057-35.057-35.057z"
        fill="#4870B8" />
    <rect x="151" y="176" width="9" height="2" rx="1" fill="#EAEAFF" />
    <rect x="151" y="172" width="7" height="2" rx="1" fill="#EAEAFF" />
    <path
        d="M16.5 71l3.704 10.365h11.988l-9.698 6.406 3.704 10.364L16.5 91.73l-9.698 6.406 3.704-10.365-9.698-6.405h11.988L16.5 71zM224.5 248l3.48 10.71h11.261l-9.11 6.62 3.48 10.71-9.111-6.62-9.111 6.62 3.48-10.71-9.11-6.62h11.261L224.5 248zM243.469 51.965l1.684 5.182h5.449l-4.409 3.203 1.684 5.182-4.408-3.202-4.409 3.203 1.684-5.183-4.408-3.203h5.449l1.684-5.182zM79.469 35.965l1.01 3.11h3.27l-2.645 1.921 1.01 3.11-2.645-1.922-2.645 1.921 1.01-3.109-2.645-1.922h3.27l1.01-3.11z"
        fill="#C2EEDF" />
    <circle cx="36" cy="261" r="26" fill="#EAEAFF" /></svg>