<svg width="28" height="28" viewBox="0 0 28 28" fill="none" xmlns="http://www.w3.org/2000/svg">
    <path
        d="M14.0002 2.3335C20.4437 2.3335 25.6668 7.55783 25.6668 14.0002C25.6668 20.4425 20.4437 25.6668 14.0002 25.6668C7.55666 25.6668 2.3335 20.4425 2.3335 14.0002C2.3335 7.55783 7.55666 2.3335 14.0002 2.3335ZM14.0025 17.5048C13.8464 17.4999 13.6909 17.5264 13.5453 17.5827C13.3996 17.639 13.2668 17.724 13.1546 17.8327C13.0425 17.9413 12.9533 18.0714 12.8924 18.2152C12.8315 18.359 12.8001 18.5136 12.8001 18.6697C12.8001 18.8259 12.8315 18.9805 12.8924 19.1243C12.9533 19.2681 13.0425 19.3982 13.1546 19.5068C13.2668 19.6155 13.3996 19.7005 13.5453 19.7568C13.6909 19.8131 13.8464 19.8396 14.0025 19.8347C14.3051 19.8251 14.592 19.6982 14.8027 19.4807C15.0133 19.2633 15.1311 18.9725 15.1311 18.6697C15.1311 18.367 15.0133 18.0762 14.8027 17.8588C14.592 17.6413 14.3051 17.5144 14.0025 17.5048ZM14.0002 8.16683C13.7142 8.1669 13.4383 8.27198 13.2247 8.4621C13.0111 8.65223 12.8748 8.91416 12.8417 9.19816L12.8335 9.3335L12.8358 15.168L12.844 15.3045C12.8777 15.5881 13.0143 15.8494 13.2278 16.039C13.4413 16.2286 13.7169 16.3334 14.0025 16.3334C14.2881 16.3334 14.5637 16.2286 14.7772 16.039C14.9907 15.8494 15.1273 15.5881 15.161 15.3045L15.1692 15.168L15.1668 9.3335L15.1587 9.197C15.1252 8.9132 14.9888 8.65155 14.7753 8.46166C14.5617 8.27178 14.2859 8.16687 14.0002 8.16683Z"
        fill="#E22D2D" />
</svg>