<svg width="100" height="100" viewBox="0 0 100 100" fill="none" xmlns="http://www.w3.org/2000/svg">
<path d="M9.08559 51.2806C9.02882 52.1797 9 53.0864 9 54C9 54.294 9.00298 54.5873 9.00893 54.8798C9.47168 77.6696 27.8707 96 50.5 96C73.4198 96 92 77.196 92 54C92 30.804 73.4198 12 50.5 12" stroke="black" stroke-width="5.5" stroke-linecap="round"/>
<path d="M57.9673 45.6572C57.9673 47.3314 57.4795 48.7285 56.5039 49.8486C55.5283 50.9567 54.1553 51.7035 52.3848 52.0889V52.2334C54.5046 52.4984 56.0944 53.1608 57.1543 54.2207C58.2142 55.2686 58.7441 56.6657 58.7441 58.4121C58.7441 60.9535 57.8468 62.9167 56.0522 64.3018C54.2576 65.6748 51.7043 66.3613 48.3921 66.3613C45.4653 66.3613 42.9963 65.8856 40.9849 64.9341V61.1582C42.105 61.7122 43.2913 62.1398 44.5439 62.4409C45.7965 62.742 47.001 62.8926 48.1572 62.8926C50.2048 62.8926 51.7344 62.5132 52.7461 61.7544C53.7578 60.9956 54.2637 59.8213 54.2637 58.2314C54.2637 56.8223 53.7036 55.7865 52.5835 55.124C51.4634 54.4616 49.7049 54.1304 47.3081 54.1304H45.0137V50.6797H47.3442C51.5597 50.6797 53.6675 49.2223 53.6675 46.3076C53.6675 45.1755 53.3001 44.3022 52.5654 43.688C51.8307 43.0737 50.7467 42.7666 49.3135 42.7666C48.3138 42.7666 47.3503 42.9111 46.4229 43.2002C45.4954 43.4772 44.3994 44.0252 43.1348 44.8442L41.0571 41.8813C43.478 40.0988 46.2904 39.2075 49.4941 39.2075C52.1559 39.2075 54.2336 39.7796 55.7271 40.9238C57.2205 42.068 57.9673 43.6458 57.9673 45.6572Z" fill="#212121"/>
<path d="M56.5039 49.8486L57.2545 50.5095L57.258 50.5054L56.5039 49.8486ZM52.3848 52.0889L52.1721 51.1118L51.3848 51.2831V52.0889H52.3848ZM52.3848 52.2334H51.3848V53.1162L52.2607 53.2257L52.3848 52.2334ZM57.1543 54.2207L56.4472 54.9278L56.4512 54.9318L57.1543 54.2207ZM56.0522 64.3018L56.6599 65.096L56.6632 65.0934L56.0522 64.3018ZM40.9849 64.9341H39.9849V65.5673L40.5572 65.838L40.9849 64.9341ZM40.9849 61.1582L41.4282 60.2619L39.9849 59.5479V61.1582H40.9849ZM45.0137 54.1304H44.0137V55.1304H45.0137V54.1304ZM45.0137 50.6797V49.6797H44.0137V50.6797H45.0137ZM46.4229 43.2002L46.7091 44.1584L46.7204 44.1549L46.4229 43.2002ZM43.1348 44.8442L42.316 45.4184L42.8694 46.2075L43.6783 45.6836L43.1348 44.8442ZM41.0571 41.8813L40.4642 41.0761L39.6774 41.6555L40.2384 42.4555L41.0571 41.8813ZM56.9673 45.6572C56.9673 47.1227 56.5466 48.2771 55.7498 49.1919L57.258 50.5054C58.4124 49.1799 58.9673 47.54 58.9673 45.6572H56.9673ZM55.7534 49.1878C54.9482 50.1023 53.7824 50.7612 52.1721 51.1118L52.5975 53.066C54.5281 52.6457 56.1084 51.8111 57.2545 50.5094L55.7534 49.1878ZM51.3848 52.0889V52.2334H53.3848V52.0889H51.3848ZM52.2607 53.2257C54.2512 53.4745 55.5992 54.0798 56.4472 54.9278L57.8614 53.5136C56.5897 52.2418 54.7579 51.5223 52.5088 51.2411L52.2607 53.2257ZM56.4512 54.9318C57.2886 55.7596 57.7441 56.8833 57.7441 58.4121H59.7441C59.7441 56.4481 59.1398 54.7775 57.8574 53.5096L56.4512 54.9318ZM57.7441 58.4121C57.7441 60.6864 56.9585 62.3391 55.4413 63.5101L56.6632 65.0934C58.7352 63.4942 59.7441 61.2205 59.7441 58.4121H57.7441ZM55.4446 63.5076C53.8891 64.6977 51.583 65.3613 48.3921 65.3613V67.3613C51.8256 67.3613 54.6262 66.6519 56.6599 65.096L55.4446 63.5076ZM48.3921 65.3613C45.5686 65.3613 43.255 64.9017 41.4125 64.0301L40.5572 65.838C42.7375 66.8694 45.3621 67.3613 48.3921 67.3613V65.3613ZM41.9849 64.9341V61.1582H39.9849V64.9341H41.9849ZM40.5415 62.0545C41.7305 62.6426 42.9874 63.0952 44.3102 63.4132L44.7777 61.4686C43.5953 61.1844 42.4795 60.7818 41.4282 60.2619L40.5415 62.0545ZM44.3102 63.4132C45.6308 63.7307 46.9139 63.8926 48.1572 63.8926V61.8926C47.0881 61.8926 45.9623 61.7534 44.7777 61.4686L44.3102 63.4132ZM48.1572 63.8926C50.2977 63.8926 52.0834 63.5014 53.3461 62.5544L52.1461 60.9544C51.3854 61.5249 50.1118 61.8926 48.1572 61.8926V63.8926ZM53.3461 62.5544C54.6736 61.5588 55.2637 60.0464 55.2637 58.2314H53.2637C53.2637 59.5961 52.842 60.4324 52.1461 60.9544L53.3461 62.5544ZM55.2637 58.2314C55.2637 56.5043 54.5463 55.1231 53.0925 54.2633L52.0745 55.9848C52.8609 56.4499 53.2637 57.1403 53.2637 58.2314H55.2637ZM53.0925 54.2633C51.7364 53.4613 49.7558 53.1304 47.3081 53.1304V55.1304C49.654 55.1304 51.1904 55.4619 52.0745 55.9848L53.0925 54.2633ZM47.3081 53.1304H45.0137V55.1304H47.3081V53.1304ZM46.0137 54.1304V50.6797H44.0137V54.1304H46.0137ZM45.0137 51.6797H47.3442V49.6797H45.0137V51.6797ZM47.3442 51.6797C49.5363 51.6797 51.3578 51.3064 52.6554 50.4092C54.0197 49.4659 54.6675 48.041 54.6675 46.3076H52.6675C52.6675 47.489 52.2614 48.2501 51.5179 48.7641C50.7078 49.3243 49.3677 49.6797 47.3442 49.6797V51.6797ZM54.6675 46.3076C54.6675 44.939 54.211 43.7603 53.2069 42.9208L51.924 44.4552C52.3893 44.8442 52.6675 45.4119 52.6675 46.3076H54.6675ZM53.2069 42.9208C52.2217 42.0971 50.8689 41.7666 49.3135 41.7666V43.7666C50.6246 43.7666 51.4398 44.0503 51.924 44.4552L53.2069 42.9208ZM49.3135 41.7666C48.2159 41.7666 47.1518 41.9255 46.1253 42.2455L46.7204 44.1549C47.5487 43.8967 48.4117 43.7666 49.3135 43.7666V41.7666ZM46.1366 42.242C45.0824 42.5569 43.8965 43.1595 42.5912 44.0049L43.6783 45.6836C44.9023 44.8909 45.9085 44.3975 46.7091 44.1584L46.1366 42.242ZM43.9535 44.2701L41.8759 41.3072L40.2384 42.4555L42.316 45.4184L43.9535 44.2701ZM41.6501 42.6866C43.8875 41.0391 46.4888 40.2075 49.4941 40.2075V38.2075C46.0919 38.2075 43.0685 39.1585 40.4642 41.0761L41.6501 42.6866ZM49.4941 40.2075C52.0249 40.2075 53.8593 40.7527 55.1189 41.7176L56.3352 40.13C54.6078 38.8066 52.2869 38.2075 49.4941 38.2075V40.2075ZM55.1189 41.7176C56.3463 42.658 56.9673 43.9321 56.9673 45.6572H58.9673C58.9673 43.3596 58.0948 41.4781 56.3352 40.13L55.1189 41.7176Z" fill="black"/>
<path d="M10 54H16" stroke="black" stroke-width="6" stroke-linecap="round"/>
<path d="M84 54H90" stroke="black" stroke-width="6" stroke-linecap="round"/>
<path d="M50 87V93" stroke="black" stroke-width="6" stroke-linecap="round"/>
<path fill-rule="evenodd" clip-rule="evenodd" d="M29.4224 13.7564C29.23 13.6396 29.23 13.3604 29.4224 13.2436L42.5443 5.27667C42.7442 5.15529 43 5.29922 43 5.53311V21.4669C43 21.7008 42.7442 21.8447 42.5443 21.7233L29.4224 13.7564Z" fill="black" stroke="#212121"/>
<path fill-rule="evenodd" clip-rule="evenodd" d="M41.4606 13.761C41.2578 13.6461 41.2578 13.3539 41.4606 13.239L55.5521 5.25381C55.7521 5.14048 56 5.28495 56 5.51482V21.4852C56 21.715 55.7521 21.8595 55.5521 21.7462L41.4606 13.761Z" fill="black" stroke="#212121"/>
</svg>
